<svg xmlns="http://www.w3.org/2000/svg" width="1365.952" height="576.18" viewBox="0 0 1365.952 576.18"><defs><style>.a{fill:#387dff;}</style></defs><g transform="translate(0 -5567.883)"><path class="a" d="M0-302l1365.952.12V-102.13c-202.84-41.018-181.805,141.161-315.429,171.812C899,104.441,833.92,16.407,669.326,55.959c-134.455,32.309-119.866,67.866-275.766,93.29C242.568,173.871,93.67,55.582.016,204.427Z" transform="translate(1365.952 5842.063) rotate(180)"/><path class="a" d="M2.335,3.664c-7.015,9.276,2.418,26.553,19.725,40.7,26.416,21.508,80.268,22.639,82.474,8.117,4.179-27.305-43.26-25.359-63.2-36.72S9.349-5.645,2.335,3.664Z" transform="translate(1210.882 5654.761) rotate(-56)"/></g></svg>