<svg xmlns="http://www.w3.org/2000/svg" width="1276.076" height="288.076" viewBox="0 0 1276.076 288.076"><defs><style>.a{fill:#f6ce08;}.b,.c,.e,.g,.i{fill:none;stroke-miterlimit:10;}.b{stroke:#766de8;}.b,.c,.g{stroke-width:2px;}.c{stroke:#4dcdfe;}.d{fill:#4fdc6f;}.e{stroke:#f27c6a;}.e,.i{stroke-width:1.312px;}.f{fill:#766de8;}.g{stroke:#f6ce08;}.h{fill:#f27c6a;}.i{stroke:#4fdc6f;}</style></defs><g transform="translate(-58.244 -1042)"><path class="a" d="M10.377,6A5.217,5.217,0,1,1,6,.059,5.218,5.218,0,0,1,10.377,6" transform="translate(68.68 1052.436) rotate(180)"/><path class="b" d="M10.718,5.359A5.359,5.359,0,1,1,5.359,0,5.359,5.359,0,0,1,10.718,5.359Z" transform="translate(73 1290.756) rotate(180)"/><path class="c" d="M9.32,4.66A4.66,4.66,0,1,1,4.66,0,4.66,4.66,0,0,1,9.32,4.66Z" transform="translate(325 1120.756) rotate(180)"/><path class="d" d="M6.091.272.734,3.806A1.635,1.635,0,0,0,.9,6.632L6.642,9.5A1.634,1.634,0,0,0,9.005,7.945L8.623,1.539A1.635,1.635,0,0,0,6.091.272" transform="translate(329.421 1322.469) rotate(180)"/><path class="e" d="M6.411.287.773,4.007A1.72,1.72,0,0,0,.95,6.981L6.991,10A1.72,1.72,0,0,0,9.478,8.363l-.4-6.743A1.721,1.721,0,0,0,6.411.287Z" transform="translate(209 1215.756) rotate(180)"/><g transform="translate(0 30)"><path class="f" d="M8.721,5.04A4.385,4.385,0,1,1,5.04.05,4.385,4.385,0,0,1,8.721,5.04" transform="translate(1186.152 1273.908)"/><path class="g" d="M10.718,5.359A5.359,5.359,0,1,1,5.359,0,5.359,5.359,0,0,1,10.718,5.359Z" transform="translate(1046.214 1204.256)"/><path class="c" d="M9.32,4.66A4.66,4.66,0,1,1,4.66,0,4.66,4.66,0,0,1,9.32,4.66Z" transform="translate(1324 1289.756)"/><path class="h" d="M6.091.272.734,3.806A1.635,1.635,0,0,0,.9,6.632L6.642,9.5A1.634,1.634,0,0,0,9.005,7.945L8.623,1.539A1.635,1.635,0,0,0,6.091.272" transform="translate(1072 1078.756)"/><path class="i" d="M6.411.287.773,4.007A1.72,1.72,0,0,0,.95,6.981L6.991,10A1.72,1.72,0,0,0,9.478,8.363l-.4-6.743A1.721,1.721,0,0,0,6.411.287Z" transform="translate(1239 1134.756)"/></g></g></svg>