<svg xmlns="http://www.w3.org/2000/svg" width="23.599" height="23.599" viewBox="0 0 23.599 23.599"><defs><style>.a{fill:#fff;}</style></defs><path class="a" d="M22.419,5.9h-3.3a3.3,3.3,0,0,0,.944-2.36A3.477,3.477,0,0,0,16.519,0,8.378,8.378,0,0,0,11.8,2.478,8.378,8.378,0,0,0,7.08,0,3.477,3.477,0,0,0,3.54,3.54,3.3,3.3,0,0,0,4.484,5.9H1.18A1.115,1.115,0,0,0,0,7.08v3.3a.254.254,0,0,0,.236.236h9.912a.508.508,0,0,0,.472-.472V6.372a.508.508,0,0,1,.472-.472h1.416a.508.508,0,0,1,.472.472v3.776a.508.508,0,0,0,.472.472h9.912a.254.254,0,0,0,.236-.236V7.08A1.115,1.115,0,0,0,22.419,5.9ZM7.08,4.72A1.115,1.115,0,0,1,5.9,3.54,1.115,1.115,0,0,1,7.08,2.36,8.25,8.25,0,0,1,10.5,4.484C10.148,4.6,7.08,4.72,7.08,4.72Zm9.44,0S13.451,4.6,13.1,4.484A7.787,7.787,0,0,1,16.519,2.36,1.115,1.115,0,0,1,17.7,3.54,1.115,1.115,0,0,1,16.519,4.72Z"/><path class="a" d="M9.968,11H1.236A.254.254,0,0,0,1,11.236v9.2a1.115,1.115,0,0,0,1.18,1.18H9.968a.508.508,0,0,0,.472-.472V11.472A.508.508,0,0,0,9.968,11Z" transform="translate(0.18 1.98)"/><path class="a" d="M20.2,11H11.472a.508.508,0,0,0-.472.472v9.676a.508.508,0,0,0,.472.472H19.26a1.115,1.115,0,0,0,1.18-1.18v-9.2A.254.254,0,0,0,20.2,11Z" transform="translate(1.98 1.98)"/></svg>