<svg xmlns="http://www.w3.org/2000/svg" xmlns:xlink="http://www.w3.org/1999/xlink" width="533.733" height="352.144" viewBox="0 0 533.733 352.144"><defs><style>.a{fill:url(#a);}.b{fill:#deebff;}.c{fill:url(#b);}.d{fill:#0052e0;}.e{fill:#0051e0;}.f{fill:#4edc6e;}.g{fill:#6aea87;}.h{fill:#005dcc;}.h,.u{opacity:0.47;}.i{fill:#cee0ff;}.j{fill:#766de7;}.k{fill:#fff;}.aa,.ab,.l,.m,.q,.v,.w,.x,.y,.z{fill:none;}.l{stroke:#f37b6a;}.aa,.ab,.l,.m,.v,.w,.x,.y,.z{stroke-miterlimit:10;}.m{stroke:#6aea87;}.n,.u{fill:#5590ff;}.o{fill:#f7ce05;}.p{fill:#47b3ff;}.r{fill:url(#c);}.s{fill:#edf4ff;}.t{opacity:0.34;}.aa,.ab,.v,.w,.x,.y,.z{stroke:#5590ff;stroke-width:0.065px;}.w{stroke-dasharray:0.221 0.221;}.x{stroke-dasharray:0.222 0.222;}.y{stroke-dasharray:0.223 0.223;}.z{stroke-dasharray:0.217 0.217;}.aa{stroke-dasharray:0.22 0.22;}.ab{stroke-dasharray:0.195 0.195;}.ac{fill:#242d47;}.ad{fill:#353f5a;}.ae{fill:#545f7d;}.af{fill:#7582a8;}.ag{fill:#f4fafd;}.ah{fill:#377dff;}.ai{fill:#b9ceff;}.aj{fill:#f37b6a;}.ak,.al{opacity:0.5;}.ak{fill:url(#d);}.al{fill:url(#e);}.am{fill:#387dff;}.an{fill:url(#f);}</style><linearGradient id="a" x1="0.5" x2="0.5" y2="1" gradientUnits="objectBoundingBox"><stop offset="0" stop-color="#f8fbff"/><stop offset="1" stop-color="#eef5ff"/></linearGradient><radialGradient id="b" cx="-4432.569" cy="258.11" r="48.143" gradientTransform="matrix(-1.148, 0, 0, 1.148, -9881.271, -28.254)" gradientUnits="userSpaceOnUse"><stop offset="0" stop-color="#f07379"/><stop offset="0.1" stop-color="#f17872"/><stop offset="0.2" stop-color="#f37d6a"/><stop offset="0.3" stop-color="#f48163"/><stop offset="0.4" stop-color="#f6865c"/><stop offset="0.5" stop-color="#f88b55"/><stop offset="0.6" stop-color="#f9904d"/><stop offset="0.7" stop-color="#fa9546"/><stop offset="0.8" stop-color="#fc993f"/><stop offset="0.9" stop-color="#fd9e37"/><stop offset="1" stop-color="#ffa330"/></radialGradient><linearGradient id="c" y1="0.5" x2="1" y2="0.5" gradientUnits="objectBoundingBox"><stop offset="0" stop-color="#58f1ff"/><stop offset="0.1" stop-color="#56ebff"/><stop offset="0.2" stop-color="#55e5ff"/><stop offset="0.3" stop-color="#53deff"/><stop offset="0.4" stop-color="#51d8ff"/><stop offset="0.5" stop-color="#4fd2ff"/><stop offset="0.6" stop-color="#4eccff"/><stop offset="0.7" stop-color="#4cc6ff"/><stop offset="0.8" stop-color="#4abfff"/><stop offset="0.9" stop-color="#49b9ff"/><stop offset="1" stop-color="#47b3ff"/></linearGradient><linearGradient id="d" x1="0.286" y1="0.24" x2="0.847" y2="0.773" gradientUnits="objectBoundingBox"><stop offset="0" stop-color="#edf4ff"/><stop offset="1" stop-color="#cfe0ff"/></linearGradient><linearGradient id="e" x1="0.579" y1="0.272" x2="0.25" y2="0.777" gradientUnits="objectBoundingBox"><stop offset="0" stop-color="#5690ff"/><stop offset="1" stop-color="#5690ff" stop-opacity="0"/></linearGradient><radialGradient id="f" cx="1.037" cy="1.11" r="1.073" gradientTransform="matrix(-0.94, -0.621, 0.744, -0.784, 1.186, 2.624)" xlink:href="#b"/></defs><g transform="translate(-273 -3918.152)"><g transform="translate(273 3963.522)"><path class="a" d="M464.1,44.574C405.332,57.087,333.806,57.087,333.806,57.087c-34.425,1.1-134.193-6.782-210.353-20.878C51.473,22.886,0,5.533,0,5.533V0H533.733V3.339S514.135,33.931,464.1,44.574Z" transform="translate(0 249.585)"/><path class="b" d="M476.282,169.332c-16.175-23.643-28.091-52.2-42.5-78.021-3.307-5.956-8.563-11.867-13.819-14-12.6-5-25.917-6.865-38.6-11.685-8.065-3.046-16.628-7.366-22.971-14.186-12.143-13-22.7-28.553-34.434-42.33C320.24,4.743,314.8-.3,310.317.014c-18.894,1.273-37.878,3.274-56.5,7.229C239,10.381,224.684,17.2,210,21.611c-10.919,3.274-20.842,7.5-27.276,20.869-5.437,11.185-12.777,20.96-17.353,32.645-8.065,20.46-22.382,28.007-37.379,35.191-19.8,9.5-39.69,18.641-59.309,28.78-3.9,2-7.023,7.366-9.787,11.958Q31.24,196.885,3.987,243.079c-1.45,2.455-2.129,5.683-3.987,10.912H533.733V239.578C514.251,216.481,493.681,194.748,476.282,169.332Z" transform="translate(0 0)"/></g><g transform="translate(369.274 3918.152)"><g transform="translate(0 0)"><path class="c" d="M174.117,127.313c47.71,3.623,52.762-60.41,52.762-60.41L217.293,80.3,210.2,69.48s-1.022,39.815-36.08,46.926" transform="translate(113.825 106.656)"/><path class="d" d="M303.87,117.8h-126.9L151.295,69.852h120.84a9.731,9.731,0,0,1,8.782,5.594C289.48,93.523,295.079,109.454,303.87,117.8Z" transform="translate(26.104 117.991)"/><path class="e" d="M353.833,72.5,192.941,69.27l-62.335,1.567,143.809,3.481Z" transform="translate(-53.42 115.753)"/><g transform="translate(0 228.016)"><path class="f" d="M158.179,128.82c3.933-26.844-27.488-50.674-27.488-50.674,1.041,2.625,1.686,7.643,1.54,14.487,1.753,1.274,3.986,2.62,5.183,4.291L131.757,95.5a81.154,81.154,0,0,1-2.209,10.438,48.925,48.925,0,0,1,6.616,4.524l-7.411-2.693c-.155.959-.872,2.31-1.027,3.269-10.3,26.771,14.657,48.069,14.657,48.069C149.936,152.007,156.363,139.811,158.179,128.82Z" transform="translate(-74.064 -78.146)"/><path class="g" d="M170.992,99.639C153.274,79.044,114.67,86.92,114.67,86.92c2.31.872,6.776,3.57,11.877,8.341a27.849,27.849,0,0,1,7.086-1.288L128.7,97.087a53.459,53.459,0,0,1,6.466,8.428c2.548-.562,5.173-1.6,7.721-2.165l-6.524,3.836c.8,1.114,1.119,2.146,1.918,3.26,13.5,25.3,45.666,20.779,45.666,20.779C183.213,120.8,178.011,107.665,170.992,99.639Z" transform="translate(-114.67 -50.108)"/><g transform="translate(0.077 36.332)"><path class="f" d="M183.408,130.354a105.823,105.823,0,0,0-5.275-9.7c-1.913-3.265-4.466-5.648-6.466-8.433a79.286,79.286,0,0,0-56.981-26.572,78.887,78.887,0,0,1,10.671.78,75.32,75.32,0,0,1,10.438,2.209,69,69,0,0,1,36.429,23.187A46.36,46.36,0,0,1,183.408,130.354Z" transform="translate(-114.686 -85.647)"/></g></g><g transform="translate(208.882 104.319)"><rect class="h" width="69.264" height="87.186" rx="0.97" transform="translate(14.531 10.172)"/><rect class="i" width="69.264" height="93.967" rx="5" transform="translate(19.375)"/><rect class="j" width="69.264" height="87.186" rx="5" transform="translate(10.172 9.203)"/><rect class="k" width="69.264" height="87.186" rx="5" transform="translate(0 18.406)"/><rect class="g" width="49.405" height="62.968" rx="5" transform="translate(10.172 30.999)"/><path class="k" d="M185.481,69.542c-.969-1.453-3.391-4.359-10.172-4.844V61.308h-2.422l.484,3.875c-6.781,0-9.2,2.906-10.172,4.359s-.969,4.359.969,4.844h.484c-.484,1.937-3.391,13.562.969,16.468a43.639,43.639,0,0,0,7.454,3.177,5.119,5.119,0,0,0,3.589.131,29.908,29.908,0,0,0,7.362-2.824c4.359-2.906,1.453-14.531.969-16.468h.484C186.449,73.9,186.449,71,185.481,69.542Z" transform="translate(-139.465 -19.168)"/><rect class="f" width="49.405" height="12.109" rx="0.97" transform="translate(10.172 81.858)"/></g><ellipse class="j" cx="2.906" cy="2.906" rx="2.906" ry="2.906" transform="translate(223.35 43.956)"/><path class="l" d="M147.64,57.744c-.484.484-1.937.484-1.937-.484l-.969-4.359-.969-4.359a1.07,1.07,0,0,1,1.453-1.453l4.359.969,4.359.969c.969.484,1.453,1.453.484,1.937l-2.906,2.906Z" transform="translate(-3.333 29.999)"/><path class="m" d="M169.865,56.3a1.2,1.2,0,0,1-.484-1.937l2.906-2.906,2.906-2.906c.484-.484,1.937-.484,1.937.484l.969,3.875.969,3.875a1.284,1.284,0,0,1-1.453,1.453l-3.875-.969Z" transform="translate(94.396 34.904)"/><g transform="translate(79.43 72.883)"><path class="n" d="M138.1,46.581l-6,9.76s5.08,6.35,8.255,5.08,4.445-3.175,5.08-2.54c-.635-.635.635-2.54.635-5.715C146.074,49.356,138.1,46.581,138.1,46.581Z" transform="translate(-128.295 -44.276)"/><path class="e" d="M139.168,46.542c-1.27,0-3.175,0-5.715,3.81s-1.905,5.715-1.27,6.985,1.905,1.9,2.54,1.27c1.27-.635,2.54-3.81,3.175-5.08s3.175-3.81,3.175-5.08A2.862,2.862,0,0,0,139.168,46.542Z" transform="translate(-130.913 -46.542)"/><path class="e" d="M134.044,48.212l-.635.635-1.905-.635.635-1.27Z" transform="translate(-131.504 -44.402)"/></g><g transform="translate(184.779)"><path class="n" d="M159.449,31.871l-6.3.484s-.969,4.359.969,5.328c1.453.969,2.906.484,2.906.969,0-.484,1.453-.484,2.906-1.937C160.9,35.746,159.449,31.871,159.449,31.871Z" transform="translate(-152.467 -27.995)"/><path class="e" d="M160.285,32.344c-.484-.484-1.453-1.453-3.875-.969-2.422,0-3.391,1.453-3.391,1.937a.928.928,0,0,0,.484,1.453c.484,0,2.422-.484,3.391-.484.484,0,2.906,0,3.391-.484C160.769,33.8,160.285,32.829,160.285,32.344Z" transform="translate(-152.818 -30.406)"/><path class="e" d="M154.429,32.04l-.969.484V31.071h.484Z" transform="translate(-150.353 -31.071)"/></g><g transform="translate(284.894 40.081)"><path class="e" d="M184.9,44.79l-7.75-4.844s-4.844,4.359-3.391,6.3c.969,2.422,2.906,3.391,2.422,3.875.484-.484,1.937.484,4.359.484S184.9,44.79,184.9,44.79Z" transform="translate(-173.488 -37.039)"/><path class="n" d="M183.936,45.066c0-.969-.484-2.422-3.391-4.359a6.052,6.052,0,0,0-5.328-.969c-.484.484-1.453,1.453-.969,1.937a27.04,27.04,0,0,0,3.875,2.422c.969.484,2.906,2.422,3.875,2.422C183.452,46.519,183.936,45.551,183.936,45.066Z" transform="translate(-171.071 -38.769)"/><path class="n" d="M176.313,41.768l-.969-.484.969-1.937.969.484Z" transform="translate(-166.352 -39.346)"/></g><g transform="translate(114.233 0.485)"><path class="o" d="M151.379,43.905c-2.906,0-5.812,3.391-5.812,7.266h0c0-4.359-2.906-7.266-5.812-7.266,3.391,0,5.812-3.391,5.812-8.234C145.566,40.03,147.988,43.905,151.379,43.905Z" transform="translate(-132.489 -13.874)"/><path class="o" d="M146,36.015c-1.938,0-3.391,1.937-3.875,4.844h0c0-2.422-1.937-4.844-3.875-4.844,1.937,0,3.875-2.422,3.875-4.844C142.129,34.077,144.066,36.015,146,36.015Z" transform="translate(-138.254 -31.171)"/><path class="o" d="M148.4,36.462a2.712,2.712,0,0,0-2.422,2.906h0c0-1.937-.969-2.906-2.422-2.906,1.453,0,2.422-1.453,2.422-3.391C145.976,35.008,147.429,36.462,148.4,36.462Z" transform="translate(-117.882 -23.868)"/></g><g transform="translate(183.449 83.438)"><path class="o" d="M165.769,55.562c-2.906,0-5.812-3.391-5.812-7.266h0c0,4.359-2.906,7.266-5.812,7.266,3.391,0,5.812,3.391,5.812,8.234C159.956,58.953,162.378,55.562,165.769,55.562Z" transform="translate(-146.394 -48.297)"/><path class="o" d="M160.294,56.741c-1.937,0-3.391-1.937-3.875-4.844h0c0,2.422-1.937,4.844-3.875,4.844,1.937,0,3.875,2.422,3.875,4.844C156.419,59.162,158.356,56.741,160.294,56.741Z" transform="translate(-152.544 -34.46)"/></g><path class="p" d="M187.788,207.248l87.622-7.3a9.685,9.685,0,0,0,8.883-9.653V79.622A9.683,9.683,0,0,0,274.4,69.94L185.895,71.78l-35.3,132.227L184,207.243A22.485,22.485,0,0,0,187.788,207.248Z" transform="translate(23.41 118.32)"/><line class="q" y2="135.623" transform="translate(209.303 190.102)"/><path class="r" d="M271.655,72.856V208.479L137.146,195.643a9.428,9.428,0,0,1-8.331-6.636,7.693,7.693,0,0,1-.533-3V79.347a9.7,9.7,0,0,1,9.881-9.687Z" transform="translate(-62.35 117.244)"/><g transform="translate(67.008 116.186)"><g transform="translate(0)"><path class="s" d="M10.172,81.858V11.14A11.1,11.1,0,0,0,0,0H67.327A10.95,10.95,0,0,1,78.458,10.656h.494v71.2Z"/></g><g transform="translate(19.374 17.437)"><g class="t" transform="translate(11.625 2.906)"><path class="u" d="M167.941,81.055l-8.234-5.328-21.8-13.562a27.464,27.464,0,0,1,3.875,6.3,17.211,17.211,0,0,1,.969,4.844l16.468,10.172c.484.484.969,1.453.484,1.937h0L143.723,95.1c-.484.484-1.453,0-1.453-.969V71.852a9.124,9.124,0,0,0-.969-3.875,21.043,21.043,0,0,0-5.812-8.234L135,59.258v41.656a3.947,3.947,0,0,0,6.3,3.391l27.125-16.953C170.847,86.383,170.847,82.992,167.941,81.055Z" transform="translate(-134.52 -59.258)"/><path class="n" d="M168.325,80.67l-8.234-5.328a6.055,6.055,0,0,1,0,9.687h0L143.622,95.2c-.484.484-1.453,0-1.453-.969V71.952a9.124,9.124,0,0,0-.969-3.875,21.042,21.042,0,0,0-5.812-8.234l-.484-.484v41.656a3.947,3.947,0,0,0,6.3,3.391l27.125-16.953C171.231,86,171.231,82.608,168.325,80.67Z" transform="translate(-134.904 -58.874)"/></g><line class="v" y1="22.765" x2="36.812" transform="translate(7.751 32.452)"/><path class="v" d="M166.119,78.748l-.969-.484L135.6,59.858" transform="translate(-120.588 -54.046)"/><path class="v" d="M151.31,62.158l17.922,11.625L132.9,96.064" transform="translate(-130.966 -45.205)"/><line class="v" y2="52.796" transform="translate(11.626 3.875)"/><path class="v" d="M132.5,58.658h.484" transform="translate(-132.504 -58.658)"/><path class="w" d="M133.288,58.658a19.348,19.348,0,0,1,17.437,18.89A18.724,18.724,0,0,1,132.8,96.439" transform="translate(-131.351 -58.658)"/><path class="v" d="M133.088,66.458H132.6" transform="translate(-132.12 -28.677)"/><g transform="translate(0.969)"><path class="v" d="M132.7,58.658h.484" transform="translate(-132.704 -58.658)"/><path class="w" d="M133.488,58.658a19.348,19.348,0,0,1,17.437,18.89A18.724,18.724,0,0,1,133,96.439" transform="translate(-131.551 -58.658)"/><path class="v" d="M133.188,66.458H132.7" transform="translate(-132.704 -28.677)"/></g><g transform="translate(38.749 24.703)"><path class="x" d="M149.223,67.633a4.4,4.4,0,0,1-1.453,3.391c-.484.484-.969.484-1.453.969-.484,0-.969.484-1.453.484a4.359,4.359,0,0,1,0-8.719,2.912,2.912,0,0,1,1.937.484c.484,0,.484.484.969.484S149.223,66.18,149.223,67.633Z" transform="translate(-140.504 -63.758)"/></g><g transform="translate(11.14 41.171)"><path class="y" d="M143.523,71.517a4.359,4.359,0,1,1-4.359-4.359A4.341,4.341,0,0,1,143.523,71.517Z" transform="translate(-134.804 -67.158)"/></g><g transform="translate(26.641 17.921)"><ellipse class="z" cx="6.297" cy="6.297" rx="6.297" ry="6.297"/></g><g transform="translate(34.391 27.124)"><ellipse class="aa" cx="1.453" cy="1.453" rx="1.453" ry="1.453"/></g><g transform="translate(18.89 36.812)"><path class="ab" d="M139.31,67.711a1.453,1.453,0,1,1-1.453-1.453A2.184,2.184,0,0,1,139.31,67.711Z" transform="translate(-136.404 -66.258)"/></g><line class="v" y1="36.812" transform="translate(19.376 16.468)"/><rect class="v" width="35.359" height="46.015" transform="translate(11.626 3.875)"/><line class="v" x2="11.625" transform="translate(38.266 28.578)"/></g></g><g transform="translate(136.274 141.789)"><g transform="translate(0 1.76)"><path class="k" d="M175.352,131.036l-17.437,3.391A2.639,2.639,0,0,1,154.524,132L142.9,67.583a2.844,2.844,0,0,1,2.422-3.391L162.758,60.8a2.639,2.639,0,0,1,3.391,2.422l11.625,64.421C178.258,129.1,177.289,130.551,175.352,131.036Z" transform="translate(-142.804 -60.707)"/><rect class="ac" width="23.734" height="11.625" transform="matrix(0.984, -0.178, 0.178, 0.984, 0.208, 7.638)"/><rect class="ad" width="23.734" height="11.625" transform="matrix(0.984, -0.178, 0.178, 0.984, 3.115, 23.624)"/><rect class="ae" width="23.734" height="11.625" transform="matrix(0.984, -0.178, 0.178, 0.984, 6.018, 39.11)"/><rect class="af" width="23.734" height="11.625" transform="matrix(0.984, -0.178, 0.178, 0.984, 8.926, 55.093)"/></g><g transform="translate(8.565)"><g transform="translate(0)"><path class="k" d="M170.89,131.779l-17.35,1.763a2.791,2.791,0,0,1-3.182-2.6L144.676,65.3a3.121,3.121,0,0,1,2.6-3.182l17.35-1.758a2.787,2.787,0,0,1,3.182,2.6l5.682,65.637C174.116,129.991,172.818,131.585,170.89,131.779Z" transform="translate(-144.219 -60.344)"/><rect class="i" width="23.733" height="11.624" transform="translate(0 5.616) rotate(-5.103)"/><rect class="s" width="23.733" height="11.624" transform="translate(1.713 22.13) rotate(-5.103)"/><rect class="ag" width="23.733" height="11.624" transform="translate(2.898 38.115) rotate(-5.103)"/><rect class="k" width="23.733" height="11.624" transform="translate(4.566 54.148) rotate(-5.103)"/></g></g><g transform="translate(16.572 0.551)"><path class="k" d="M166.861,132.542l-17.5-.111c-1.928-.17-3.289-1.264-3.114-3.2l.044-65.646c.131-1.448,1.269-3.289,3.2-3.119l17.5.111c1.928.17,3.289,1.264,3.114,3.2l-.044,65.646C169.883,131.351,168.788,132.712,166.861,132.542Z" transform="translate(-146.206 -60.458)"/><rect class="e" width="11.625" height="23.735" transform="translate(0.022 15.827) rotate(-89.905)"/><rect class="ah" width="11.625" height="23.735" transform="translate(0 32.362) rotate(-89.905)"/><rect class="n" width="11.625" height="23.735" transform="translate(0.021 48.412) rotate(-89.905)"/><rect class="ai" width="11.625" height="23.735" transform="translate(0.042 64.461) rotate(-89.905)"/></g></g><g transform="translate(166.822 166.894)"><path class="o" d="M154.017,92.652h17.437a4.854,4.854,0,0,0,4.844-4.844V70.371a4.854,4.854,0,0,0-4.844-4.844H154.017a4.854,4.854,0,0,0-4.844,4.844V87.808C148.689,90.714,151.111,92.652,154.017,92.652Z" transform="translate(-149.111 -65.527)"/><path class="k" d="M166.108,66.327H150.124v3.391h.969v-.969h6.3v15.5h-.969V85.7h4.359V84.249h-.969v-15.5h6.3v.969h.969V66.327Z" transform="translate(-145.219 -62.451)"/></g><g transform="translate(226.256 233.898)"><g transform="translate(0.544 1.089)"><path class="k" d="M183.15,97.352a29.063,29.063,0,0,0-4.258,3.318,4.564,4.564,0,0,0-.639,1.884l-6.723-7.13-6.825-7.362-3.211-3.512,4.756-4.965Z" transform="translate(-161.494 -79.585)"/><path class="k" d="M177.269,91.23l-.276.281-.223.281-4.262,4.955-4.5-4.548-.136-.136-2.388-2.446v-.048a4.522,4.522,0,0,1,.731-2.388,6.571,6.571,0,0,1,3.444-3.541Z" transform="translate(-146.158 -63.999)"/></g><g transform="translate(0 0.704)"><path class="k" d="M164.548,103.449l16.4-16.684-6.864-7.258L161.382,92.2l.528,8.48Z" transform="translate(-161.382 -79.506)"/></g><g transform="translate(27.409 29.36)"><path class="k" d="M177.055,89.986,171.8,85.422,167.04,90.4l4.724,4.586Z" transform="translate(-167.04 -85.422)"/><g transform="translate(5.776 5.606)"><path class="k" d="M175.6,95.312a14.546,14.546,0,0,1-1.942,1.332l-5.425-5.1,4.756-4.97,4.8,4.553C177.552,92.924,176.913,94.523,175.6,95.312Z" transform="translate(-168.233 -86.579)"/><path class="k" d="M184.794,101.646c-1.584,1.657-3.652,1.85-5.217.46l-9.8-8.912a16.415,16.415,0,0,0,1.942-1.288,5.531,5.531,0,0,0,2.5-3.928l10.114,9.159A3.1,3.1,0,0,1,184.794,101.646Z" transform="translate(-162.291 -81.206)"/></g></g><g transform="translate(8.822)"><g transform="translate(40.761)"><path class="k" d="M184.506,80.333l-5.866,5.4,8.394,8.074c-3.73,3.5-9.537,3.555-12.686.015-3.672-3.589-3.638-9.242.087-12.235C176.572,79.1,180.81,78.72,184.506,80.333Z" transform="translate(-171.618 -79.36)"/></g><g transform="translate(40.362 5.53)"><path class="k" d="M171.536,83.277a10.539,10.539,0,0,0,2.6,6.665c3.672,3.531,9.479,3.478,12.681-.034a7.956,7.956,0,0,0,1.671-9.406l-5.866,5.406Z" transform="translate(-171.536 -80.502)"/></g><g transform="translate(0 6.354)"><path class="k" d="M175.419,91.888A15.444,15.444,0,0,0,178.2,93.04l-9.111,10.24c-1.579,1.792-3.691,1.986-4.727.421a3.806,3.806,0,0,1-1.162-2.659,4.508,4.508,0,0,1,1.172-2.853l8.709-9.692A5.264,5.264,0,0,0,175.419,91.888Z" transform="translate(-163.203 -50.595)"/><path class="k" d="M186.811,85.53c1.032,1.535,1.017,4.117-.572,5.231a.875.875,0,0,1-.358.053,11.231,11.231,0,0,1,.31,1.2l-15.674,16.628a16.391,16.391,0,0,1-2.79-1.114c-1.08-.625-1.661-2.029-1.971-3.778l6.471-6.96,5.483-5.72.407-.378,6.718-6.863A11.941,11.941,0,0,1,186.811,85.53Z" transform="translate(-153.39 -68.553)"/><path class="k" d="M188.478,85.244l-5.745,5.473-.412.436-9.959,9.862a4.445,4.445,0,0,0,.208-4.97,8.452,8.452,0,0,0-2.427-2.272l7.551-7.367.412-.392,5.653-5.343,4.49,4.359Z" transform="translate(-136.52 -80.672)"/></g></g><path class="n" d="M187.237,94.021a29.1,29.1,0,0,1,1.119,9.707c-.237,1.792-.877,3.391-2.189,4.18a14.544,14.544,0,0,1-1.942,1.332c-3.521,2.214-6.5,2.6-6.5,3.967,0-1.274-2.7-1.366-6.161-2.557a16.393,16.393,0,0,1-2.79-1.114c-1.08-.625-1.661-2.029-1.971-3.778-.707-4.568.751-11.32.983-12.3a1.647,1.647,0,0,1-.542-.073,2.316,2.316,0,0,1-1.758-2.465v-.048a4.522,4.522,0,0,1,.731-2.388,6.571,6.571,0,0,1,3.444-3.541,16.145,16.145,0,0,1,6.466-1.458l-.044-.179,1.763.073v.136a13.908,13.908,0,0,1,8.036,2.325,11.94,11.94,0,0,1,1.976,1.705c1.032,1.535,1.017,4.117-.572,5.231a.874.874,0,0,1-.358.053A11.215,11.215,0,0,1,187.237,94.021Z" transform="translate(-145.614 -64.209)"/><path class="k" d="M187.463,96.625c-.237,1.792-.877,3.391-2.189,4.18a14.543,14.543,0,0,1-1.942,1.332c-3.521,2.214-6.5,2.6-6.5,3.967,0-1.274-2.7-1.366-6.161-2.557a16.392,16.392,0,0,1-2.79-1.114c-1.08-.625-1.661-2.029-1.971-3.778-.707-4.568.751-11.32.983-12.3v-.092h.087l9.121-.552,2.17-.111,7.585-.446a3.942,3.942,0,0,0,.179.572,11.231,11.231,0,0,1,.31,1.2A29.1,29.1,0,0,1,187.463,96.625Z" transform="translate(-144.721 -57.106)"/><path class="k" d="M187.285,92.635a.874.874,0,0,1-.358.053,54.9,54.9,0,0,1-8.171.252c-.586-.029-1.085-.015-1.492,0l-.494.015c-2.17.111-6.684.572-8.762.407-.092,0-.179,0-.223-.044a1.648,1.648,0,0,1-.542-.073,2.316,2.316,0,0,1-1.758-2.465v-.048a4.522,4.522,0,0,1,.731-2.388,6.571,6.571,0,0,1,3.444-3.541,16.145,16.145,0,0,1,6.466-1.458l.634,0a8.1,8.1,0,0,1,1.085.034,13.908,13.908,0,0,1,8.036,2.325,11.941,11.941,0,0,1,1.976,1.705C188.889,88.94,188.874,91.521,187.285,92.635Z" transform="translate(-145.614 -64.073)"/><path class="k" d="M169.726,82.678l-.018,4.275-1.582.021-.131-1.093-.044-.182-.35-3.011Z" transform="translate(-137.48 -66.607)"/></g><g transform="translate(100.639 231.837)"><g transform="translate(0.58 0.529)"><path class="k" d="M158.768,97.586a29.594,29.594,0,0,0-4.553,3.139,4.3,4.3,0,0,0-.678,1.875L146.32,95l-7.314-7.619-3.439-3.55,5.086-4.786Z" transform="translate(-135.567 -79.044)"/><path class="k" d="M152.489,91.741l-.291.276-.242.276L147.4,97.1,142.559,92l-.145-.15-2.567-2.7v-.048a4.233,4.233,0,0,1,.775-2.4c.291-.94,1.356-2.373,3.681-3.415Z" transform="translate(-119.116 -62.708)"/></g><g transform="translate(0 0.26)"><path class="k" d="M138.842,102.439l17.542-15.93-7.356-7.52-13.58,12.225.566,8.33Z" transform="translate(-135.447 -78.988)"/></g><g transform="translate(29.424 30.702)"><path class="k" d="M152.273,90.581l-5.658-5.308-5.093,4.791,5.093,5.281Z" transform="translate(-141.522 -85.273)"/><g transform="translate(6.223 6.47)"><path class="k" d="M150.751,96.258a13.67,13.67,0,0,1-2.083,1.187l-5.861-6.05,5.086-4.786,5.183,5.4C152.833,93.913,152.155,95.56,150.751,96.258Z" transform="translate(-142.807 -86.609)"/><path class="k" d="M160.7,104.787a3.765,3.765,0,0,1-5.619-.31L144.477,93.366a14.749,14.749,0,0,0,2.083-1.138c1.453-.649,2.277-2.1,2.664-3.952L160.17,99.692C161.866,101.474,161.866,103.741,160.7,104.787Z" transform="translate(-136.388 -80.205)"/></g></g><g transform="translate(9.492)"><g transform="translate(43.557)"><path class="k" d="M160.119,80.06,153.9,86.032l9.058,9.4a9.279,9.279,0,0,1-13.582-.567c-3.962-4.1-3.962-10.288,0-13.514C151.633,78.621,156.162,78.224,160.119,80.06Z" transform="translate(-146.399 -78.935)"/></g><g transform="translate(43.133 6.366)"><path class="k" d="M146.312,82.923a12.323,12.323,0,0,0,2.829,7.435c3.962,4.112,10.186,4.379,13.582.567a9.344,9.344,0,0,0,1.7-10.675l-6.224,5.972Z" transform="translate(-146.312 -80.249)"/></g><g transform="translate(0 7.068)"><path class="k" d="M150.533,91.939a19.647,19.647,0,0,0,3,1.54l-9.784,9.2c-1.7,1.569-3.972,1.443-5.086-.281a4.275,4.275,0,0,1-1.259-2.829,3.788,3.788,0,0,1,1.259-2.688l9.348-8.7A6.339,6.339,0,0,0,150.533,91.939Z" transform="translate(-137.407 -50.448)"/><path class="k" d="M162.67,85.666c1.114,1.734,1.114,4.519-.581,5.594a.892.892,0,0,1-.388.029,12.837,12.837,0,0,1,.339,1.313l-16.759,15.945a21.035,21.035,0,0,1-3-1.492c-1.162-.775-1.792-2.286-2.131-4.117l6.926-6.539,5.861-5.517.436-.363,7.169-6.82A13.925,13.925,0,0,1,162.67,85.666Z" transform="translate(-126.875 -67.691)"/><path class="k" d="M164.405,85.669l-6.1,5.88-.436.465-10.608,10.172a4.837,4.837,0,0,0,.194-5.376,9.925,9.925,0,0,0-2.616-2.616l8.04-7.643.436-.417,6.006-5.74,4.844,5.023Z" transform="translate(-108.848 -80.394)"/></g></g><path class="n" d="M163.193,95.212c.678,2.582,1.647,7.1,1.259,10.588-.242,1.908-.92,3.555-2.325,4.253a13.669,13.669,0,0,1-2.083,1.187c-3.778,1.918-6.975,1.942-6.975,3.376,0-1.342-2.906-1.778-6.636-3.458a21.036,21.036,0,0,1-3-1.492c-1.163-.775-1.792-2.286-2.131-4.117-.775-4.761.775-11.562,1.017-12.555a1.872,1.872,0,0,1-.581-.121,2.611,2.611,0,0,1-1.889-2.664V90.16a4.233,4.233,0,0,1,.775-2.4c.291-.94,1.356-2.373,3.681-3.415a17.176,17.176,0,0,1,6.926-1.133l-.048-.194,1.889.174v.145a15.575,15.575,0,0,1,8.622,2.969,13.926,13.926,0,0,1,2.131,1.967c1.114,1.734,1.114,4.519-.581,5.594a.892.892,0,0,1-.388.029A12.844,12.844,0,0,1,163.193,95.212Z" transform="translate(-118.537 -63.232)"/><path class="k" d="M163.47,97.959c-.242,1.908-.92,3.555-2.325,4.253a13.67,13.67,0,0,1-2.083,1.187c-3.778,1.918-6.975,1.942-6.975,3.376,0-1.342-2.906-1.778-6.636-3.458a21.036,21.036,0,0,1-3-1.492c-1.162-.775-1.792-2.286-2.131-4.117-.775-4.761.775-11.562,1.017-12.555V85.06l.1,0,9.784.165,2.325.058,8.137.136a4.454,4.454,0,0,0,.194.635,12.842,12.842,0,0,1,.339,1.313C162.889,89.952,163.858,94.466,163.47,97.959Z" transform="translate(-117.554 -55.391)"/><path class="k" d="M163.242,93.718a.892.892,0,0,1-.388.029,58.887,58.887,0,0,1-8.767-.407c-.63-.078-1.163-.1-1.6-.121l-.533-.024c-2.325-.058-7.169.048-9.4-.291a.361.361,0,0,1-.242-.063,1.872,1.872,0,0,1-.581-.121,2.611,2.611,0,0,1-1.889-2.664v-.048a4.233,4.233,0,0,1,.775-2.4c.291-.94,1.356-2.373,3.681-3.415a17.176,17.176,0,0,1,6.926-1.133l.678.029a9.408,9.408,0,0,1,1.162.1,15.575,15.575,0,0,1,8.622,2.969,13.927,13.927,0,0,1,2.131,1.967C164.937,89.857,164.937,92.643,163.242,93.718Z" transform="translate(-118.537 -63.08)"/><path class="k" d="M144.384,82.46v4.5l-1.7-.074-.145-1.155-.048-.193-.388-3.176Z" transform="translate(-109.848 -65.754)"/></g><g transform="translate(193.137 151.165)"><path class="aj" d="M156.481,92.272h0a3.459,3.459,0,0,1-1.453-4.844L165.2,68.054l6.781,3.391L161.809,90.819C160.356,92.757,158.419,93.241,156.481,92.272Z" transform="translate(-154.544 -40.084)"/><ellipse class="ak" cx="15.5" cy="15.5" rx="15.5" ry="15.5" transform="translate(3.877 0.845)"/><path class="aj" d="M187.5,73.781a16.543,16.543,0,1,0-10.656,20.828C185.561,92.186,190.4,82.5,187.5,73.781Zm-29.062,9.2c-2.422-7.265,1.938-15.015,9.2-17.437s15.015,1.937,17.437,9.2-1.937,15.015-9.2,17.437A13.6,13.6,0,0,1,158.436,82.983Z" transform="translate(-152.139 -62.28)"/></g><path class="al" d="M370.076,79.628V190.305a9.7,9.7,0,0,1-8.912,9.639l-87.622,7.314c-.194,0-.436.048-.63.048a22.776,22.776,0,0,1-3.148-.048l-33.421-3.245,21.312-79.727c-15.984-.145-94.064-3.972-129.374-6.055V95.563c1.792-5.134,3.2-10.317,4.166-14.337a9.575,9.575,0,0,1,9.59-7.411l129.617-2.034,1.259-.048,87.283-1.792A9.7,9.7,0,0,1,370.076,79.628Z" transform="translate(-62.358 118.324)"/><path class="ag" d="M124.739,112.748c-14.492,0,123.572,7.3,142.472,7.3s11.252-35.175,22.15-46.95L154.915,69.6a9.641,9.641,0,0,0-9.639,7.387C142.331,89.407,135.376,112.748,124.739,112.748Z" transform="translate(-80.056 116.997)"/><path class="am" d="M255.3,79.628V190.305a9.7,9.7,0,0,1-8.912,9.639l-87.622,7.314c-.194,0-.436.048-.63.048V71.732l87.283-1.792A9.7,9.7,0,0,1,255.3,79.628Z" transform="translate(52.414 118.324)"/><path class="an" d="M231.07,202.564c-17.466-.882-10.554-77.3-58.265-73.682s-52.762-54.244-52.762-54.244l9.222,3.245,6.573-8.447s1.913,47.594,36.967,54.7,33.542,75.842,42.247,76.772S231.07,202.564,231.07,202.564Z" transform="translate(-94.018 116.392)"/></g></g></g></svg>