<svg xmlns="http://www.w3.org/2000/svg" width="28.632" height="28.071" viewBox="0 0 28.632 28.071"><defs><style>.a{fill:#fff;}</style></defs><path class="a" d="M11.129,28.072A11.372,11.372,0,0,1,0,16.488v-4.8a.91.91,0,0,1,.881-.926H21.739a.909.909,0,0,1,.891.926v4.8A11.371,11.371,0,0,1,11.484,28.072Zm13.519-7.329a.718.718,0,0,1-.206-.638q.1-.624.149-1.262a.689.689,0,0,1,.355-.572,2.254,2.254,0,0,0,.035-3.952.7.7,0,0,1-.355-.624V12.4a.706.706,0,0,1,.281-.558.651.651,0,0,1,.6-.095,4.855,4.855,0,0,1-.231,9.155.649.649,0,0,1-.17.023A.662.662,0,0,1,24.648,20.742Zm-9.4-12.313a.874.874,0,0,1-.664-.31,3.771,3.771,0,0,1-.856-2.273,3.141,3.141,0,0,1,.856-2.255,1.291,1.291,0,0,0,.4-1.026,1.919,1.919,0,0,0-.4-1.026.95.95,0,0,1,.073-1.3.866.866,0,0,1,1.255.075,3.773,3.773,0,0,1,.856,2.255,3.14,3.14,0,0,1-.856,2.255,1.291,1.291,0,0,0-.4,1.026,1.918,1.918,0,0,0,.4,1.026.949.949,0,0,1,.167,1.009.887.887,0,0,1-.812.549Zm-7.471,0a.873.873,0,0,1-.675-.31,3.773,3.773,0,0,1-.845-2.273A3.139,3.139,0,0,1,7.1,3.61a1.291,1.291,0,0,0,.4-1.026,1.918,1.918,0,0,0-.4-1.026A.96.96,0,0,1,7.171.239.876.876,0,0,1,8.441.311,3.771,3.771,0,0,1,9.3,2.565,3.14,3.14,0,0,1,8.441,4.82a1.291,1.291,0,0,0-.4,1.026,1.92,1.92,0,0,0,.4,1.026.95.95,0,0,1,.168,1.009.888.888,0,0,1-.812.549Z" transform="translate(0 0)"/></svg>