<svg xmlns="http://www.w3.org/2000/svg" width="118.863" height="136.076" viewBox="0 0 118.863 136.076"><defs><style>.a{fill:#0052e0;}.b{fill:#387dff;}.c,.d,.e,.f{fill:#fff;}.d{font-size:18px;}.d,.e,.f{font-family:Montserrat-SemiBold, Montserrat;font-weight:600;}.e{font-size:12px;}.f{font-size:16px;}.g{fill:#f7cf06;}</style></defs><g transform="translate(-1197.052 -963.098)"><path class="a" d="M762.4,421.779H661.448l7.837-14.912H762.4Z" transform="translate(535.604 556.611)"/><path class="b" d="M774.681,395.487V509.1l-55.448,22.462L663.766,509.1V395.487Z" transform="translate(541.234 567.611)"/><path class="c" d="M670.042,395.487V502.916l49.567,18.49,49.549-18.49V395.487Z" transform="translate(541.104 567.611)"/><path class="b" d="M766.622,395.487V501.3l-47.493,17.5-47.517-17.5V395.487Z" transform="translate(541.534 567.611)"/><text class="d" transform="translate(1260 1017.944)"><tspan x="-22.059" y="0">4.7/5</tspan></text><text class="e" transform="translate(1260 1037.944)"><tspan x="-24.504" y="0">stars on</tspan></text><text class="f" transform="translate(1260 1058.944)"><tspan x="-39.904" y="0">G2 Crowd</tspan></text><path class="g" d="M15.253,1.53l2.3,5.634,6.073.439a2.455,2.455,0,0,1,1.4,4.329L20.37,15.809l1.46,5.918a2.455,2.455,0,0,1-3.683,2.714l-5.169-3.2L7.81,24.44a2.455,2.455,0,0,1-3.683-2.662l1.46-5.918L.936,11.984a2.455,2.455,0,0,1,1.4-4.38L8.4,7.164,10.7,1.53a2.455,2.455,0,0,1,4.548,0Z" transform="translate(1248 970.846)"/></g></svg>