<svg xmlns="http://www.w3.org/2000/svg" width="23.7" height="21.609" viewBox="0 0 23.7 21.609"><defs><style>.a{fill:#fff;fill-rule:evenodd;}</style></defs><path class="a" d="M540.879,302.788v2.439a.348.348,0,0,0,.352.349h.69a.35.35,0,0,0,.352-.349v-2.439h4.879v2.439a.348.348,0,0,0,.352.349h.69a.35.35,0,0,0,.352-.349v-2.439h4.879v2.439a.348.348,0,0,0,.352.349h.691a.35.35,0,0,0,.352-.349v-2.439h2.787a2.091,2.091,0,0,1,2.092,2.09v3.487H536v-3.487a2.092,2.092,0,0,1,2.092-2.09Zm18.821,6.971v9.762a2.091,2.091,0,0,1-2.092,2.088H538.092A2.09,2.09,0,0,1,536,319.521v-9.762Zm-11.153-6.971h-1.394v-2.441A.351.351,0,0,1,547.5,300h.69a.348.348,0,0,1,.352.348Zm6.274,0h-1.394v-2.441a.351.351,0,0,1,.352-.348h.691a.348.348,0,0,1,.352.348Zm-12.547,0h-1.394v-2.441a.351.351,0,0,1,.352-.348h.69a.348.348,0,0,1,.352.348Zm10.15,13.347a.349.349,0,0,0-.5,0l-.488.488a.349.349,0,0,0,0,.495l1.5,1.5a.7.7,0,0,0,.986,0l2.891-2.891a.348.348,0,0,0,0-.495l-.488-.488a.349.349,0,0,0-.493,0l-2.4,2.4Z" transform="translate(-536 -300)"/></svg>