<svg xmlns="http://www.w3.org/2000/svg" xmlns:xlink="http://www.w3.org/1999/xlink" width="366.65" height="273.544" viewBox="0 0 366.65 273.544"><defs><style>.a{fill:url(#a);}.b{fill:url(#b);}.c,.h{fill:#f7ce05;}.d{fill:#4edc6e;}.e{fill:#4ecdff;}.f{fill:#fff;}.g{fill:#edf4ff;}.h{stroke:rgba(0,0,0,0);}.i{fill:#363f5a;}.j{fill:#1b66ef;}.k{fill:#f37b6a;}.l{fill:#b9ceff;}.m{fill:#5690ff;}.n{fill:none;}.o{fill:#fffffe;}.p{fill:#387dff;}.q{fill:#0052e0;}.r{fill:#003ea9;opacity:0.257;}</style><linearGradient id="a" x1="0.742" y1="0.806" x2="0.13" y2="0.045" gradientUnits="objectBoundingBox"><stop offset="0" stop-color="#5690ff"/><stop offset="1" stop-color="#387dff"/></linearGradient><linearGradient id="b" x1="0.742" y1="0.806" x2="0.13" y2="0.045" gradientUnits="objectBoundingBox"><stop offset="0" stop-color="#b9cfff"/><stop offset="1" stop-color="#cee0ff"/></linearGradient></defs><g transform="translate(-11082.384 -3005.705)"><path class="a" d="M70.749,21.549c2.319-7.064,1.144-16.126-5.233-19.955-5.677-3.4-13.83,7.517-24.567,13.314-6.4,3.456-15.954,2.349-20.14,2.431-10.817.214-29.623,6.1-16.113,23.218S61.778,48.8,70.749,21.549Z" transform="matrix(0.809, 0.588, -0.588, 0.809, 11314.046, 3004.941)"/><path class="b" d="M264.481,59.483c25.139,2.847,52.48,3.631,72.115,19.56,29.289,23.722,26.43,72.33,2.961,101.834s-59.463,47.229-95.951,56.768c-42.27,11.045-88.335,14.081-131.161,5.364S28.652,208.293,10.56,168.515c-13.031-28.732-13.183-62.2-4.922-92.649C10.7,57.028,19.277,38.569,33.573,25.26,47.212,12.608,65.2,5.434,83.586,2.132c35.349-6.326,69.926,1.822,100.873,19.18C212.507,37.064,230.587,55.662,264.481,59.483Z" transform="translate(11082.384 3031.181)"/><path class="c" d="M6.77,13.54a6.77,6.77,0,1,1,6.77-6.77A6.777,6.777,0,0,1,6.77,13.54Zm0-11.419A4.65,4.65,0,1,0,11.42,6.77,4.655,4.655,0,0,0,6.77,2.12Z" transform="translate(11192.073 3045.523)"/><path class="d" d="M2.326,13.911H2.261A2.315,2.315,0,0,1,0,11.561l.15-9.29A2.31,2.31,0,0,1,3.65.33l8,4.77a2.365,2.365,0,0,1,1.12,2,2.312,2.312,0,0,1-1.19,2l-8.2,4.56A2.344,2.344,0,0,1,2.326,13.911Zm.755-10.4L3,10.42,9,7.06Z" transform="translate(11103.934 3028.303)"/><path class="e" d="M17.75,10.393a1.47,1.47,0,0,1-.3,2.52L9.73,16.2l-7.72,3.26a1.46,1.46,0,0,1-2-1.52l1-8.33,1-8.32a1.47,1.47,0,0,1,2.34-1l6.7,5Z" transform="translate(11282.764 3240.5)"/><rect class="f" width="206.06" height="148.698" rx="6.79" transform="translate(11209.844 3074.285)"/><rect class="g" width="185.51" height="126.728" transform="translate(11220 3085)"/><path class="h" d="M9.2,36.228.37,31.5a.744.744,0,0,1-.344-.837.771.771,0,0,1,.729-.514l.087.005a.736.736,0,0,1,.545.385l8.441,4.505A.67.67,0,0,1,9.2,36.228ZM2.186,19.211a.67.67,0,0,1,.614-.722l13.655-1.074h.051a.668.668,0,0,1,.051,1.336L2.908,19.824l-.055,0A.67.67,0,0,1,2.186,19.211Zm-.8-12.146a.689.689,0,0,1,0-1.213L11.147.1A.667.667,0,0,1,11.5.021L11.477,0a.688.688,0,0,1,.349,1.279L2.091,7.033a.686.686,0,0,1-.706.031Z" transform="translate(11276.199 3176.307) rotate(180)"/><path class="h" d="M9.2.079.369,4.806a.744.744,0,0,0-.344.837.771.771,0,0,0,.729.514l.087-.005a.736.736,0,0,0,.545-.385L9.828,1.261A.67.67,0,0,0,9.2.079ZM2.186,17.1a.67.67,0,0,0,.614.722l13.655,1.074h.051a.668.668,0,0,0,.051-1.336L2.907,16.482l-.055,0A.67.67,0,0,0,2.186,17.1Zm-.8,12.146a.689.689,0,0,0,0,1.213l9.761,5.753a.667.667,0,0,0,.355.077l-.025.021a.688.688,0,0,0,.349-1.279L2.09,29.274a.686.686,0,0,0-.706-.031Z" transform="translate(11344 3140)"/><rect class="f" width="86.09" height="38.12" rx="8.31" transform="translate(11112.834 3081)"/><rect class="f" width="86.09" height="38.12" rx="8.31" transform="translate(11112.834 3130)"/><rect class="f" width="86.09" height="38.12" rx="8.31" transform="translate(11113 3179)"/><path class="i" d="M12.36,3.39H8.48v14a.47.47,0,0,1-.47.47H4.87a.47.47,0,0,1-.48-.47v-14H.48A.46.46,0,0,1,0,2.94V.46A.47.47,0,0,1,.48,0H12.36a.49.49,0,0,1,.5.46V2.93a.48.48,0,0,1-.5.46Z" transform="translate(11125.573 3091)"/><path class="i" d="M10.47,17.974a28.31,28.31,0,0,1-4.65.31c-3.09,0-5.82-.79-5.82-5.15v-8C0,.774,2.76,0,5.85,0a27.94,27.94,0,0,1,4.62.31c.34.05.48.17.48.48v2.23a.49.49,0,0,1-.48.48H5.61c-1.13,0-1.54.38-1.54,1.63v2.18h6.22a.48.48,0,0,1,.48.47v2.28a.49.49,0,0,1-.48.48H4.07v2.54c0,1.24.41,1.63,1.54,1.63h4.86a.48.48,0,0,1,.48.48v2.22C10.95,17.784,10.81,17.924,10.47,17.974Z" transform="translate(11140.644 3091)"/><path class="i" d="M14.861,17.751H11.1a.62.62,0,0,1-.62-.36l-3.11-5-2.81,4.94c-.16.28-.33.47-.6.47H.371c-.24,0-.36-.14-.36-.31a.3.3,0,0,1,0-.16l5-8.65-5-8.22a.48.48,0,0,1,0-.14A.35.35,0,0,1,.371,0h3.86c.26,0,.45.24.6.46l3,4.84,2.68-4.84a.78.78,0,0,1,.6-.46h3.54a.33.33,0,0,1,.36.32.43.43,0,0,1,0,.14l-4.94,8.46,5.03,8.36a.46.46,0,0,1,.07.23C15.171,17.661,15.1,17.751,14.861,17.751Z" transform="translate(11153.832 3091)"/><path class="i" d="M12.36,3.39H8.48v14a.48.48,0,0,1-.48.47H4.86a.48.48,0,0,1-.48-.47v-14H.48A.46.46,0,0,1,0,2.94V.46A.46.46,0,0,1,.48,0H12.36a.49.49,0,0,1,.5.46V2.93a.48.48,0,0,1-.5.46Z" transform="translate(11170.373 3091)"/><rect class="j" width="0.98" height="21.07" transform="translate(11185.804 3089)"/><rect class="e" width="24.26" height="11.54" transform="translate(11119.884 3144)"/><rect class="k" width="24.26" height="11.54" transform="translate(11142.594 3144)"/><rect class="c" width="24.26" height="11.54" transform="translate(11166.854 3144)"/><path class="l" d="M6.739,4.08h-.81V3.85L.239.85A.46.46,0,0,1,.049.24.47.47,0,0,1,.669.05l6.31,3.38Z" transform="translate(11134.715 3185.883)"/><path class="l" d="M.392,1.641a.46.46,0,0,1,0-.91L9.642,0a.46.46,0,0,1,.49.42.46.46,0,0,1-.42.49l-9.25.72Z" transform="translate(11130.001 3197.002)"/><path class="l" d="M.454,4.7a.43.43,0,0,1-.39-.23.45.45,0,0,1,.16-.62L6.634.063a.453.453,0,0,1,.46.78L.684,4.633A.51.51,0,0,1,.454,4.7Z" transform="translate(11134.68 3205.38)"/><path class="l" d="M.516,4.073a.57.57,0,0,1-.5-.35.49.49,0,0,1,.23-.55L6.056.053a.443.443,0,1,1,.42.78L.926,3.8a.48.48,0,0,1-.35.25Z" transform="translate(11169.007 3186.16)"/><path class="l" d="M9.4,1.593h0L.4.883A.44.44,0,0,1,0,.4.42.42,0,0,1,.472,0l9,.71a.44.44,0,0,1,.41.47A.45.45,0,0,1,9.4,1.593Z" transform="translate(11170.531 3197.03)"/><path class="l" d="M6.873,4.7a.48.48,0,0,1-.23-.07L.223.843a.453.453,0,1,1,.46-.78l6.41,3.79a.45.45,0,0,1,.16.62.43.43,0,0,1-.38.23Z" transform="translate(11169.711 3205.38)"/><path class="k" d="M9.68,19.36a9.69,9.69,0,1,1,6.841-2.838A9.691,9.691,0,0,1,9.68,19.36ZM9.68,3A6.68,6.68,0,1,0,16.36,9.68,6.688,6.688,0,0,0,9.68,3Z" transform="translate(11429.674 3163.683)"/><circle class="d" cx="4.7" cy="4.7" r="4.7" transform="translate(11420.514 3133.663)"/><circle class="e" cx="4.25" cy="4.25" r="4.25" transform="translate(11082.384 3181.123)"/><g transform="translate(7202 1532.312)"><path class="m" d="M18.088,55.109c-.414-.32-.816-.61-1.216-.874C10.112,51.08,0,44.23,0,31.489,0,12.351,10.182,0,22.816,0,35.355,0,45.631,12.351,45.631,31.489c0,13.073-10.645,19.943-17.393,22.985a23.2,23.2,0,0,0-5.445,5.492A26.658,26.658,0,0,0,18.088,55.109Z" transform="translate(4088.035 1592.076)"/><path class="n" d="M18.088,55.109c-.414-.32-.816-.61-1.216-.874C10.112,51.08,0,44.23,0,31.489,0,12.351,10.182,0,22.816,0,35.355,0,45.631,12.351,45.631,31.489c0,13.073-10.645,19.943-17.393,22.985a23.2,23.2,0,0,0-5.445,5.492A26.658,26.658,0,0,0,18.088,55.109Z" transform="translate(4088.035 1592.076)"/><ellipse class="o" cx="3.865" cy="2.828" rx="3.865" ry="2.828" transform="translate(4092.125 1618.694) rotate(-69.849)"/><ellipse class="o" cx="1.131" cy="1.508" rx="1.131" ry="1.508" transform="translate(4093.023 1623.089) rotate(-4.143)"/><path class="p" d="M238.964,235.172a19.311,19.311,0,0,0,3.276-11.561c-.655-17.576-8.611-29.419-19.748-31.111a59.229,59.229,0,0,1,8.517,31.3s-.562,13.347-11.138,15.133A24.807,24.807,0,0,1,199,233.1c2.808,5.921,7.955,9.869,13.29,12.595,4.025,2.068,7.207,6.485,7.207,6.485s2.995-4.418,6.832-6.3c.094,0,2.527-1.316,2.808-1.5,0,0,2.621-1.692,3.837-2.632a.092.092,0,0,0,.094-.094A25.823,25.823,0,0,0,238.964,235.172Z" transform="translate(3891.332 1399.378)"/><path class="q" d="M39.238,31.3c-5.185-.848-22.156-.848-27.341,0C4.072,32.24.3,29.977.018,24.7-.359,19.418,5.2,12.724,12.651,9.707a33.471,33.471,0,0,1,8.887-2.171,4.518,4.518,0,0,0,1.389-2.92,23.879,23.879,0,0,0,.094-2.451A2.174,2.174,0,0,1,24.059.279L27.674,0s.89.3,1.07.6a3.545,3.545,0,0,1,.406,1.846,12.382,12.382,0,0,0,.633,4.967,21.946,21.946,0,0,1,8.7,2.292c6.977,3.96,13.01,9.71,12.633,14.99-.321,4.5-3.04,6.808-8.681,6.808A26.864,26.864,0,0,1,39.238,31.3Z" transform="translate(4085 1578.692)"/><path class="r" d="M0,29.038a21.28,21.28,0,0,0,8.391.377,152.01,152.01,0,0,1,18.1-.66c5.279.094,11.03-4.148,11.03-9.522a12.315,12.315,0,0,0-.471-4.148,5.648,5.648,0,0,0-3.394-3.771C27.152,8.768,18.573,8.862,17.536,7.731l6.879-.578a7.487,7.487,0,0,0,1.7-5.267A6.423,6.423,0,0,0,25.927,0a2.476,2.476,0,0,1,1.509,2.451,12.574,12.574,0,0,0,.6,4.893l1.507.124a23.735,23.735,0,0,1,12.13,5.447c4.62,3.583,8.014,7.825,7.92,11.6A6.541,6.541,0,0,1,46.2,30.263s-.848.755-3.865,1.037a81.026,81.026,0,0,1-8.768-.566c-7.165-.471-19.139-.377-23.381.377a25.192,25.192,0,0,1-3.283.233C3.667,31.346,1.367,30.549,0,29.038Z" transform="translate(4086.715 1578.688)"/><path class="p" d="M.41,7.242C-.215,6.7-.137,5.992.723,4.976A25.06,25.06,0,0,0,3.38,1.225C4,.053,4.63-.26,5.412.209h0c.7.391,1.016,1.8.7,3.126a6.031,6.031,0,0,1-2.5,3.595c-1.426.977-2.579.781-3.2.313Z" transform="matrix(-0.985, 0.174, -0.174, -0.985, 4096.934, 1602.649)"/></g><g transform="translate(7062 1607.312)"><path class="m" d="M6.1,18.58c-.14-.108-.275-.206-.41-.295C3.409,17.222,0,14.912,0,10.617,0,4.164,3.433,0,7.692,0c4.228,0,7.692,4.164,7.692,10.617,0,4.407-3.589,6.724-5.864,7.75a7.823,7.823,0,0,0-1.836,1.852A8.988,8.988,0,0,0,6.1,18.58Z" transform="translate(4086.023 1583.202)"/><path class="n" d="M6.1,18.58c-.14-.108-.275-.206-.41-.295C3.409,17.222,0,14.912,0,10.617,0,4.164,3.433,0,7.692,0c4.228,0,7.692,4.164,7.692,10.617,0,4.407-3.589,6.724-5.864,7.75a7.823,7.823,0,0,0-1.836,1.852A8.988,8.988,0,0,0,6.1,18.58Z" transform="translate(4086.023 1583.202)"/><ellipse class="o" cx="1.303" cy="0.954" rx="1.303" ry="0.954" transform="translate(4087.402 1592.176) rotate(-69.849)"/><ellipse class="o" cx="0.381" cy="0.509" rx="0.381" ry="0.509" transform="translate(4087.705 1593.658) rotate(-4.143)"/><path class="p" d="M212.474,206.887a6.511,6.511,0,0,0,1.1-3.9c-.221-5.926-2.9-9.919-6.658-10.489a19.969,19.969,0,0,1,2.872,10.553s-.189,4.5-3.755,5.1A8.364,8.364,0,0,1,199,206.19a9.54,9.54,0,0,0,4.481,4.246,8.19,8.19,0,0,1,2.43,2.187,7.189,7.189,0,0,1,2.3-2.123c.032,0,.852-.444.947-.507,0,0,.884-.57,1.294-.887a.031.031,0,0,0,.032-.032A8.706,8.706,0,0,0,212.474,206.887Z" transform="translate(3887.798 1390.635)"/><path class="q" d="M13.229,10.552a49.614,49.614,0,0,0-9.218,0C1.373,10.87.1,10.107.006,8.327-.121,6.547,1.754,4.29,4.265,3.273a11.285,11.285,0,0,1,3-.732,1.523,1.523,0,0,0,.468-.985A8.051,8.051,0,0,0,7.762.73a.733.733,0,0,1,.35-.636L9.33,0s.3.1.361.2a1.2,1.2,0,0,1,.137.622A4.175,4.175,0,0,0,10.042,2.5a7.4,7.4,0,0,1,2.933.773c2.352,1.335,4.386,3.274,4.259,5.054-.108,1.517-1.025,2.3-2.927,2.3A9.057,9.057,0,0,1,13.229,10.552Z" transform="translate(4085 1578.69)"/><path class="r" d="M0,9.79a7.175,7.175,0,0,0,2.829.127,51.251,51.251,0,0,1,6.1-.222c1.78.032,3.719-1.4,3.719-3.21a4.152,4.152,0,0,0-.159-1.4,1.9,1.9,0,0,0-1.144-1.272c-2.193-.858-5.086-.827-5.436-1.208l2.319-.195A2.524,2.524,0,0,0,8.8.636,2.166,2.166,0,0,0,8.741,0,.835.835,0,0,1,9.25.827a4.239,4.239,0,0,0,.2,1.65l.508.042a8,8,0,0,1,4.09,1.836c1.558,1.208,2.7,2.638,2.67,3.91A2.205,2.205,0,0,1,15.575,10.2a2.49,2.49,0,0,1-1.3.35,27.318,27.318,0,0,1-2.956-.191,47.94,47.94,0,0,0-7.883.127,8.493,8.493,0,0,1-1.107.079A3.018,3.018,0,0,1,0,9.79Z" transform="translate(4085.578 1578.688)"/><path class="p" d="M.138,2.442c-.211-.184-.184-.422.105-.764A8.449,8.449,0,0,0,1.14.413c.211-.4.422-.5.685-.343h0c.237.132.343.606.237,1.054a2.033,2.033,0,0,1-.843,1.212.909.909,0,0,1-1.08.105Z" transform="matrix(-0.985, 0.174, -0.174, -0.985, 4089.024, 1586.767)"/></g></g></svg>