<svg xmlns="http://www.w3.org/2000/svg" width="22.397" height="22.397" viewBox="0 0 22.397 22.397"><defs><style>.a{fill:#fff;}</style></defs><g transform="translate(-5 -5)"><path class="a" d="M24.66,5H7.737A2.649,2.649,0,0,0,5,7.563V20.429a2.649,2.649,0,0,0,2.737,2.563H9.529V26.8a.621.621,0,0,0,.373.547.536.536,0,0,0,.274.05.839.839,0,0,0,.423-.124l5.649-4.28H24.66A2.649,2.649,0,0,0,27.4,20.429V7.563A2.649,2.649,0,0,0,24.66,5Zm-11.6,11.2H9.33V11.3h3.608v.871H10.351v1.045h2.364v.846H10.326v1.269h2.713V16.2Zm4.753,0H16.8l-1.991-3.484V16.2h-.946V11.3h1.07l1.941,3.409V11.3h.946Zm5.3,0h-.7l-.1-.622a3.073,3.073,0,0,1-.523.5,1.794,1.794,0,0,1-1,.249,2.05,2.05,0,0,1-1.593-.672,2.616,2.616,0,0,1-.647-1.866,2.788,2.788,0,0,1,.647-1.916,2.251,2.251,0,0,1,1.742-.722,2.195,2.195,0,0,1,1.493.473,1.8,1.8,0,0,1,.647,1.195h-1.02a.961.961,0,0,0-.572-.7,1.383,1.383,0,0,0-.572-.1,1.2,1.2,0,0,0-.971.448,2.061,2.061,0,0,0-.373,1.344,1.655,1.655,0,0,0,.423,1.269,1.379,1.379,0,0,0,.946.373,1.212,1.212,0,0,0,.846-.3,1.225,1.225,0,0,0,.4-.771H21.052v-.821h2.041V16.2Z"/></g></svg>