<svg xmlns="http://www.w3.org/2000/svg" xmlns:xlink="http://www.w3.org/1999/xlink" width="343.808" height="270.271" viewBox="0 0 343.808 270.271"><defs><style>.a{fill:url(#a);}.b{fill:url(#b);}.c{fill:#f7ce05;}.d{fill:url(#c);}.e{fill:#fff;}.f{fill:#4ecdff;}.g{fill:#f07379;}.h{fill:#387dff;}.i{fill:#363f5a;}.j{fill:none;}.k{fill:#4edc6e;}</style><linearGradient id="a" x1="0.728" y1="0.103" x2="0.579" y2="1" gradientUnits="objectBoundingBox"><stop offset="0" stop-color="#5690ff"/><stop offset="1" stop-color="#387dff"/></linearGradient><linearGradient id="b" x1="0.728" y1="0.103" x2="0.579" y2="1" gradientUnits="objectBoundingBox"><stop offset="0" stop-color="#cee0ff"/><stop offset="1" stop-color="#b9cfff"/></linearGradient><linearGradient id="c" y1="0.5" x2="1" y2="0.5" gradientUnits="objectBoundingBox"><stop offset="0" stop-color="#58f1ff"/><stop offset="0.1" stop-color="#56ebff"/><stop offset="0.2" stop-color="#55e5ff"/><stop offset="0.3" stop-color="#53deff"/><stop offset="0.4" stop-color="#51d8ff"/><stop offset="0.5" stop-color="#4fd2ff"/><stop offset="0.6" stop-color="#4eccff"/><stop offset="0.7" stop-color="#4cc6ff"/><stop offset="0.8" stop-color="#4abfff"/><stop offset="0.9" stop-color="#49b9ff"/><stop offset="1" stop-color="#47b3ff"/></linearGradient></defs><g transform="translate(-9044.998 -3359.713)"><path class="a" d="M119.074,60.976C107.668,15.233,45.1-23.758,6.66,17.357a25.532,25.532,0,0,0-5.584,8.256,22.812,22.812,0,0,0,1.36,17.181A35.793,35.793,0,0,0,27.945,62.909c9.545,1.813,19.686-.263,28.634,3.269,8.566,3.388,14.436,11.215,19.638,18.8C83.042,94.812,99.984,117,114.3,104.548,123.416,96.483,121.46,71.094,119.074,60.976Z" transform="translate(9049.781 3469.438) rotate(-65)"/><path class="b" d="M299.067,67.325c-21.589-11.056-28.9-7.306-50.121-19.021C235.935,41.122,227.174,0,148.328,0c-21.1,1.4-61.939,14.442-74.8,31.225-4.182,5.409-7.7,11.863-11.738,17.533C34.518,55.064-5.866,97.334.713,142.013c6.75,45.86,42.645,75.108,88.925,72.54,49.44-2.75,81.608-26.339,130.775-20.453,27.975,3.329,101.674,28.168,114.469-54.973C340.064,105.459,316.849,76.438,299.067,67.325Z" transform="translate(9048.269 3399.419)"/><path class="c" d="M9.219,18.44a9.215,9.215,0,1,1,.011,0Zm0-15.43A4.4,4.4,0,1,0,9.23,3v.01H9.219Z" transform="translate(9044.999 3487.06)"/><circle class="d" cx="24.114" cy="24.114" r="24.114" transform="translate(9123.976 3581.756)"/><path class="e" d="M18.729.011,5.162,2.5a.628.628,0,0,0-.52.622V18.361a2.953,2.953,0,1,0,1.263,2.426h0V8.28l12.3-2.263v9.364a2.919,2.919,0,0,0-1.689-.534A2.959,2.959,0,1,0,19.472,17.8V.632a.628.628,0,0,0-.743-.622Z" transform="translate(9138.354 3594.015)"/><path class="f" d="M10.7,18.573h0l-.11-.08H10.58a2.744,2.744,0,0,1-2.342-1.3L.427,4.774A2.781,2.781,0,0,1,2.677.513L17.338,0q.067,0,.133,0A2.747,2.747,0,0,1,19.8,1.3a2.778,2.778,0,0,1,.1,2.78l-6.85,13a2.766,2.766,0,0,1-2.35,1.49ZM17.068,3h0l-13.9.49,7.41,11.78L17.068,3Z" transform="translate(9276.202 3386.497)"/><path class="g" d="M8.758.058a.78.78,0,0,1,1.07.82l-.57,4.48-.57,4.45a.78.78,0,0,1-1.25.52l-3.57-2.72L.308,4.888a.78.78,0,0,1,.17-1.34l4.14-1.73Z" transform="translate(9378.972 3459.142)"/><rect class="e" width="251.66" height="37.31" rx="11.53" transform="translate(9094.6 3423.68)"/><path class="h" d="M21.34,10.939a1.89,1.89,0,0,1,0,3.27l-9.25,5.34-9.25,5.34A1.89,1.89,0,0,1,0,23.259V1.889A1.9,1.9,0,0,1,2.84.249L12.09,5.6Z" transform="translate(9209.29 3429.761)"/><path class="i" d="M11.07,5.688a1,1,0,0,1,0,1.71l-4.81,2.77-4.79,2.76A1,1,0,0,1,0,12.078V.968A1,1,0,0,1,1.47.118L6.28,2.9Z" transform="translate(9247.54 3435.813)"/><rect class="i" width="2.05" height="13.08" rx="1.025" transform="translate(9259.91 3435.79)"/><path class="i" d="M.481,5.688a1,1,0,0,0,0,1.71l4.81,2.77,4.82,2.78a1,1,0,0,0,1.47-.85V.968a1,1,0,0,0-1.47-.85L5.291,2.9Z" transform="translate(9181.769 3435.813)"/><rect class="i" width="2.05" height="13.08" rx="1.025" transform="translate(9180.96 3448.88) rotate(180)"/><path class="j" d="M2.06,0C1.38.48.7.93,0,1.38V0Z" transform="translate(9322.34 3580.3)"/><rect class="e" width="185.25" height="16.71" rx="8.35" transform="translate(9127.189 3480.2)"/><rect class="e" width="185.25" height="16.71" rx="8.35" transform="translate(9127.189 3517.77)"/><rect class="e" width="185.25" height="16.71" rx="8.35" transform="translate(9127.189 3555.34)"/><path class="h" d="M16.15,8.254a1.43,1.43,0,0,1,0,2.47l-7,4-7,4A1.43,1.43,0,0,1,0,17.484V1.434A1.43,1.43,0,0,1,2.15.194l7,4Z" transform="translate(9094.609 3479.065)"/><path class="h" d="M16.15,8.274a1.44,1.44,0,0,1,0,2.48l-7,4.05-7,4A1.43,1.43,0,0,1,0,17.564V1.424A1.43,1.43,0,0,1,2.15.194l7,4Z" transform="translate(9094.609 3515.406)"/><path class="h" d="M16.15,8.324a1.44,1.44,0,0,1,0,2.48l-7,4-7,4A1.43,1.43,0,0,1,0,17.574V1.434A1.43,1.43,0,0,1,2.15.194l7,4Z" transform="translate(9094.609 3554.176)"/><circle class="h" cx="12.52" cy="12.52" r="12.52" transform="translate(9321.22 3476.32)"/><circle class="h" cx="12.52" cy="12.52" r="12.52" transform="translate(9321.22 3513.61)"/><circle class="h" cx="12.52" cy="12.52" r="12.52" transform="translate(9321.22 3551.18)"/><path class="e" d="M13.23,6.047H8.65V1.477a1.36,1.36,0,1,0-2.71,0v4.57H1.36a1.36,1.36,0,0,0,0,2.72H5.94v4.58a1.36,1.36,0,0,0,2.71,0v-4.6h4.58a1.36,1.36,0,1,0,0-2.72Z" transform="translate(9326.45 3481.454)"/><path class="e" d="M13.347,5.823H8.767V1.243a1.36,1.36,0,0,0-2.71,0v4.58H1.477a1.36,1.36,0,1,0,0,2.71h4.58v4.58a1.36,1.36,0,1,0,2.71,0V8.553h4.58a1.36,1.36,0,0,0,0-2.71Z" transform="translate(9326.333 3518.947)"/><path class="e" d="M13.347,5.823H8.767V1.243a1.36,1.36,0,0,0-2.71,0v4.58H1.477a1.36,1.36,0,1,0,0,2.71h4.58v4.58a1.36,1.36,0,1,0,2.71,0V8.533h4.58a1.36,1.36,0,0,0,0-2.71Z" transform="translate(9326.333 3556.517)"/><circle class="g" cx="3.91" cy="3.91" r="3.91" transform="translate(9046.319 3514.96)"/><path class="k" d="M7.44,14.86H7.429a7.42,7.42,0,1,1,.011,0ZM7.429,3.01a4.433,4.433,0,1,0,.011,0Z" transform="translate(9359.63 3496.55)"/><circle class="k" cx="3.88" cy="3.88" r="3.88" transform="translate(9241.96 3387.95)"/></g></svg>