<svg xmlns="http://www.w3.org/2000/svg" width="25.741" height="22.029" viewBox="0 0 25.741 22.029"><defs><style>.a{fill:#fff;}</style></defs><g transform="translate(-2.5 -9.529)"><circle class="a" cx="3.5" cy="3.5" r="3.5" transform="translate(4.371 9.529)"/><circle class="a" cx="3.387" cy="3.387" r="3.387" transform="translate(12.769 9.8)"/><path class="a" d="M21.847,40.461A1.758,1.758,0,0,0,20.085,38.7H4.261A1.758,1.758,0,0,0,2.5,40.461v10.4a1.758,1.758,0,0,0,1.761,1.761H20.085a1.758,1.758,0,0,0,1.761-1.761V49.1l3.414,1.653V40.6L21.847,42.25Z" transform="translate(0 -21.069)"/><path class="a" d="M90.563,43.15l-.163.081V54.449l.163.081a1.23,1.23,0,0,0,1.761-1.111V44.234A1.217,1.217,0,0,0,90.563,43.15Z" transform="translate(-64.083 -24.218)"/></g></svg>