<svg xmlns="http://www.w3.org/2000/svg" width="29.512" height="13.04" viewBox="0 0 29.512 13.04"><defs><style>.a{fill:#fff;}</style></defs><g transform="translate(-7 -983.362)"><path class="a" d="M13.52,983.362a6.52,6.52,0,1,0,6.434,7.549h3.6a6.518,6.518,0,1,0,6.434-7.549Zm0,3.088a.686.686,0,0,1,.686.686V989.2h2.059a.686.686,0,1,1,0,1.373H14.206v2.059a.686.686,0,0,1-1.373,0v-2.059H10.775a.686.686,0,1,1,0-1.373h2.059v-2.059A.686.686,0,0,1,13.52,986.451Zm18.187.686a1.03,1.03,0,1,1-1.029,1.03A1.03,1.03,0,0,1,31.707,987.137Zm-3.432,3.432a1.03,1.03,0,1,1-1.029,1.029A1.029,1.029,0,0,1,28.276,990.568Z"/></g></svg>