<svg xmlns="http://www.w3.org/2000/svg" width="34.984" height="17.492" viewBox="0 0 34.984 17.492"><defs><style>.a{fill:#fff;}</style></defs><g transform="translate(-3.5 -15.5)"><g transform="translate(15.788 22.06)"><g transform="translate(0)"><rect class="a" width="10.415" height="4.373"/></g></g><g transform="translate(3.5 15.5)"><path class="a" d="M14.331,17.687V30.806a2.187,2.187,0,0,1-4.373,0v-.087a2.021,2.021,0,0,1-.729.131,2.193,2.193,0,0,1-2.187-2.187v-2.23H5.687a2.187,2.187,0,0,1,0-4.373H7.042V19.837a2.189,2.189,0,0,1,2.915-2.063v-.087a2.187,2.187,0,0,1,4.373,0Z" transform="translate(-3.5 -15.5)"/><g transform="translate(24.161)"><path class="a" d="M47.473,24.246a2.188,2.188,0,0,1-2.187,2.187H43.938v2.23a2.188,2.188,0,0,1-2.187,2.187,2.02,2.02,0,0,1-.729-.131v.087a2.187,2.187,0,1,1-4.373,0V17.687a2.187,2.187,0,1,1,4.373,0v.087a2.189,2.189,0,0,1,2.915,2.063V22.06h1.348A2.184,2.184,0,0,1,47.473,24.246Z" transform="translate(-36.65 -15.5)"/></g></g></g></svg>