<svg xmlns="http://www.w3.org/2000/svg" width="28" height="28" viewBox="0 0 28 28"><defs><style>.a{fill:#fff;}</style></defs><g transform="translate(-2 -2)"><path class="a" d="M25,16a9,9,0,1,0-13,8v3a3,3,0,0,0,3,3h2a3,3,0,0,0,3-3V24a9,9,0,0,0,5-8ZM15,22.92V17h-.274a1,1,0,0,1,0-2h2.563a1,1,0,0,1,0,2H17v5.92a7,7,0,0,1-2,0Z"/><path class="a" d="M16,5a1,1,0,0,0,1-1V3a1,1,0,1,0-2,0V4A1,1,0,0,0,16,5Z"/><path class="a" d="M6.81,8.22A1,1,0,0,0,8.22,6.81L7.51,6.1A1,1,0,0,0,6.1,7.51Z"/><path class="a" d="M4,15H3a1,1,0,0,0,0,2H4a1,1,0,0,0,0-2Z"/><path class="a" d="M6.81,23.78l-.71.71A1,1,0,1,0,7.51,25.9l.71-.71a1,1,0,0,0-1.41-1.41Z"/><path class="a" d="M25.19,23.78a1,1,0,0,0-1.41,1.41l.71.71a1,1,0,0,0,1.41-1.41Z"/><path class="a" d="M29,15H28a1,1,0,0,0,0,2h1a1,1,0,0,0,0-2Z"/><path class="a" d="M24.49,6.1l-.71.71a1,1,0,1,0,1.41,1.41l.71-.71A1,1,0,0,0,24.49,6.1Z"/></g></svg>