<svg xmlns="http://www.w3.org/2000/svg" width="20.246" height="26.994" viewBox="0 0 20.246 26.994"><defs><style>.a{fill:#fff;}</style></defs><g transform="translate(-5.5 -1.5)"><path class="a" d="M9.678,30.357a1.626,1.626,0,0,0,1.6,1.265h9.195a1.626,1.626,0,0,0,1.6-1.265L24.271,21.5H7.4Z" transform="translate(-0.297 -3.129)"/><path class="a" d="M23.637,13.4h0a2.109,2.109,0,0,0-1.687-3.374h-.675a1.425,1.425,0,0,0,.253-.844A1.692,1.692,0,0,0,19.841,7.5H19a4.218,4.218,0,0,1-6.749,0H11.4A1.691,1.691,0,0,0,9.718,9.187a1.425,1.425,0,0,0,.253.844H9.3A2.109,2.109,0,0,0,7.609,13.4h0a2.109,2.109,0,1,0,0,4.218H23.637a2.109,2.109,0,1,0,0-4.218Z" transform="translate(0 -0.939)"/><circle class="a" cx="2.531" cy="2.531" r="2.531" transform="translate(13.092 1.5)"/></g></svg>