<svg xmlns="http://www.w3.org/2000/svg" width="31.959" height="22.866" viewBox="0 0 31.959 22.866"><defs><style>.a{fill:#fff;}</style></defs><g transform="translate(-12.161 -22.293)"><path class="a" d="M34.5,74.079h3.083L36.063,70.7Z" transform="translate(-12.905 -29.173)"/><path class="a" d="M23.918,36.167l1.14-1.14a.627.627,0,0,0-.887-.887L23.116,35.2,22.06,34.14a.627.627,0,0,0-.887.887l1.14,1.14L12.262,51.92a.677.677,0,0,0-.042.634.609.609,0,0,0,.549.338H20.2c0-.042.042-.084.042-.127l2.365-5.195a.587.587,0,0,1,1.1,0l2.323,5.195c0,.042.042.084.042.127h7.433a.65.65,0,0,0,.633-.633.681.681,0,0,0-.127-.38Z" transform="translate(0 -7.944)"/><path class="a" d="M79.7,72.38l-1.52-1.014,1.52-1.014a.609.609,0,0,0-.676-1.014l-1.943,1.309-1.9-1.309a.609.609,0,1,0-.676,1.014l1.52,1.014-1.52,1.014a.619.619,0,0,0-.169.845.6.6,0,0,0,.507.253.8.8,0,0,0,.338-.084l1.9-1.309,1.9,1.309a.508.508,0,0,0,.338.084.6.6,0,0,0,.507-.253A.574.574,0,0,0,79.7,72.38Z" transform="translate(-35.851 -28.319)"/><path class="a" d="M77.874,61.155a2.361,2.361,0,0,0,2.365-2.365c0-1.1-1.436-2.872-1.858-3.379a.617.617,0,0,0-.929,0c-.422.507-1.858,2.323-1.858,3.379A2.24,2.24,0,0,0,77.874,61.155Z" transform="translate(-36.64 -20.219)"/><ellipse class="a" cx="1.106" cy="1.106" rx="1.106" ry="1.106" transform="translate(32.856 24.077)"/><path class="a" d="M62.677,21.907a.386.386,0,0,0,.377-.377v-.653a.377.377,0,1,0-.754,0v.653A.37.37,0,0,0,62.677,21.907Z" transform="translate(-28.716 1.793)"/><path class="a" d="M67.914,24.744a.323.323,0,0,0,.251-.1l.452-.452a.373.373,0,0,0-.528-.528l-.427.452a.364.364,0,0,0,0,.528A.446.446,0,0,0,67.914,24.744Z" transform="translate(-32.647 -0.491)"/><path class="a" d="M71.007,30.877a.386.386,0,0,0-.377-.377h-.653a.377.377,0,0,0,0,.754h.653A.37.37,0,0,0,71.007,30.877Z" transform="translate(-34.181 -5.694)"/><path class="a" d="M68.091,35.863a.373.373,0,0,0-.528.528l.452.452a.36.36,0,0,0,.251.1.323.323,0,0,0,.251-.1.364.364,0,0,0,0-.528Z" transform="translate(-32.572 -9.625)"/><path class="a" d="M62.677,37.9a.386.386,0,0,0-.377.377v.653a.377.377,0,1,0,.754,0v-.653A.386.386,0,0,0,62.677,37.9Z" transform="translate(-28.716 -11.235)"/><path class="a" d="M55.363,36.315a.364.364,0,0,0,0,.528.364.364,0,0,0,.5,0l.452-.452a.373.373,0,1,0-.528-.528Z" transform="translate(-23.437 -9.625)"/><path class="a" d="M52.677,31.254h.653a.377.377,0,0,0,0-.754h-.653a.386.386,0,0,0-.377.377A.405.405,0,0,0,52.677,31.254Z" transform="translate(-21.229 -5.694)"/><path class="a" d="M55.84,24.543a.36.36,0,0,0,.251.1.323.323,0,0,0,.251-.1.364.364,0,0,0,0-.528l-.452-.452a.373.373,0,1,0-.528.528Z" transform="translate(-23.437 -0.416)"/></g></svg>