<svg xmlns="http://www.w3.org/2000/svg" width="275.517" height="244.816" viewBox="0 0 275.517 244.816"><defs><style>.a,.b,.c{fill:none;}.a{stroke:#4fceff;stroke-width:3px;}.b{stroke:#4fdc6f;stroke-miterlimit:10;stroke-width:2px;}.c{stroke:#f37c6a;stroke-width:16px;}.d{fill:#f7cf06;}</style></defs><g transform="translate(91.268 -947.193)"><path class="a" d="M8.948.4,1.078,5.592a2.4,2.4,0,0,0,.248,4.152l8.431,4.219a2.4,2.4,0,0,0,3.471-2.29l-.561-9.411A2.4,2.4,0,0,0,8.948.4" transform="translate(182.548 982.641) rotate(172)"/><path class="b" d="M9.32,4.66A4.66,4.66,0,1,0,4.66,9.32,4.66,4.66,0,0,0,9.32,4.66Z" transform="translate(71.168 948.193)"/><path class="c" d="M96.253,4.305,11.6,60.15a25.832,25.832,0,0,0,2.671,44.657l90.689,45.384A25.829,25.829,0,0,0,142.3,125.556L136.265,24.327A25.833,25.833,0,0,0,96.253,4.305" transform="translate(113.026 1121.214) rotate(155)"/><path class="d" d="M10.377,6A5.217,5.217,0,1,1,6,.059,5.218,5.218,0,0,1,10.377,6" transform="translate(168.437 1072.68) rotate(180)"/></g></svg>