<svg xmlns="http://www.w3.org/2000/svg" xmlns:xlink="http://www.w3.org/1999/xlink" width="320.297" height="194.395" viewBox="0 0 320.297 194.395"><defs><style>.a{fill:#387dff;}.b,.p{opacity:0.5;}.b{fill:url(#a);}.c{opacity:0.2;fill:url(#b);}.d{fill:#5690ff;}.e,.i,.k,.l,.r,.v,.w{fill:none;}.f{fill:#fffffe;}.g{fill:#0052e0;}.h{fill:#003ea9;opacity:0.257;}.i{stroke:#b9cfff;}.i,.v,.w{stroke-width:0.5px;}.j{fill:#f7ce05;}.k{stroke:#6aea87;}.k,.l,.r,.v,.w{stroke-miterlimit:10;}.l{stroke:#4fceff;}.m{fill:#b9cfff;}.n{fill:#4fdc6f;}.o{fill:#f37b6a;}.p{fill:url(#c);}.q{fill:#fff;}.r,.v{stroke:#f37b6a;}.s{fill:#766de8;}.t{fill:#f7cf06;}.u{fill:#f37c6a;}.w{stroke:#766de8;}.x{fill:#0051e0;}.y{fill:#5590ff;}</style><linearGradient id="a" x1="0.137" y1="0.741" x2="0.281" y2="0.027" gradientUnits="objectBoundingBox"><stop offset="0" stop-color="#0052e0"/><stop offset="1" stop-color="#1b1464" stop-opacity="0"/></linearGradient><linearGradient id="b" x1="0.863" y1="0.741" x2="0.719" y2="0.027" xlink:href="#a"/><linearGradient id="c" x1="0.286" y1="0.24" x2="0.847" y2="0.773" gradientUnits="objectBoundingBox"><stop offset="0" stop-color="#edf4ff"/><stop offset="1" stop-color="#cfe0ff"/></linearGradient></defs><g transform="translate(0.272 -323.611)"><path class="a" d="M0,73.25V8.441C36.846,18.318,53.279-3.146,88.182.4,124.22,4.062,123.5,31.163,155.3,38.063c38.935,8.447,57.5-18.486,87.962-12.085,31.271,6.572,20.67,32.654,76.946,36.3V73.25Z" transform="translate(-0.208 349.664)"/><path class="b" d="M406.765,227.169V133.308c6.746-1.406,13.62-2.962,18.757-7.437,3.035-2.643,5.293-6.165,7.544-9.626H506c1.186,7.269,1.131,14.936-2.577,21.2-4.427,7.465-13.1,11.3-21.535,13.345s-17.263,2.791-25.219,6.255c-6.021,2.622-11.812,7.554-12.341,14.1-.763,9.406,9.169,16.063,12.169,25.013a18.44,18.44,0,0,1-6.19,20.012,18.046,18.046,0,0,1-10.815,3.526c-7.056.014-13.624-6.922-20.256-1.56-2.684,2.172-4.623,5.21-7.509,7.111A13.1,13.1,0,0,1,406.765,227.169Z" transform="translate(-407.037 247.236)"/><path class="c" d="M484.227,167.2V94.433c-10.629-8.145-23.932,16.916-38.686-1.179s15.568-20.1,13.823-22.779L407.3,81.2c-.919,5.635-.877,11.579,2,16.434,3.432,5.787,10.157,8.763,16.695,10.346s13.383,2.163,19.551,4.849c4.668,2.033,9.158,5.856,9.568,10.929.592,7.292-2.129,8.222-4.455,15.16a14.3,14.3,0,0,0,4.8,15.514,13.99,13.99,0,0,0,8.385,2.734c5.47.011,8.025-1.868,13.167,2.288,2.081,1.684,1.141,4.773,3.379,6.246A10.158,10.158,0,0,0,484.227,167.2Z" transform="translate(-164.232 350.807)"/><g transform="translate(5.198 35.657)"><g transform="translate(9.275 296.066) rotate(34)"><path class="d" d="M3.816,11.625c-.087-.067-.172-.129-.257-.184C2.133,10.775,0,9.33,0,6.643,0,2.605,2.148,0,4.813,0,7.458,0,9.626,2.605,9.626,6.643c0,2.758-2.246,4.207-3.669,4.849A4.895,4.895,0,0,0,4.808,12.65,5.624,5.624,0,0,0,3.816,11.625Z" transform="translate(0.64 2.824)"/><path class="e" d="M3.816,11.625c-.087-.067-.172-.129-.257-.184C2.133,10.775,0,9.33,0,6.643,0,2.605,2.148,0,4.813,0,7.458,0,9.626,2.605,9.626,6.643c0,2.758-2.246,4.207-3.669,4.849A4.895,4.895,0,0,0,4.808,12.65,5.624,5.624,0,0,0,3.816,11.625Z" transform="translate(0.64 2.824)"/><ellipse class="f" cx="0.815" cy="0.597" rx="0.815" ry="0.597" transform="translate(1.503 8.439) rotate(-69.849)"/><ellipse class="f" cx="0.239" cy="0.318" rx="0.239" ry="0.318" transform="matrix(0.997, -0.072, 0.072, 0.997, 1.693, 9.366)"/><path class="a" d="M8.431,9a4.074,4.074,0,0,0,.691-2.439C8.983,2.855,7.305.357,4.956,0a12.494,12.494,0,0,1,1.8,6.6S6.634,9.418,4.4,9.795A5.233,5.233,0,0,1,0,8.565a5.969,5.969,0,0,0,2.8,2.657,5.124,5.124,0,0,1,1.52,1.368,4.5,4.5,0,0,1,1.441-1.328c.02,0,.533-.278.592-.317,0,0,.553-.357.809-.555a.019.019,0,0,0,.02-.02A5.447,5.447,0,0,0,8.431,9Z" transform="translate(1.125 2.782)"/><path class="g" d="M8.277,6.6a31.043,31.043,0,0,0-5.768,0C.859,6.8.063,6.324,0,5.21-.076,4.1,1.1,2.684,2.669,2.048A7.061,7.061,0,0,1,4.544,1.59.953.953,0,0,0,4.837.974a5.037,5.037,0,0,0,.02-.517.459.459,0,0,1,.219-.4L5.838,0s.188.064.226.127a.748.748,0,0,1,.086.389,2.612,2.612,0,0,0,.134,1.048,4.63,4.63,0,0,1,1.835.484C9.59,2.883,10.863,4.1,10.783,5.21c-.068.949-.641,1.436-1.831,1.436A5.667,5.667,0,0,1,8.277,6.6Z" transform="translate(0 0.001)"/><path class="h" d="M0,6.126a4.489,4.489,0,0,0,1.77.08,32.067,32.067,0,0,1,3.819-.139A2.267,2.267,0,0,0,7.916,4.057a2.6,2.6,0,0,0-.1-.875,1.192,1.192,0,0,0-.716-.8c-1.372-.537-3.182-.517-3.4-.756L5.15,1.509A1.579,1.579,0,0,0,5.509.4a1.355,1.355,0,0,0-.04-.4.522.522,0,0,1,.318.517,2.653,2.653,0,0,0,.126,1.032l.318.026A5.007,5.007,0,0,1,8.791,2.725a3.569,3.569,0,0,1,1.671,2.446,1.38,1.38,0,0,1-.716,1.213A1.558,1.558,0,0,1,8.93,6.6a17.092,17.092,0,0,1-1.85-.119,30,30,0,0,0-4.932.08,5.314,5.314,0,0,1-.693.049A1.888,1.888,0,0,1,0,6.126Z" transform="translate(0.362 0)"/><path class="a" d="M.107,1.89c-.163-.143-.143-.326.082-.591A6.539,6.539,0,0,0,.882.32c.163-.306.326-.387.53-.265h0c.184.1.265.469.184.816a1.574,1.574,0,0,1-.653.938.7.7,0,0,1-.836.082Z" transform="matrix(-0.985, 0.174, -0.174, -0.985, 3.094, 5.072)"/></g><g transform="matrix(0.643, -0.766, 0.766, 0.643, 125.868, 323.212)"><path class="d" d="M3.022.812c-.069.053-.136.1-.2.146A4.327,4.327,0,0,0,0,4.758c0,3.2,1.7,5.261,3.812,5.261,2.1,0,3.812-2.064,3.812-5.261A4.37,4.37,0,0,0,4.718.918,3.877,3.877,0,0,1,3.808,0,4.454,4.454,0,0,1,3.022.812Z" transform="translate(0.507 0)"/><path class="e" d="M3.022.812c-.069.053-.136.1-.2.146A4.327,4.327,0,0,0,0,4.758c0,3.2,1.7,5.261,3.812,5.261,2.1,0,3.812-2.064,3.812-5.261A4.37,4.37,0,0,0,4.718.918,3.877,3.877,0,0,1,3.808,0,4.454,4.454,0,0,1,3.022.812Z" transform="translate(0.507 0)"/><ellipse class="f" cx="0.646" cy="0.473" rx="0.646" ry="0.473" transform="translate(2.078 5.247) rotate(69.849)"/><ellipse class="f" cx="0.189" cy="0.252" rx="0.189" ry="0.252" transform="matrix(0.997, 0.072, -0.072, 0.997, 1.377, 4.335)"/><path class="a" d="M6.677,2.843a3.227,3.227,0,0,1,.547,1.932c-.109,2.937-1.439,4.915-3.3,5.2a9.9,9.9,0,0,0,1.423-5.23s-.094-2.23-1.861-2.528A4.145,4.145,0,0,0,0,3.188a4.728,4.728,0,0,1,2.221-2.1A4.059,4.059,0,0,0,3.425,0,3.563,3.563,0,0,0,4.566,1.052c.016,0,.422.22.469.251,0,0,.438.283.641.44a.015.015,0,0,1,.016.016A4.315,4.315,0,0,1,6.677,2.843Z" transform="translate(0.891 0.08)"/><path class="g" d="M6.556.035a24.588,24.588,0,0,1-4.568,0C.68-.123.05.255,0,1.138c-.063.882.866,2,2.111,2.5A5.592,5.592,0,0,0,3.6,4a.755.755,0,0,1,.232.488,3.99,3.99,0,0,1,.016.41.363.363,0,0,0,.173.315l.6.047s.149-.051.179-.1a.592.592,0,0,0,.068-.308,2.069,2.069,0,0,1,.106-.83A3.667,3.667,0,0,0,6.43,3.642C7.6,2.981,8.6,2.02,8.541,1.138,8.487.386,8.033,0,7.091,0A4.489,4.489,0,0,0,6.556.035Z" transform="translate(0 6.992)"/><path class="h" d="M0,.386A3.556,3.556,0,0,1,1.4.323a25.4,25.4,0,0,0,3.025.11A1.8,1.8,0,0,1,6.27,2.024a2.058,2.058,0,0,1-.079.693.944.944,0,0,1-.567.63c-1.087.425-2.52.41-2.694.6l1.149.1a1.251,1.251,0,0,1,.284.88,1.073,1.073,0,0,1-.031.315.414.414,0,0,0,.252-.41,2.1,2.1,0,0,1,.1-.818l.252-.021a3.966,3.966,0,0,0,2.027-.91A2.827,2.827,0,0,0,8.286,1.142,1.093,1.093,0,0,0,7.719.181,1.234,1.234,0,0,0,7.073.008,13.538,13.538,0,0,0,5.608.1,23.758,23.758,0,0,1,1.7.039,4.209,4.209,0,0,0,1.153,0,1.5,1.5,0,0,0,0,.386Z" transform="translate(0.287 7.019)"/><path class="a" d="M.085.08C-.044.193-.028.338.149.548A5.18,5.18,0,0,1,.7,1.324c.129.242.258.307.42.21h0c.145-.081.21-.371.145-.646A1.247,1.247,0,0,0,.747.145.557.557,0,0,0,.085.08Z" transform="matrix(-0.985, -0.174, 0.174, -0.985, 2.177, 9.792)"/></g><g transform="matrix(0.643, -0.766, 0.766, 0.643, 74.62, 290.586)"><path class="d" d="M1.277.343C1.248.366,1.219.386,1.191.4A1.829,1.829,0,0,0,0,2.011C0,3.362.719,4.234,1.611,4.234s1.611-.872,1.611-2.223A1.847,1.847,0,0,0,1.994.388,1.638,1.638,0,0,1,1.609,0,1.882,1.882,0,0,1,1.277.343Z" transform="translate(0.214 0)"/><path class="e" d="M1.277.343C1.248.366,1.219.386,1.191.4A1.829,1.829,0,0,0,0,2.011C0,3.362.719,4.234,1.611,4.234s1.611-.872,1.611-2.223A1.847,1.847,0,0,0,1.994.388,1.638,1.638,0,0,1,1.609,0,1.882,1.882,0,0,1,1.277.343Z" transform="translate(0.214 0)"/><ellipse class="f" cx="0.273" cy="0.2" rx="0.273" ry="0.2" transform="translate(0.878 2.217) rotate(69.849)"/><ellipse class="f" cx="0.08" cy="0.107" rx="0.08" ry="0.107" transform="matrix(0.997, 0.072, -0.072, 0.997, 0.582, 1.832)"/><path class="a" d="M2.822,1.2a1.363,1.363,0,0,1,.231.816c-.046,1.241-.608,2.077-1.394,2.2A4.182,4.182,0,0,0,2.26,2S2.22,1.062,1.474.936A1.752,1.752,0,0,0,0,1.347,2,2,0,0,1,.938.458,1.715,1.715,0,0,0,1.447,0,1.505,1.505,0,0,0,1.93.445c.007,0,.178.093.2.106,0,0,.185.119.271.186a.006.006,0,0,1,.007.007A1.823,1.823,0,0,1,2.822,1.2Z" transform="translate(0.376 0.034)"/><path class="g" d="M2.77.015a10.39,10.39,0,0,1-1.93,0C.288-.052.021.108,0,.481s.366.845.892,1.058a2.363,2.363,0,0,0,.628.153.319.319,0,0,1,.1.206,1.686,1.686,0,0,1,.007.173A.153.153,0,0,0,1.7,2.2l.255.02s.063-.021.076-.042a.25.25,0,0,0,.029-.13A.874.874,0,0,1,2.1,1.7a1.55,1.55,0,0,0,.614-.162c.493-.28.919-.686.892-1.058C3.587.163,3.395,0,3,0A1.9,1.9,0,0,0,2.77.015Z" transform="translate(0 2.955)"/><path class="h" d="M0,.163A1.5,1.5,0,0,1,.592.136,10.733,10.733,0,0,0,1.871.183a.759.759,0,0,1,.779.672.87.87,0,0,1-.033.293.4.4,0,0,1-.24.266c-.459.18-1.065.173-1.138.253l.486.041a.529.529,0,0,1,.12.372.454.454,0,0,1-.013.133.175.175,0,0,0,.107-.173.888.888,0,0,1,.042-.345l.106-.009A1.676,1.676,0,0,0,2.942,1.3,1.2,1.2,0,0,0,3.5.482a.462.462,0,0,0-.24-.406A.521.521,0,0,0,2.989,0a5.721,5.721,0,0,0-.619.04A10.04,10.04,0,0,1,.719.016,1.779,1.779,0,0,0,.487,0,.632.632,0,0,0,0,.163Z" transform="translate(0.121 2.966)"/><path class="a" d="M.036.034c-.055.048-.048.109.027.2A2.189,2.189,0,0,1,.3.559C.35.662.4.689.473.648h0C.534.614.561.491.534.375A.527.527,0,0,0,.316.061.235.235,0,0,0,.036.034Z" transform="matrix(-0.985, -0.174, 0.174, -0.985, 0.92, 4.138)"/></g><g transform="translate(237.186 327.129) rotate(146)"><path class="d" d="M2.1.565c-.048.037-.095.071-.141.1A3.01,3.01,0,0,0,0,3.31c0,2.224,1.183,3.66,2.652,3.66S5.3,5.534,5.3,3.31A3.04,3.04,0,0,0,3.282.638,2.7,2.7,0,0,1,2.649,0,3.1,3.1,0,0,1,2.1.565Z" transform="translate(0.353 0)"/><path class="e" d="M2.1.565c-.048.037-.095.071-.141.1A3.01,3.01,0,0,0,0,3.31c0,2.224,1.183,3.66,2.652,3.66S5.3,5.534,5.3,3.31A3.04,3.04,0,0,0,3.282.638,2.7,2.7,0,0,1,2.649,0,3.1,3.1,0,0,1,2.1.565Z" transform="translate(0.353 0)"/><ellipse class="f" cx="0.449" cy="0.329" rx="0.449" ry="0.329" transform="translate(1.445 3.649) rotate(69.849)"/><ellipse class="f" cx="0.131" cy="0.175" rx="0.131" ry="0.175" transform="matrix(0.997, 0.072, -0.072, 0.997, 0.958, 3.015)"/><path class="a" d="M4.645,1.977a2.244,2.244,0,0,1,.381,1.344c-.076,2.043-1,3.419-2.3,3.616A6.884,6.884,0,0,0,3.72,3.3S3.655,1.748,2.426,1.54A2.883,2.883,0,0,0,0,2.217,3.288,3.288,0,0,1,1.545.754,2.823,2.823,0,0,0,2.382,0a2.478,2.478,0,0,0,.794.732c.011,0,.294.153.326.175,0,0,.3.2.446.306a.011.011,0,0,1,.011.011A3,3,0,0,1,4.645,1.977Z" transform="translate(0.62 0.056)"/><path class="g" d="M4.56.024a17.1,17.1,0,0,1-3.178,0C.473-.085.035.178,0,.791S.6,2.183,1.47,2.533A3.89,3.89,0,0,0,2.5,2.786a.525.525,0,0,1,.161.339,2.775,2.775,0,0,1,.011.285.253.253,0,0,0,.121.219l.42.032s.1-.035.124-.07a.412.412,0,0,0,.047-.215A1.439,1.439,0,0,1,3.461,2.8a2.551,2.551,0,0,0,1.011-.266C5.283,2.073,5.985,1.4,5.941.791,5.9.268,5.588,0,4.932,0A3.122,3.122,0,0,0,4.56.024Z" transform="translate(0 4.863)"/><path class="h" d="M0,.268A2.473,2.473,0,0,1,.975.224,17.667,17.667,0,0,0,3.079.3,1.249,1.249,0,0,1,4.361,1.408a1.431,1.431,0,0,1-.055.482.656.656,0,0,1-.394.438c-.756.3-1.753.285-1.874.416l.8.067a.87.87,0,0,1,.2.612.747.747,0,0,1-.022.219.288.288,0,0,0,.175-.285,1.461,1.461,0,0,1,.07-.569l.175-.014a2.758,2.758,0,0,0,1.41-.633A1.966,1.966,0,0,0,5.763.794.76.76,0,0,0,5.369.126.858.858,0,0,0,4.92.005,9.417,9.417,0,0,0,3.9.071,16.525,16.525,0,0,1,1.183.027,2.928,2.928,0,0,0,.8,0,1.04,1.04,0,0,0,0,.268Z" transform="translate(0.199 4.882)"/><path class="a" d="M.059.056C-.031.134-.02.235.1.381A3.6,3.6,0,0,1,.486.921c.09.169.18.213.292.146h0c.1-.056.146-.258.1-.449A.867.867,0,0,0,.52.1.387.387,0,0,0,.059.056Z" transform="matrix(-0.985, -0.174, 0.174, -0.985, 1.514, 6.811)"/></g><path class="i" d="M-1279,283.356a49.031,49.031,0,0,0,32.2,4.519c13.638-2.656,32.336-14.742,56.522-12.625,8.8.77,21.535,6,28.577,11.442,26.474,20.448,17.536,35.051,45.1,43.277s68.767-37.3,96.678-23.654,32.429,45.8,60.924,48.642" transform="translate(1273.802 29.123)"/><g transform="translate(0.867 316.355)"><path class="j" d="M283.048,248.674a2.12,2.12,0,0,0-1.763,2.2h0a2.017,2.017,0,0,0-1.763-2.2c1.029,0,1.763-1.028,1.763-2.5C281.285,247.5,282.02,248.674,283.048,248.674Z" transform="translate(-277.318 -239.565)"/><path class="j" d="M269.5,210.539c-.588,0-1.028.588-1.175,1.469h0a1.451,1.451,0,0,0-1.175-1.469,1.451,1.451,0,0,0,1.175-1.469A1.344,1.344,0,0,0,269.5,210.539Z" transform="translate(-267.154 -209.07)"/><path class="j" d="M312.326,225.765a.823.823,0,0,0-.735.882h0c0-.588-.294-.882-.734-.882.441,0,.734-.441.734-1.028A1,1,0,0,0,312.326,225.765Z" transform="translate(-303.07 -221.946)"/></g><path class="k" d="M597.01,289.255a.845.845,0,0,1-.342-1.366l2.049-2.049,2.05-2.049c.342-.341,1.366-.341,1.366.342l.683,2.732.683,2.732a.906.906,0,0,1-1.025,1.025l-2.733-.683Z" transform="translate(-342.83 62.332)"/><path class="l" d="M597.01,289.255a.845.845,0,0,1-.342-1.366l2.049-2.049,2.05-2.049c.342-.341,1.366-.341,1.366.342l.683,2.732.683,2.732a.906.906,0,0,1-1.025,1.025l-2.733-.683Z" transform="translate(-535.278 36.998)"/><ellipse class="m" cx="1.23" cy="1.23" rx="1.23" ry="1.23" transform="translate(246.509 314.029)"/><ellipse class="n" cx="1.23" cy="1.23" rx="1.23" ry="1.23" transform="translate(93.341 324.721)"/><ellipse class="m" cx="1.23" cy="1.23" rx="1.23" ry="1.23" transform="translate(59.64 344.942)"/><g transform="translate(157.279 325.367) rotate(19)"><path class="o" d="M.487,6.094h0A.87.87,0,0,1,.122,4.875L2.681,0,4.387.853,1.828,5.728A1.01,1.01,0,0,1,.487,6.094Z" transform="translate(0 7.038)"/><ellipse class="p" cx="3.9" cy="3.9" rx="3.9" ry="3.9" transform="translate(0.976 0.213)"/><path class="o" d="M8.134,2.894A4.163,4.163,0,0,0,.213,5.453,4.145,4.145,0,0,0,5.453,8.134,4.1,4.1,0,0,0,8.134,2.894ZM.822,5.209A3.508,3.508,0,1,1,5.209,7.525,3.422,3.422,0,0,1,.822,5.209Z" transform="translate(0.762 0)"/></g><g transform="translate(290.816 350.892) rotate(41)"><path class="j" d="M1.726,9.542H7.86a1.707,1.707,0,0,0,1.7-1.7V1.7A1.707,1.707,0,0,0,7.86,0H1.726a1.707,1.707,0,0,0-1.7,1.7V7.838C-.149,8.86.7,9.542,1.726,9.542Z" transform="translate(0 0)"/><path class="q" d="M5.623,0H0V1.193H.341V.852H2.556V6.3H2.215v.511H3.749V6.3H3.408V.852H5.623v.341h.341V0Z" transform="translate(1.725 1.363)"/></g><path class="r" d="M224.446,100.8c-.147.147-.588.147-.588-.147l-.294-1.322-.294-1.322a.325.325,0,0,1,.441-.441l1.322.294,1.322.294c.294.147.441.441.147.588l-.882.881Z" transform="translate(50.812 232.895)"/><g transform="translate(248.168 372.137)"><path class="j" d="M283.048,248.674a2.12,2.12,0,0,0-1.763,2.2h0a2.017,2.017,0,0,0-1.763-2.2c1.029,0,1.763-1.028,1.763-2.5C281.285,247.5,282.02,248.674,283.048,248.674Z" transform="translate(-277.318 -239.565)"/><path class="j" d="M269.5,210.539c-.588,0-1.028.588-1.175,1.469h0a1.451,1.451,0,0,0-1.175-1.469,1.451,1.451,0,0,0,1.175-1.469A1.344,1.344,0,0,0,269.5,210.539Z" transform="translate(-267.154 -209.07)"/><path class="j" d="M312.326,225.765a.823.823,0,0,0-.735.882h0c0-.588-.294-.882-.734-.882.441,0,.734-.441.734-1.028A1,1,0,0,0,312.326,225.765Z" transform="translate(-303.07 -221.946)"/></g><path class="s" d="M631.585,2590.136a2.408,2.408,0,1,1,2.408-2.408A2.408,2.408,0,0,1,631.585,2590.136Zm0-3.654a1.2,1.2,0,1,0,1.2,1.2A1.2,1.2,0,0,0,631.585,2586.481Z" transform="translate(-601.809 -2280.867)"/><path class="t" d="M632.312,2591.589a3.135,3.135,0,1,1,3.135-3.135A3.135,3.135,0,0,1,632.312,2591.589Zm0-4.757a1.567,1.567,0,1,0,1.567,1.567A1.567,1.567,0,0,0,632.312,2586.832Z" transform="translate(-532.14 -2227.177)"/><path class="n" d="M631.119,2589.2a1.942,1.942,0,1,1,1.942-1.942A1.942,1.942,0,0,1,631.119,2589.2Zm0-2.947a.971.971,0,1,0,.971.971A.971.971,0,0,0,631.119,2586.256Z" transform="translate(-438.413 -2253.208)"/><ellipse class="u" cx="1.204" cy="1.204" rx="1.204" ry="1.204" transform="translate(39.371 299.256)"/><ellipse class="m" cx="1.23" cy="1.23" rx="1.23" ry="1.23" transform="translate(229.963 356.098)"/><g transform="translate(173.397 314.263)"><path class="j" d="M279.522,248.674a2.12,2.12,0,0,1,1.763,2.2h0a2.017,2.017,0,0,1,1.763-2.2c-1.029,0-1.763-1.028-1.763-2.5C281.285,247.5,280.55,248.674,279.522,248.674Z" transform="translate(-275.996 -239.565)"/><path class="j" d="M267.154,210.539c.588,0,1.028.588,1.175,1.469h0a1.451,1.451,0,0,1,1.175-1.469,1.451,1.451,0,0,1-1.175-1.469A1.344,1.344,0,0,1,267.154,210.539Z" transform="translate(-260.249 -209.07)"/><path class="j" d="M310.857,225.765a.823.823,0,0,1,.735.882h0c0-.588.294-.882.734-.882-.441,0-.734-.441-.734-1.028A1,1,0,0,1,310.857,225.765Z" transform="translate(-310.857 -221.946)"/></g><path class="v" d="M225.449,100.8c.147.147.588.147.588-.147l.294-1.322.294-1.322a.325.325,0,0,0-.441-.441l-1.322.294-1.322.294c-.294.147-.441.441-.147.588l.882.881Z" transform="translate(-227.724 190.826)"/><path class="w" d="M599.875,286.574a.447.447,0,0,0,.181-.722l-1.083-1.083-1.084-1.084c-.181-.18-.722-.18-.722.181l-.361,1.445-.361,1.445a.479.479,0,0,0,.542.542l1.445-.361Z" transform="translate(-287.597 76.217)"/><g transform="translate(206.803 312.91)"><path class="x" d="M545.4,163.538l2.351-1.469s1.469,1.322,1.028,1.91c-.294.735-.881,1.028-.735,1.175-.147-.147-.588.147-1.322.147S545.4,163.538,545.4,163.538Z" transform="translate(-544.958 -161.188)"/><path class="y" d="M550.584,160.048c0-.294.147-.735,1.028-1.322a1.836,1.836,0,0,1,1.616-.294c.147.147.441.441.294.588a8.19,8.19,0,0,1-1.175.735c-.294.147-.882.735-1.175.735C550.731,160.489,550.584,160.2,550.584,160.048Z" transform="translate(-550.584 -158.138)"/><path class="y" d="M561,157.856l.294-.147-.294-.588-.294.147Z" transform="translate(-560.117 -157.122)"/></g></g></g></svg>