<svg xmlns="http://www.w3.org/2000/svg" width="1366.949" height="628.76" viewBox="0 0 1366.949 628.76"><defs><style>.a,.b,.c{fill:#cfe0ff;stroke:rgba(0,0,0,0);}.a{opacity:0.2;}.b{opacity:0.3;}.c{opacity:0.15;}.d{fill:#766de8;}.e,.f,.h,.j,.l{fill:none;stroke-miterlimit:10;}.e{stroke:#f6ce08;}.e,.f,.j{stroke-width:2px;}.f{stroke:#4dcdfe;}.g{fill:#f27c6a;}.h{stroke:#4fdc6f;}.h,.l{stroke-width:1.312px;}.i{fill:#f6ce08;}.j{stroke:#766de8;}.k{fill:#4fdc6f;}.l{stroke:#f27c6a;}</style></defs><g transform="translate(0.56 -79.789)"><path class="a" d="M-10618.924,121.136a78.927,78.927,0,0,1-15.151-1.482V104.9l0-14.983a48.541,48.541,0,0,0,13.659,1.968,48.008,48.008,0,0,0,18.806-3.8,48.181,48.181,0,0,0,15.358-10.356,48.173,48.173,0,0,0,10.355-15.358,48.017,48.017,0,0,0,3.8-18.806,48.013,48.013,0,0,0-3.8-18.805A48.166,48.166,0,0,0-10586.25,9.4a48.18,48.18,0,0,0-15.358-10.354,48.015,48.015,0,0,0-18.806-3.8,48.286,48.286,0,0,0-13.653,1.949V-32.522A77.178,77.178,0,0,1-10618.924-34a77.066,77.066,0,0,1,30.19,6.1,77.32,77.32,0,0,1,24.657,16.624,77.331,77.331,0,0,1,16.622,24.655,77.077,77.077,0,0,1,6.1,30.19,77.087,77.087,0,0,1-6.1,30.193,77.333,77.333,0,0,1-16.622,24.657,77.319,77.319,0,0,1-24.657,16.625A77.065,77.065,0,0,1-10618.924,121.136Z" transform="translate(10634.017 160.001)"/><path class="b" d="M-10555.055,207.9a120.188,120.188,0,0,1-47.076-9.505,120.6,120.6,0,0,1-38.445-25.922,120.563,120.563,0,0,1-25.92-38.445A120.2,120.2,0,0,1-10676,86.949a120.2,120.2,0,0,1,9.506-47.077,120.563,120.563,0,0,1,25.92-38.445,120.6,120.6,0,0,1,38.445-25.922A120.189,120.189,0,0,1-10555.055-34a120.16,120.16,0,0,1,47.076,9.505,120.574,120.574,0,0,1,38.449,25.922,120.562,120.562,0,0,1,25.92,38.445,120.2,120.2,0,0,1,9.506,47.077,120.2,120.2,0,0,1-9.506,47.077,120.563,120.563,0,0,1-25.92,38.445,120.574,120.574,0,0,1-38.449,25.922A120.159,120.159,0,0,1-10555.055,207.9Zm0-196.283a74.86,74.86,0,0,0-29.322,5.92,75.074,75.074,0,0,0-23.943,16.145,75.061,75.061,0,0,0-16.146,23.946,74.89,74.89,0,0,0-5.92,29.323,74.9,74.9,0,0,0,5.92,29.324,75.071,75.071,0,0,0,16.146,23.948,75.072,75.072,0,0,0,23.943,16.147,74.85,74.85,0,0,0,29.322,5.921,74.855,74.855,0,0,0,29.326-5.921,75.105,75.105,0,0,0,23.947-16.147,75.132,75.132,0,0,0,16.146-23.948,74.851,74.851,0,0,0,5.922-29.324,74.845,74.845,0,0,0-5.922-29.323,75.12,75.12,0,0,0-16.146-23.946,75.1,75.1,0,0,0-23.947-16.145A74.865,74.865,0,0,0-10555.055,11.615Z" transform="translate(10703.017 380.15)"/><path class="c" d="M-10491.751,334.507a183.09,183.09,0,0,1-71.716-14.481,183.716,183.716,0,0,1-58.567-39.489,183.652,183.652,0,0,1-39.486-58.568A183.1,183.1,0,0,1-10676,150.253a183.1,183.1,0,0,1,14.481-71.717,183.652,183.652,0,0,1,39.486-58.568,183.716,183.716,0,0,1,58.567-39.489A183.092,183.092,0,0,1-10491.751-34a183.052,183.052,0,0,1,71.715,14.481,183.7,183.7,0,0,1,58.574,39.489,183.664,183.664,0,0,1,39.485,58.568,183.12,183.12,0,0,1,14.482,71.717,183.121,183.121,0,0,1-14.482,71.717,183.664,183.664,0,0,1-39.485,58.568,183.7,183.7,0,0,1-58.574,39.489A183.05,183.05,0,0,1-10491.751,334.507Zm0-299.017a114.033,114.033,0,0,0-44.669,9.019,114.353,114.353,0,0,0-36.477,24.6,114.362,114.362,0,0,0-24.6,36.479,114.089,114.089,0,0,0-9.019,44.67,114.1,114.1,0,0,0,9.019,44.671,114.377,114.377,0,0,0,24.6,36.482,114.35,114.35,0,0,0,36.477,24.6,114.016,114.016,0,0,0,44.669,9.021,114.034,114.034,0,0,0,44.675-9.021,114.413,114.413,0,0,0,36.48-24.6,114.437,114.437,0,0,0,24.6-36.482,114.014,114.014,0,0,0,9.022-44.671,114,114,0,0,0-9.022-44.67,114.421,114.421,0,0,0-24.6-36.479,114.413,114.413,0,0,0-36.48-24.6A114.051,114.051,0,0,0-10491.751,35.49Z" transform="translate(11311.558 373.542)"/><path class="b" d="M-10647.9,22.2a27.924,27.924,0,0,1-10.937-2.208,28.011,28.011,0,0,1-8.932-6.022,28.012,28.012,0,0,1-6.021-8.932A27.915,27.915,0,0,1-10676-5.9a27.915,27.915,0,0,1,2.209-10.937,28.012,28.012,0,0,1,6.021-8.932,28.011,28.011,0,0,1,8.932-6.022A27.924,27.924,0,0,1-10647.9-34a27.91,27.91,0,0,1,10.937,2.208,28,28,0,0,1,8.933,6.022,28.015,28.015,0,0,1,6.022,8.932A27.932,27.932,0,0,1-10619.8-5.9a27.932,27.932,0,0,1-2.209,10.937,28.015,28.015,0,0,1-6.022,8.932,28,28,0,0,1-8.933,6.022A27.91,27.91,0,0,1-10647.9,22.2Zm0-45.6a17.383,17.383,0,0,0-6.812,1.375,17.434,17.434,0,0,0-5.562,3.751,17.447,17.447,0,0,0-3.752,5.563A17.405,17.405,0,0,0-10665.4-5.9a17.407,17.407,0,0,0,1.375,6.813,17.45,17.45,0,0,0,3.752,5.564,17.434,17.434,0,0,0,5.563,3.751,17.381,17.381,0,0,0,6.812,1.376,17.39,17.39,0,0,0,6.813-1.376,17.442,17.442,0,0,0,5.563-3.751,17.448,17.448,0,0,0,3.752-5.564A17.387,17.387,0,0,0-10630.4-5.9a17.386,17.386,0,0,0-1.376-6.812,17.445,17.445,0,0,0-3.752-5.563,17.442,17.442,0,0,0-5.562-3.751A17.393,17.393,0,0,0-10647.9-23.4Z" transform="translate(11595.866 176.001)"/><path class="b" d="M-10555.05,207.9a121.819,121.819,0,0,1-24.374-2.457,120.3,120.3,0,0,1-22.7-7.048,120.971,120.971,0,0,1-20.546-11.152,121.928,121.928,0,0,1-17.9-14.769,121.8,121.8,0,0,1-14.769-17.9,121,121,0,0,1-11.152-20.545,120.4,120.4,0,0,1-7.048-22.7A121.847,121.847,0,0,1-10676,86.949a122.746,122.746,0,0,1,1.023-15.811c15.5,0,30.992.01,46.041.029a75.661,75.661,0,0,0-1.452,14.782,74.86,74.86,0,0,0,5.921,29.323,75.359,75.359,0,0,0,6.946,12.8,75.872,75.872,0,0,0,9.2,11.15,75.819,75.819,0,0,0,11.149,9.2,75.324,75.324,0,0,0,12.8,6.946,74.853,74.853,0,0,0,29.323,5.921,74.848,74.848,0,0,0,29.322-5.921,75.331,75.331,0,0,0,12.8-6.946,75.844,75.844,0,0,0,11.15-9.2,75.9,75.9,0,0,0,9.2-11.15,75.311,75.311,0,0,0,6.946-12.8,74.86,74.86,0,0,0,5.921-29.323,75.125,75.125,0,0,0-1.362-14.35l12.65.043c0,12.892.069,29.126.142,46.313v.392c.077,18.16.156,36.938.156,52.7a120.724,120.724,0,0,1-17.985,15.315,120.769,120.769,0,0,1-20.842,11.606,120.462,120.462,0,0,1-23.157,7.358A121.9,121.9,0,0,1-10555.05,207.9Z" transform="translate(11834.017 9.15)"/><g transform="translate(-12060 467)"><path class="d" d="M8.721,5.04A4.385,4.385,0,1,1,5.04.05,4.385,4.385,0,0,1,8.721,5.04" transform="translate(12489.152 -321.092)"/><path class="e" d="M10.718,5.359A5.359,5.359,0,1,1,5.359,0,5.359,5.359,0,0,1,10.718,5.359Z" transform="translate(12089.214 -140.745)"/><path class="f" d="M9.32,4.66A4.66,4.66,0,1,1,4.66,0,4.66,4.66,0,0,1,9.32,4.66Z" transform="translate(12317 -275.244)"/><path class="g" d="M6.091.272.734,3.806A1.635,1.635,0,0,0,.9,6.632L6.642,9.5A1.634,1.634,0,0,0,9.005,7.945L8.623,1.539A1.635,1.635,0,0,0,6.091.272" transform="translate(12195 -356.244)"/><path class="h" d="M6.411.287.773,4.007A1.72,1.72,0,0,0,.95,6.981L6.991,10A1.72,1.72,0,0,0,9.478,8.363l-.4-6.743A1.721,1.721,0,0,0,6.411.287Z" transform="translate(12432 -20.244)"/></g><g transform="translate(-10122 538)"><path class="i" d="M10.377,6A5.217,5.217,0,1,1,6,.059,5.218,5.218,0,0,1,10.377,6" transform="translate(11171.681 -342.564) rotate(180)"/><path class="j" d="M10.718,5.359A5.359,5.359,0,1,1,5.359,0,5.359,5.359,0,0,1,10.718,5.359Z" transform="translate(11116 -84.244) rotate(180)"/><path class="f" d="M9.32,4.66A4.66,4.66,0,1,1,4.66,0,4.66,4.66,0,0,1,9.32,4.66Z" transform="translate(11428 -274.244) rotate(180)"/><path class="k" d="M6.091.272.734,3.806A1.635,1.635,0,0,0,.9,6.632L6.642,9.5A1.634,1.634,0,0,0,9.005,7.945L8.623,1.539A1.635,1.635,0,0,0,6.091.272" transform="translate(11432.421 -72.531) rotate(180)"/><path class="l" d="M6.411.287.773,4.007A1.72,1.72,0,0,0,.95,6.981L6.991,10A1.72,1.72,0,0,0,9.478,8.363l-.4-6.743A1.721,1.721,0,0,0,6.411.287Z" transform="translate(11392 -409.244) rotate(180)"/></g></g></svg>