<svg xmlns="http://www.w3.org/2000/svg" width="19.798" height="19.795" viewBox="0 0 19.798 19.795"><defs><style>.a{fill:#353e5a;}</style></defs><path class="a" d="M-11607.536,19.8a5.47,5.47,0,0,1-5.465-5.462V5.462A5.47,5.47,0,0,1-11607.536,0h8.869a5.47,5.47,0,0,1,5.464,5.462v8.872a5.47,5.47,0,0,1-5.464,5.462Zm-3.707-14.333v8.872a3.711,3.711,0,0,0,3.707,3.707h8.869a3.713,3.713,0,0,0,3.707-3.707V5.462a3.71,3.71,0,0,0-3.707-3.7h-8.869A3.708,3.708,0,0,0-11611.243,5.462Zm3.04,4.436a5.106,5.106,0,0,1,5.1-5.1,5.106,5.106,0,0,1,5.1,5.1,5.106,5.106,0,0,1-5.1,5.1A5.106,5.106,0,0,1-11608.2,9.9Zm1.757,0a3.35,3.35,0,0,0,3.346,3.346,3.349,3.349,0,0,0,3.343-3.346,3.347,3.347,0,0,0-3.343-3.343A3.347,3.347,0,0,0-11606.446,9.9Zm7.75-4.389a1.31,1.31,0,0,1-.379-.912,1.287,1.287,0,0,1,.379-.912,1.3,1.3,0,0,1,.909-.376,1.3,1.3,0,0,1,.912.376,1.3,1.3,0,0,1,.376.912,1.307,1.307,0,0,1-.376.912,1.3,1.3,0,0,1-.912.376A1.3,1.3,0,0,1-11598.7,5.508Z" transform="translate(11613.001)"/></svg>