<svg xmlns="http://www.w3.org/2000/svg" width="83.223" height="98.109" viewBox="0 0 83.223 98.109"><defs><style>.a{fill:#387dff;stroke:rgba(0,0,0,0);}</style></defs><path class="a" d="M35.059,0c-1.518.243-2.007.63-2.1,2.136-.164,2.609-.318,5.231-.267,7.844.105,5.184.353,10.364.536,15.544a.956.956,0,0,0,.723.986,1.517,1.517,0,0,0,1.643-.567c.982-1.522.979-3.286.982-5.035.013-4.112-.065-8.224-.07-12.332,0-.51.014-1.019.037-1.532a32.68,32.68,0,0,1,7.044,13.574,42.726,42.726,0,0,1-.637,22.222,55.568,55.568,0,0,1-12.289,22.41,44.679,44.679,0,0,1-17.531,12.41A32.936,32.936,0,0,1,1.285,79.873c-.556,0-1.132.117-1.241.685a2.219,2.219,0,0,0,.219,1.514c.372.614,2.018.614,2.566.614h.164a31.98,31.98,0,0,0,17.309-3.3A45.265,45.265,0,0,0,37.425,64.162,61.47,61.47,0,0,0,48.212,35.978a47.15,47.15,0,0,0-1.071-17.922,33.741,33.741,0,0,0-6.382-12.8c4.534,1.011,12.709,2.977,14.456,3.356A19.032,19.032,0,0,0,58.9,9,1.532,1.532,0,0,0,60.27,7.883a1.581,1.581,0,0,0-.394-1.757,7.333,7.333,0,0,0-1.6-.931C56.866,4.591,35.3,0,35.061,0Z" transform="translate(82.592 79.828) rotate(163)"/></svg>