<svg xmlns="http://www.w3.org/2000/svg" width="1365.953" height="1133.088" viewBox="0 0 1365.953 1133.088"><defs><style>.a{fill:#eef5ff;}</style></defs><path class="a" d="M-1567.847,1413.11c-10.806-9.95,20.245-53.962,52.848-63.834,21.409-6.437,41.007-4.6,44.774,6.407,3.8,11.021-11.268,15.384-31.838,25.564-16.787,8.308-36.467,36.754-54.172,36.754A16.712,16.712,0,0,1-1567.847,1413.11Zm-53.105-1128.2,1365.953.12v781.331c-202.84-41.018-181.805,141.16-315.429,171.813-74.314,17.046-127.833,4.558-182.5-7.929-56.8-12.974-114.829-25.95-198.7-5.8-134.454,32.309-119.866,67.866-275.766,93.29-52.625,8.582-104.995-.2-154.861-8.974-93.209-16.408-177.669-32.816-238.682,64.153Z" transform="translate(1620.952 -284.912)"/></svg>