<svg xmlns="http://www.w3.org/2000/svg" xmlns:xlink="http://www.w3.org/1999/xlink" width="1366" height="765" viewBox="0 0 1366 765"><defs><style>.a{clip-path:url(#a);}.b{fill:#fff;}.c{fill:#f5fafe;}.d{fill:url(#b);}.e{fill:#8dbbff;}.f{fill:url(#c);}.g{fill:url(#d);}.h{fill:#deebff;}.i{fill:#eef5ff;}.j{fill:#350f2e;opacity:0.3;}.k{fill:#bdcdfc;}.l{fill:#6ca4ff;}.m{fill:url(#e);}.n{fill:#cfe0ff;}.o{fill:#b9cfff;stroke:rgba(0,0,0,0);}.p{fill:#f5f9fd;}.q{fill:#7ea1fb;}</style><clipPath id="a"><rect width="1366" height="765"/></clipPath><linearGradient id="b" y1="0.5" x2="1" y2="0.5" gradientUnits="objectBoundingBox"><stop offset="0" stop-color="#e6f0ff"/><stop offset="1" stop-color="#abcaff"/></linearGradient><linearGradient id="c" y1="0.5" x2="1" y2="0.5" gradientUnits="objectBoundingBox"><stop offset="0" stop-color="#e6f0ff"/><stop offset="1" stop-color="#ebf3ff"/></linearGradient><linearGradient id="d" x1="1.045" y1="-0.093" x2="0.339" y2="1.161" xlink:href="#b"/><linearGradient id="e" x1="0.5" y1="0.721" x2="0.5" y2="0.07" gradientUnits="objectBoundingBox"><stop offset="0" stop-color="#f8fbff"/><stop offset="1" stop-color="#eef5ff"/></linearGradient></defs><g class="a"><rect class="b" width="1366" height="765"/><g transform="translate(-1565.722 1278.606)"><path class="c" d="M1652.014.095A8.1,8.1,0,0,1,1650.5,0h-21.07a8.1,8.1,0,0,1-1.512.1h-155.45a8.1,8.1,0,0,1-1.512-.1s-12.946.1-13.513.1h-226.8a8.1,8.1,0,0,1-1.507-.1H582.864a8.1,8.1,0,0,1-1.512.095H189.941L167.7-.9l3.357,760.364,1360.358-.094L1529.943-.9Z" transform="translate(1304.861 -1279.405)"/><path class="d" d="M595.527,497.278q-56.982-96.156-114.532-191.932c-5.764-9.483-12.379-20.767-20.412-24.94-40.918-21.147-82.4-40.3-123.7-60.026-31.279-14.983-61.235-30.724-77.961-73.4-9.544-24.371-24.947-44.759-36.193-68.087-13.419-27.785-34.208-36.7-56.982-43.526-30.617-9.2-60.479-23.423-91.38-29.966C64.637,3.509,55,1.707,45.265.095L2.74,0H0V520.037H603.842C599.968,509.132,598.551,502.4,595.527,497.278Z" transform="translate(1304.861 -1279.405)"/><path class="e" d="M105.743,0C92.608,29.966,70.212,43.9,70.212,43.9L67.094,0H60.762C61.8,135.7,0,178.277,0,178.277l10.3,32.336C57.927,170.69,70.212,63.535,70.212,63.535,83.82,48.173,101.018,31.009,110.846,0Z" transform="translate(1444.718 -1279.405)"/><path class="f" d="M0,388.24H556.026c-3.78-8.535-5.2-12.233-6.9-15.362-20.884-37.742-43.469-72.638-62.369-113.983C470.22,222.766,458.03,179.05,443.288,139.6c-3.4-9.1-8.788-18.207-14.175-21.336-12.852-7.681-26.459-10.526-39.406-17.828-8.316-4.647-17.01-11.285-23.53-21.716C353.8,58.806,343.028,35,331.027,13.952,327.247,7.22,321.672-.366,317.136.013c-19.278,1.9-38.65,5.026-57.738,11.1-15.12,4.836-29.767,15.172-44.792,22-11.151,5.026-21.262,11.474-27.877,31.862-5.575,17.164-13.041,32.052-17.766,49.88-8.221,31.293-22.869,42.767-38.177,53.768-20.128,14.509-40.445,28.543-60.479,44-3.969,3.034-7.182,11.285-10.017,18.3Q31.94,300.9,4.158,371.55C2.551,375.248,1.89,380.274,0,388.24Z" transform="translate(1418.92 -1148.746)"/><path class="g" d="M379.693.095c-5.386,3.6-10.773,10.336-14.931,16.5C345.3,45.328,327.908,77.759,307.686,104.88,297.1,119.1,283.022,128.018,269.6,134.466c-20.979,10.052-43.091,13.845-63.975,24.371-8.694,4.362-17.388,16.69-22.963,29.207-23.814,53.862-43.564,113.414-70.4,162.725C81.646,407.1,45.076,454.7,11.245,506.287,8.41,510.554,6.142,515.675,0,527.244H800.587V0Z" transform="translate(2318.636 -1279.405)"/><path class="h" d="M993.363,353.17c-33.736-49.311-58.589-108.863-88.639-162.725-6.9-12.422-17.86-24.75-28.822-29.207-26.27-10.431-54.053-14.319-80.512-24.371-16.821-6.353-34.681-15.362-47.911-29.586C722.154,80.16,700.136,47.728,675.661,19,667.912,9.892,656.572-.634,647.217.03c-39.406,2.655-79,6.828-117.839,15.078-30.9,6.543-60.762,20.767-91.38,29.966C415.224,51.9,394.529,60.72,381.111,88.6c-11.34,23.328-26.648,43.716-36.193,68.087-16.821,42.673-46.682,58.414-77.961,73.4-41.3,19.819-82.78,38.88-123.7,60.026-8.127,4.172-14.647,15.362-20.412,24.94Q65.156,410.635,8.316,506.981C5.292,512.1,3.874,518.834,0,529.739H1113.187v-30.06C1072.553,451.506,1029.65,406.178,993.363,353.17Z" transform="translate(2006.226 -1139.658)"/><path class="i" d="M168.252,246.893,1532.36,259.144V-1.066L168.252-7.912Z" transform="translate(1304.861 -765.911)"/><path class="j" d="M.856,1.612C.572,1.043.383.474.1,0,.383.664.667,1.233.856,1.612Z" transform="translate(2690.575 -678.385)"/><path class="i" d="M168.4,18.2V230.427l1368.8,6.728V57.647C758.257-55.483,168.4,18.2,168.4,18.2Z" transform="translate(1304.861 -755.03)"/><path class="k" d="M63.786,100.138C84.481,82.026,97.333,37.647,112.642,0h-7.087C92.136,40.207,75.22,65.621,65.96,77.475a3.706,3.706,0,0,1-6.615-2.181L58.022,0H9.45C4.536,149.165,0,398.467,0,809.832H73.33L60.006,108.863a11.639,11.639,0,0,1,3.78-8.725Z" transform="translate(2486.559 -1279.405)"/><path class="h" d="M167.856-.452V146.531l808.309-40.924V13.055C646.177-12.738,167.856-.452,167.856-.452Z" transform="translate(1304.861 -669.44)"/><path class="l" d="M30.428,0C26.554,340.053,0,731.409,0,731.409l15.687,16.5,184.082-52.061C172.175,518.709,156.961,207.2,149.5,0Z" transform="translate(1516.442 -1279.405)"/><path class="m" d="M1577.644,47.944C1377.876.341,1134.732.341,1134.732.341,968.207-5.612,441.312,67.828,168.114,107.969c.109,13.635-.526,7.954.256,40.859H1814.362V105.5C1810.393,104.462,1747.741,88.436,1577.644,47.944Z" transform="translate(1304.861 -661.657)"/><path class="l" d="M148.931,0H24.382C13.988,282.588-.187,666.641,0,677.167c9.45,19.724,193.343,32.81,193.343-1.9C193.345,635.063,153.75,314.45,148.931,0Z" transform="translate(2781.107 -1279.405)"/><path class="k" d="M.019,0C-1.3,7.871,68.152,14.793,69.758,3.7Z" transform="translate(2486.446 -661.695)"/><path class="n" d="M12.757,60.69c0-.19-1.8-18.017-3.591-29.4C6.9,16.974.094.095,0,0,0,0,7.749,16.785,10.017,31.2c1.8,11.379,3.591,29.207,3.591,29.4Z" transform="translate(1757.79 -789.808)"/><path class="n" d="M38.272,26.462A18.866,18.866,0,0,0,36.1,19.349c-2.268-4.267-6.615-8.819-12.379-12.8C15.12.574,0,0,0,0S15.4-.375,24.191,5.789C31.657,11,35.153,15.841,36.854,18.97a20.322,20.322,0,0,1,2.268,7.491Z" transform="translate(1731.52 -755.2)"/><path class="n" d="M.756,26.362,0,25.983c.094-.095,5.1-9.957,12.663-16.595A42.453,42.453,0,0,1,29.389,0,53.58,53.58,0,0,0,13.23,9.957C5.764,16.595.85,26.267.756,26.362Z" transform="translate(1770.075 -755.575)"/><path class="b" d="M21.551,97.009C22.874,82.5,24.1,68.75,24.953,56.518,26.182,39.354,27.316,20.1,28.355,0h-.378c-.945,20.1-2.079,39.354-3.4,56.518C23.63,68.75,22.4,82.5,21.173,97.009,17.866,134.087,14.086,176,13.33,217.156c-.85,47.793,2.551,84.587,10.4,112.371,9.166,32.431,5.292,49.4-1.7,80.13-4.725,20.862-10.678,46.75-15.309,87.716C1.234,545.925-.656,618.469.195,687.6l.756.19C-1.034,530.847,13.33,449.3,22.4,409.752c7.087-30.819,10.962-47.793,1.7-80.319C6.432,266.751,15.22,168.7,21.551,97.009Z" transform="translate(2803.972 -1279.405)"/><g transform="translate(1171.767 -1318.23)"><path class="n" d="M14.633.33C10.781-.5,3.491.39,1,1.341c-5.63,2.2,14.223,2.141,15.764,1.9S18.544,1.163,14.633.33Z" transform="translate(1423.321 646.832)"/><path class="o" d="M27.015,57.623c-2.22.787-11.624,3.563-18.066-3.215,0,0,8.783-9.437,17.843,2.093A151.563,151.563,0,0,0,21.758,38C19.486,39.27,12.1,42.707,5.63,38c0,0,6-9.479,15.606-1.511-1.252-3.574-2.706-7.331-4.391-11.232-1.1.676-7.61,4.32-13.23.254,0,0,5.067-7.973,13.042-.685Q14.383,19.6,11.53,14.037c-1.553.388-6.858,1.337-10.168-2.739,0,0,4.549-4.192,8.922.367q-1.111-2.079-2.313-4.2C6.958,7.247,1.029,5.771,0,.173c0,0,7.533-1.933,8.108,7.111,1.209,1.936,2.852,4.69,4.708,8.143-1.175-5.41,4.133-7.285,4.133-7.285,2.052,4.992-1.534,9.272-2.535,10.333,1.593,3.118,3.286,6.676,4.96,10.606-1.017-8.882,7.235-9.343,7.235-9.343.762,6.478-4.8,10.375-6.394,11.352,1.6,3.886,3.155,8.1,4.575,12.6.061-9.681,9.583-9.913,9.583-9.913.7,8.031-6.156,12.631-8.382,13.9a133.673,133.673,0,0,1,4.767,25.584,58.433,58.433,0,0,1,4.286-8.687q-.235.324-.493.656s-5.926-7.315-1.718-14.451c0,0,7.634,3.9,3.433,11.844a63.038,63.038,0,0,1,6.834-8.68c-.441-.575-4.466-6.081-1.325-11.428,0,0,7.115,3.655,1.709,11.022a61.888,61.888,0,0,1,5.7-5.266l-.061-.047s.056-.059.163-.162c-.49-1.471-1.541-5.759,1.555-8.818,0,0,3.507,3.189.949,7.009q.1-.057.213-.112c.47-.326.747-.5.787-.53q-.275.2-.546.41a7.876,7.876,0,0,1,8.137.477s-3.93,6.915-10.839,2.034l-.064.048s-.02-.046-.054-.132l-.066-.048a61.882,61.882,0,0,0-6.317,6.542c1.7-1.382,5.908-4.029,10.467-1.01,0,0-4.042,7.113-11.135,1.819a83.032,83.032,0,0,0-6.134,8.657c2.019-1.627,6.89-4.628,12.173-1.14,0,0-4.626,8.24-12.85,2.25a87.441,87.441,0,0,0-4.715,8.96q.044.608.082,1.219l-1.9.3S29.245,69.1,27.015,57.623ZM52.8,45.607h-.005Z" transform="translate(1402.634 572.535)"/></g><path class="l" d="M6.8,0H0C13.986,64.388,34.775,119.863,65.771,130.389l-2.646-24.75C63.03,105.638,25.325,101.845,6.8,0Z" transform="translate(2637.094 -1279.405)"/><path class="l" d="M10.962,0H0C11.907,173.346,17.86,410.605,108.767,427.959c0,0,3.78-53.862-9.733-59.552C57.266,350.674,35.153,244.182,10.962,0Z" transform="translate(2691.714 -1279.405)"/><path class="b" d="M2.929,44.935A2.817,2.817,0,0,1,.85,43.987l.661-.664a1.965,1.965,0,0,0,1.984.569c2.268-.759,5.2-5.5,6.52-13.371C12.379,16.3,10.962,4.348,6.709,1.6,5.1.555,3.024.84.567,2.452L0,1.693C2.74-.2,5.2-.488,7.182.745c5.386,3.414,5.67,17.448,3.685,29.871C9.639,38.107,6.8,43.8,3.685,44.745A1.016,1.016,0,0,1,2.929,44.935Z" transform="translate(2803.978 -1250.469)"/><path class="l" d="M87.316,23.423C72.291,30.25,23.908,27.216,5.67,0L0,2.56S13.513,58.983,94.971,55.474C95.821,30.44,87.316,23.423,87.316,23.423Z" transform="translate(2636.622 -1000.042)"/><path class="l" d="M229.725,0C118.973,175.527,106.594,105.544,106.594,105.544,124.737,65.052,140.613,30.629,145.81,0h-12.1C94.5,122.139,0,206.725,0,206.725l17.2,43.526c36.1-49.974,73.708-110.759,73.708-110.759C145.338,173.82,230.953,7.491,238.891,0Z" transform="translate(1659.89 -1279.405)"/><path class="p" d="M33.946,510.27c-.1-.569-13.8-55.759-21.262-87.052C5.691,394.011-4.42,296.148,2.1,220.949c2.173-24.371,4.158-44.1,5.764-60.026,3.4-32.811,5.386-52.63,4.63-74.44C11.645,60.974,12.59,15.741,28.56,0l.661.664C22.512,7.3,11.456,27.216,13.44,86.388c.756,21.81-1.323,41.724-4.63,74.535C7.2,176.76,5.124,196.579,3.045,220.949c-6.52,75.1,3.5,172.872,10.489,201.984,7.56,31.293,21.168,86.483,21.262,87.052Z" transform="translate(1646.734 -1089.37)"/><path class="l" d="M55.659.095C35.153,83.733,0,100.423,0,100.423l.945,22.759C28.066,105.164,46.588,60.311,60.573,0H55.659Z" transform="translate(1669.813 -1279.5)"/><path class="b" d="M21.177,709.409C20.988,708.271,2.938,598.555.387,511.123c-1.8-60.785,3.024-116.07,6.9-160.449,1.8-20.862,3.4-38.88,4.063-54.9.661-14.129.661-26.931.756-39.354.094-32.716.189-60.974,11.151-95.4C38.092,113.888,48.676,52.345,50.66,0h.94C49.62,52.345,39.037,114.078,24.012,161.3c-10.868,34.33-10.962,62.494-11.057,95.115,0,12.422-.094,25.319-.756,39.448-.756,16.026-2.268,34.043-4.063,54.906-3.874,44.38-8.6,99.569-6.9,160.354,2.551,87.431,20.6,197.053,20.79,198.191Z" transform="translate(1594.678 -1279.405)"/><path class="b" d="M33.556,685.986C33.272,684.279,1.616,516.528.671,435.45c-.094-4.836-.094-9.862-.189-14.888C-.463,339.2-1.692,238.018,14.751,183.3,31.949,125.932,36.485,1.328,36.485,0h.945c0,1.233-4.536,126.026-21.829,183.492C-.841,238.018.387,339.2,1.332,420.468c.094,5.026.094,10.052.189,14.888C2.372,516.339,34.028,684.09,34.312,685.8Z" transform="translate(1630.492 -1260.629)"/><path class="b" d="M.945,718.607,0,718.417c6.048-38.595,3.5-122.423,1.417-189.846-.378-12.8-.756-24.845-1.039-36.035-1.7-65.147,2.457-142.621,14.553-267.131C25.042,120.8,21.64,80.223,15.97,13.085,15.592,8.914,15.214,4.362,14.836,0h.945c.378,4.457.756,8.819,1.134,12.991,5.67,67.233,9.072,107.725-1.039,212.51C3.78,350.01-.378,427.39,1.323,492.537c.283,11.19.661,23.233,1.039,36.035C4.441,595.994,7.087,679.917.945,718.607Z" transform="translate(1552.257 -1279.405)"/><path class="b" d="M13.438,722.4h-.945c.945-28.923-2.268-85.156-5.764-144.8C2.76,508.847-1.3,437.821.4,399.131c1.89-42.957,7.276-87.906,12.474-131.337,3.591-29.681,6.9-57.655,8.883-82.6,4.819-62.966,3.5-115.026-4.725-185.2h.945c8.316,70.268,9.639,122.233,4.819,185.2-1.89,24.94-5.292,53.009-8.883,82.6-5.2,43.431-10.584,88.38-12.474,131.242C-.261,437.726,3.8,508.752,7.77,577.408,11.171,637.15,14.383,693.478,13.438,722.4Z" transform="translate(1566.79 -1279.405)"/><path class="l" d="M15.025,0H0C10.4,35.276,23.152,64.293,41.579,70.552l5.1-35.371C46.682,35.276,31.09,31.293,15.025,0Z" transform="translate(2764.383 -1279.405)"/><path class="b" d="M30.05,0H29.1c4.063,21.81-.283,54.716-5.2,92.552-6.423,49.216-14.455,110.475-5.95,167.561,8.221,54.811,13.419,104.6,12.285,169.173C28.916,502.02,18.994,588.124,0,692.529l.945.19c18.994-104.406,28.916-190.6,30.239-263.432,1.228-64.673-4.063-114.458-12.285-169.363-8.5-56.992-.472-118.156,5.953-167.372C29.767,54.811,34.114,21.905,30.05,0Z" transform="translate(2827.98 -1279.405)"/><path class="b" d="M13.608,0H12.285c4.819,4.552,9.828,16.31,9.261,46.086-.756,40.776-9.828,66.38-15.97,66.759-2.268.1-4.158-3.319-5.481-9.483L0,106.776c1.417,4.647,3.213,7.017,5.481,7.017H5.67c3.78-.19,7.749-7.207,10.962-19.155,3.5-12.991,5.575-30.25,5.953-48.552C23.058,17.448,18.427,5.121,13.608,0Z" transform="translate(2801.71 -1279.405)"/><path class="q" d="M16.774,302.6c-2.362-44.854-7.843-96.345-12.757-139.3C-2.031,111.138,2.5,21.716,3.733,0H2.788C1.56,21.81-2.976,111.233,3.072,163.389,9.592,219.906,17.058,291.407,16.963,342.9h.472Z" transform="translate(2533.571 -1279.5)"/><path class="q" d="M14.743,429.761c-.472-63.724-3.874-120.906-7.182-176.1C2.552,170.6-2.173,92.078,3.592,0H2.647c-5.764,92.173-1.04,170.69,3.969,253.665,3.307,55.285,6.8,112.371,7.182,176.1,1.134,158.552.472,196.768.472,197.148h.945C15.215,626.624,15.877,588.408,14.743,429.761Z" transform="translate(2525.302 -1279.405)"/><path class="q" d="M5.018,155.044C3.6,93.406,2.372,35.086,4.167,0H3.222c-1.8,35.086-.567,93.406.85,155.044,1.89,82.785,3.969,176.665-.756,240.579C-4.9,507.235,4.734,625.2,4.829,626.339l.945-.095c-.094-1.138-9.639-119.009-1.512-230.527C8.987,331.709,6.908,237.829,5.018,155.044Z" transform="translate(2511.024 -1279.405)"/><path class="q" d="M0,.017,623.894,0V.945L0,.962Z" transform="matrix(0.008, -1, 1, 0.008, 2499.126, -655.563)"/><path class="b" d="M14.337,47.7C6.115,47.509.729,39.828.067,27.121-.594,14.793,3.658,1.043,11.124,0l.094.948C4.414,1.9.351,15.457,1.012,27.026,1.957,45.043,11.5,46.655,14.337,46.75Z" transform="translate(2923.923 -1095.913)"/><path class="b" d="M31.257,127.449c-6.52,0-12.379-3.224-17.293-9.578C-1.345,98.052-4.747,48.457,7.16,19.629,11.979,7.871,18.878,1.138,27,0l.1.948C19.256,1.991,12.641,8.535,7.916,19.914-3.9,48.457-.494,97.578,14.625,117.207c5.386,7.017,11.907,10.052,19.372,9.009l.094.948a9.3,9.3,0,0,1-2.834.285Z" transform="translate(2907.948 -1109.853)"/><path class="l" d="M64.637,0C54.809,155.8,0,183.966,0,183.966l3.213,46.75C49.044,185.768,72.952,116.07,76.165,0Z" transform="translate(2935.047 -1279.405)"/><path class="b" d="M26.321,385.476C18.667,360.347,11.39,336.64,6.193,296.432c-10.773-83.828-2.929-99.1,5.292-115.216,3.5-6.828,7.087-13.845,9.45-26.267,6.048-31.767,5.1-57.371,3.4-104.026C23.77,36.224,23.2,19.629,22.73,0h-.945c.472,19.629,1.134,36.224,1.606,50.923,1.7,46.561,2.646,72.259-3.4,103.837-2.362,12.233-5.953,19.25-9.355,25.983C2.32,197.053-5.523,212.416,5.25,296.528c5.2,40.3,12.474,64.009,20.128,89.233,15.12,49.5,32.318,105.544,40.067,306.2h.945C58.639,491.114,41.441,434.976,26.321,385.476Z" transform="translate(2887.936 -1279.31)"/><path class="b" d="M41.773,534.83C38.273,469.3,30.339,402.64,20.6,356.364-.374,256.889-9.067,184.346,16.731,153.242c11.151-13.466,16.348-43.526,15.592-89.233C31.756,32.811,28.354,4.741,27.787,0h-.945c.567,4.362,3.969,32.621,4.536,64.009.567,31.293-1.606,71.975-15.309,88.569-25.987,31.388-17.293,104.216,3.685,203.88C29.488,402.64,37.426,469.3,40.922,534.735c3.685,69.6,1.984,128.587-4.819,161.871l.945.19C43.757,663.607,45.553,604.529,41.773,534.83Z" transform="translate(2861.617 -1279.5)"/></g></g></svg>