<svg xmlns="http://www.w3.org/2000/svg" width="37.945" height="51.657" viewBox="0 0 37.945 51.657"><defs><style>.a{fill:#387dff;stroke:rgba(0,0,0,0);}</style></defs><path class="a" d="M-9513.557,16.658c-.929-.148-1.228-.385-1.287-1.307-.1-1.6-.194-3.2-.163-4.8.064-3.171.216-6.339.328-9.507a.585.585,0,0,1,.442-.6.928.928,0,0,1,1,.347,5.459,5.459,0,0,1,.6,3.08c.008,2.515-.04,5.03-.043,7.543,0,.312.009.623.022.937a19.989,19.989,0,0,0,4.309-8.3,26.134,26.134,0,0,0-.39-13.592,33.988,33.988,0,0,0-7.517-13.707,27.328,27.328,0,0,0-10.723-7.591,20.145,20.145,0,0,0-7.243-1.354c-.34,0-.692-.072-.759-.419a1.357,1.357,0,0,1,.134-.926c.228-.376,1.234-.376,1.569-.376h.1a19.561,19.561,0,0,1,10.587,2.02,27.686,27.686,0,0,1,10.474,9.311,37.6,37.6,0,0,1,6.6,17.239,28.839,28.839,0,0,1-.655,10.962,20.638,20.638,0,0,1-3.9,7.83c2.773-.618,7.773-1.821,8.842-2.053a11.641,11.641,0,0,1,2.257-.239.937.937,0,0,1,.835.684.967.967,0,0,1-.241,1.074,4.485,4.485,0,0,1-.981.57c-.859.37-14.052,3.178-14.2,3.178Z" transform="translate(9535.505 34.5)"/></svg>