<svg xmlns="http://www.w3.org/2000/svg" width="618.437" height="498.967" viewBox="0 0 618.437 498.967"><defs><style>.a{fill:#f6ce08;}.b,.c,.e,.g{fill:none;}.b{stroke:#766de8;}.b,.c,.e{stroke-miterlimit:10;stroke-width:2px;}.c{stroke:#4dcdfe;}.d{fill:#4fdc6f;}.e{stroke:#f27c6a;}.f{fill:#f5fafe;}.g{stroke:#4fceff;stroke-width:5px;}</style></defs><g transform="translate(0.001 -3241.033)"><g transform="translate(-40.244 2318.244)"><path class="a" d="M10.377,6A5.217,5.217,0,1,1,6,.059,5.218,5.218,0,0,1,10.377,6" transform="translate(658.68 1352.436) rotate(180)"/><path class="b" d="M10.718,5.359A5.359,5.359,0,1,1,5.359,0,5.359,5.359,0,0,1,10.718,5.359Z" transform="translate(223 1420.756) rotate(180)"/><path class="c" d="M9.32,4.66A4.66,4.66,0,1,1,4.66,0,4.66,4.66,0,0,1,9.32,4.66Z" transform="translate(355 1030.756) rotate(180)"/><path class="d" d="M6.091.272.734,3.806A1.635,1.635,0,0,0,.9,6.632L6.642,9.5A1.634,1.634,0,0,0,9.005,7.945L8.623,1.539A1.635,1.635,0,0,0,6.091.272" transform="translate(649.421 932.469) rotate(180)"/><path class="e" d="M6.411.287.773,4.007A1.72,1.72,0,0,0,.95,6.981L6.991,10A1.72,1.72,0,0,0,9.478,8.363l-.4-6.743A1.721,1.721,0,0,0,6.411.287Z" transform="translate(609 1155.756) rotate(180)"/></g><path class="f" d="M152.161,231.759h0V179.842l0,.516c0,3.726,0,7.128,0,10.384h.006a78.028,78.028,0,0,0,29.649-5.681,72.717,72.717,0,0,0,12.718-6.726,71.087,71.087,0,0,0,19.951-19.969,72.874,72.874,0,0,0,6.726-12.742,78.421,78.421,0,0,0,5.685-29.746,75.194,75.194,0,0,0-32.363-61.739,73.884,73.884,0,0,0-42.374-13.107c0-12.718,0-25.969,0-41.01a117.857,117.857,0,0,1,23.9,2.432,113.608,113.608,0,0,1,41.654,17.858,115.565,115.565,0,0,1,16.97,14.36,116.328,116.328,0,0,1,33.059,81.206,126.831,126.831,0,0,1-2.261,23.99,117.976,117.976,0,0,1-6.524,22.051,112.821,112.821,0,0,1-10.4,19.723,109.93,109.93,0,0,1-30.849,30.911,112.4,112.4,0,0,1-19.672,10.412,117.269,117.269,0,0,1-21.983,6.532A125.852,125.852,0,0,1,152.161,231.759Z" transform="translate(-152.161 3262.5)"/><path class="g" d="M22.34,1,2.692,13.961a6,6,0,0,0,.62,10.365L24.361,34.859a6,6,0,0,0,8.667-5.718l-1.4-23.5A6,6,0,0,0,22.34,1" transform="translate(86.997 3599.285) rotate(135)"/></g></svg>