<svg xmlns="http://www.w3.org/2000/svg" width="14.239" height="18.116" viewBox="0 0 14.239 18.116"><defs><style>.a{fill:#353e5a;}</style></defs><path class="a" d="M45.573,1.856A6.947,6.947,0,0,0,40.714,0,7.638,7.638,0,0,0,35.08,2.172a6.418,6.418,0,0,0-1.9,4.449c0,2.017.843,3.564,2.256,4.14a.747.747,0,0,0,.284.058.631.631,0,0,0,.616-.508c.048-.179.158-.622.206-.814a.764.764,0,0,0-.2-.826,2.633,2.633,0,0,1-.6-1.8,4.528,4.528,0,0,1,4.695-4.558c2.42,0,3.923,1.375,3.923,3.589a7.457,7.457,0,0,1-.847,3.643A2.506,2.506,0,0,1,41.437,11a1.374,1.374,0,0,1-1.093-.5,1.257,1.257,0,0,1-.22-1.092c.108-.457.255-.933.4-1.393a8.622,8.622,0,0,0,.505-2.269,1.647,1.647,0,0,0-1.658-1.812c-1.26,0-2.247,1.28-2.247,2.914a4.333,4.333,0,0,0,.309,1.631c-.159.673-1.1,4.672-1.281,5.426-.1.44-.727,3.917.3,4.194,1.159.311,2.2-3.075,2.3-3.457.085-.311.385-1.488.568-2.211a3.5,3.5,0,0,0,2.338.9,5.213,5.213,0,0,0,4.186-2.094A8.407,8.407,0,0,0,47.419,6.1,5.928,5.928,0,0,0,45.573,1.856Z" transform="translate(-33.181)"/></svg>