<svg xmlns="http://www.w3.org/2000/svg" width="217.364" height="201.164" viewBox="0 0 217.364 201.164"><defs><style>.a{fill:#42a1ff;opacity:0.5;}.b{fill:#9c95ff;}.c{fill:#4fdc6f;}.d{fill:#f37c6a;}</style></defs><g transform="matrix(0.966, -0.259, 0.259, 0.966, -409.203, -993.586)"><path class="a" d="M77.625,134.18a2.218,2.218,0,1,1,2.218,2.219A2.218,2.218,0,0,1,77.625,134.18Zm-15.525,0a2.218,2.218,0,1,1,2.218,2.219A2.218,2.218,0,0,1,62.1,134.18Zm-15.524,0a2.218,2.218,0,1,1,2.218,2.219A2.218,2.218,0,0,1,46.575,134.18Zm-15.525,0a2.218,2.218,0,1,1,2.218,2.219A2.218,2.218,0,0,1,31.05,134.18Zm-15.524,0a2.218,2.218,0,1,1,2.218,2.219A2.217,2.217,0,0,1,15.525,134.18ZM93.15,118.655a2.218,2.218,0,1,1,2.219,2.218A2.218,2.218,0,0,1,93.15,118.655Zm-15.524,0a2.218,2.218,0,1,1,2.218,2.218A2.218,2.218,0,0,1,77.625,118.655Zm-15.525,0a2.218,2.218,0,1,1,2.218,2.218A2.218,2.218,0,0,1,62.1,118.655Zm-15.524,0a2.218,2.218,0,1,1,2.218,2.218A2.218,2.218,0,0,1,46.575,118.655Zm-15.525,0a2.218,2.218,0,1,1,2.218,2.218A2.218,2.218,0,0,1,31.05,118.655Zm-15.524,0a2.218,2.218,0,1,1,2.218,2.218A2.217,2.217,0,0,1,15.525,118.655ZM170.775,103.13a2.218,2.218,0,1,1,2.218,2.219A2.218,2.218,0,0,1,170.775,103.13Zm-15.524,0a2.218,2.218,0,1,1,2.218,2.219A2.217,2.217,0,0,1,155.25,103.13Zm-15.525,0a2.218,2.218,0,1,1,2.218,2.219A2.218,2.218,0,0,1,139.725,103.13Zm-15.525,0a2.218,2.218,0,1,1,2.219,2.219A2.218,2.218,0,0,1,124.2,103.13Zm-15.524,0a2.218,2.218,0,1,1,2.218,2.219A2.218,2.218,0,0,1,108.675,103.13Zm-15.525,0a2.218,2.218,0,1,1,2.219,2.219A2.218,2.218,0,0,1,93.15,103.13Zm-15.524,0a2.218,2.218,0,1,1,2.218,2.219A2.218,2.218,0,0,1,77.625,103.13Zm-15.525,0a2.218,2.218,0,1,1,2.218,2.219A2.218,2.218,0,0,1,62.1,103.13Zm-15.524,0a2.218,2.218,0,1,1,2.218,2.219A2.218,2.218,0,0,1,46.575,103.13Zm-15.525,0a2.218,2.218,0,1,1,2.218,2.219A2.218,2.218,0,0,1,31.05,103.13Zm-15.524,0a2.218,2.218,0,1,1,2.218,2.219A2.217,2.217,0,0,1,15.525,103.13ZM186.3,87.606a2.218,2.218,0,1,1,2.218,2.218A2.217,2.217,0,0,1,186.3,87.606Zm-15.525,0a2.218,2.218,0,1,1,2.218,2.218A2.217,2.217,0,0,1,170.775,87.606Zm-15.524,0a2.218,2.218,0,1,1,2.218,2.218A2.217,2.217,0,0,1,155.25,87.606Zm-15.525,0a2.218,2.218,0,1,1,2.218,2.218A2.217,2.217,0,0,1,139.725,87.606Zm-15.525,0a2.218,2.218,0,1,1,2.219,2.218A2.217,2.217,0,0,1,124.2,87.606Zm-15.524,0a2.218,2.218,0,1,1,2.218,2.218A2.217,2.217,0,0,1,108.675,87.606Zm-15.525,0a2.218,2.218,0,1,1,2.219,2.218A2.217,2.217,0,0,1,93.15,87.606Zm-15.524,0a2.218,2.218,0,1,1,2.218,2.218A2.217,2.217,0,0,1,77.625,87.606Zm-15.525,0a2.218,2.218,0,1,1,2.218,2.218A2.217,2.217,0,0,1,62.1,87.606Zm-15.524,0a2.218,2.218,0,1,1,2.218,2.218A2.217,2.217,0,0,1,46.575,87.606Zm-15.525,0a2.218,2.218,0,1,1,2.218,2.218A2.217,2.217,0,0,1,31.05,87.606Zm-15.524,0a2.218,2.218,0,1,1,2.218,2.218A2.217,2.217,0,0,1,15.525,87.606ZM186.3,72.08a2.218,2.218,0,1,1,2.218,2.218A2.218,2.218,0,0,1,186.3,72.08Zm-15.525,0a2.218,2.218,0,1,1,2.218,2.218A2.218,2.218,0,0,1,170.775,72.08Zm-15.524,0a2.218,2.218,0,1,1,2.218,2.218A2.217,2.217,0,0,1,155.25,72.08Zm-15.525,0a2.218,2.218,0,1,1,2.218,2.218A2.218,2.218,0,0,1,139.725,72.08Zm-15.525,0a2.218,2.218,0,1,1,2.219,2.218A2.218,2.218,0,0,1,124.2,72.08Zm-15.524,0a2.218,2.218,0,1,1,2.218,2.218A2.218,2.218,0,0,1,108.675,72.08Zm-15.525,0A2.218,2.218,0,1,1,95.368,74.3,2.218,2.218,0,0,1,93.15,72.08Zm-15.524,0A2.218,2.218,0,1,1,79.843,74.3,2.218,2.218,0,0,1,77.625,72.08Zm-15.525,0A2.218,2.218,0,1,1,64.317,74.3,2.218,2.218,0,0,1,62.1,72.08Zm-15.524,0A2.218,2.218,0,1,1,48.793,74.3,2.218,2.218,0,0,1,46.575,72.08Zm-15.525,0A2.218,2.218,0,1,1,33.268,74.3,2.218,2.218,0,0,1,31.05,72.08Zm-15.524,0A2.218,2.218,0,1,1,17.743,74.3,2.217,2.217,0,0,1,15.525,72.08ZM0,72.08A2.218,2.218,0,1,1,2.218,74.3,2.218,2.218,0,0,1,0,72.08ZM186.3,56.556a2.218,2.218,0,1,1,2.218,2.218A2.218,2.218,0,0,1,186.3,56.556Zm-15.525,0a2.218,2.218,0,1,1,2.218,2.218A2.218,2.218,0,0,1,170.775,56.556Zm-15.524,0a2.218,2.218,0,1,1,2.218,2.218A2.217,2.217,0,0,1,155.25,56.556Zm-15.525,0a2.218,2.218,0,1,1,2.218,2.218A2.218,2.218,0,0,1,139.725,56.556Zm-15.525,0a2.218,2.218,0,1,1,2.219,2.218A2.218,2.218,0,0,1,124.2,56.556Zm-15.524,0a2.218,2.218,0,1,1,2.218,2.218A2.218,2.218,0,0,1,108.675,56.556Zm-15.525,0a2.218,2.218,0,1,1,2.219,2.218A2.218,2.218,0,0,1,93.15,56.556Zm-15.524,0a2.218,2.218,0,1,1,2.218,2.218A2.218,2.218,0,0,1,77.625,56.556Zm-15.525,0a2.218,2.218,0,1,1,2.218,2.218A2.218,2.218,0,0,1,62.1,56.556Zm-15.524,0a2.218,2.218,0,1,1,2.218,2.218A2.218,2.218,0,0,1,46.575,56.556Zm-15.525,0a2.218,2.218,0,1,1,2.218,2.218A2.218,2.218,0,0,1,31.05,56.556Zm-15.524,0a2.218,2.218,0,1,1,2.218,2.218A2.217,2.217,0,0,1,15.525,56.556Zm186.3-15.525a2.218,2.218,0,1,1,2.218,2.218A2.218,2.218,0,0,1,201.825,41.03Zm-15.524,0a2.218,2.218,0,1,1,2.218,2.218A2.218,2.218,0,0,1,186.3,41.03Zm-15.525,0a2.218,2.218,0,1,1,2.218,2.218A2.218,2.218,0,0,1,170.775,41.03Zm-15.524,0a2.218,2.218,0,1,1,2.218,2.218A2.217,2.217,0,0,1,155.25,41.03Zm-15.525,0a2.218,2.218,0,1,1,2.218,2.218A2.218,2.218,0,0,1,139.725,41.03Zm-15.525,0a2.218,2.218,0,1,1,2.219,2.218A2.218,2.218,0,0,1,124.2,41.03Zm-15.524,0a2.218,2.218,0,1,1,2.218,2.218A2.218,2.218,0,0,1,108.675,41.03Zm-15.525,0a2.218,2.218,0,1,1,2.219,2.218A2.218,2.218,0,0,1,93.15,41.03Zm-15.524,0a2.218,2.218,0,1,1,2.218,2.218A2.218,2.218,0,0,1,77.625,41.03Zm-15.525,0a2.218,2.218,0,1,1,2.218,2.218A2.218,2.218,0,0,1,62.1,41.03Zm-15.524,0a2.218,2.218,0,1,1,2.218,2.218A2.218,2.218,0,0,1,46.575,41.03Zm-15.525,0a2.218,2.218,0,1,1,2.218,2.218A2.218,2.218,0,0,1,31.05,41.03Zm-15.524,0a2.218,2.218,0,1,1,2.218,2.218A2.217,2.217,0,0,1,15.525,41.03Zm186.3-15.524a2.218,2.218,0,1,1,2.218,2.218A2.218,2.218,0,0,1,201.825,25.506Zm-15.524,0a2.218,2.218,0,1,1,2.218,2.218A2.218,2.218,0,0,1,186.3,25.506Zm-15.525,0a2.218,2.218,0,1,1,2.218,2.218A2.218,2.218,0,0,1,170.775,25.506Zm-15.524,0a2.218,2.218,0,1,1,2.218,2.218A2.217,2.217,0,0,1,155.25,25.506Zm-15.525,0a2.218,2.218,0,1,1,2.218,2.218A2.218,2.218,0,0,1,139.725,25.506Zm-15.525,0a2.218,2.218,0,1,1,2.219,2.218A2.218,2.218,0,0,1,124.2,25.506Zm-15.524,0a2.218,2.218,0,1,1,2.218,2.218A2.218,2.218,0,0,1,108.675,25.506Zm-15.525,0a2.218,2.218,0,1,1,2.219,2.218A2.218,2.218,0,0,1,93.15,25.506Zm-15.524,0a2.218,2.218,0,1,1,2.218,2.218A2.218,2.218,0,0,1,77.625,25.506Zm-15.525,0a2.218,2.218,0,1,1,2.218,2.218A2.218,2.218,0,0,1,62.1,25.506Zm-15.524,0a2.218,2.218,0,1,1,2.218,2.218A2.218,2.218,0,0,1,46.575,25.506Zm31.05-11.09a2.218,2.218,0,1,1,2.218,2.219A2.218,2.218,0,0,1,77.625,14.416ZM186.3,9.98a2.218,2.218,0,1,1,2.218,2.218A2.218,2.218,0,0,1,186.3,9.98Zm-15.525,0a2.218,2.218,0,1,1,2.218,2.218A2.218,2.218,0,0,1,170.775,9.98Zm-15.524,0a2.218,2.218,0,1,1,2.218,2.218A2.217,2.217,0,0,1,155.25,9.98Zm-15.525,0a2.218,2.218,0,1,1,2.218,2.218A2.218,2.218,0,0,1,139.725,9.98Zm-15.525,0a2.218,2.218,0,1,1,2.219,2.218A2.218,2.218,0,0,1,124.2,9.98Zm-15.524,0a2.218,2.218,0,1,1,2.218,2.218A2.218,2.218,0,0,1,108.675,9.98Zm-15.525,0A2.218,2.218,0,1,1,95.368,12.2,2.218,2.218,0,0,1,93.15,9.98Zm-31.05,0A2.218,2.218,0,1,1,64.317,12.2,2.218,2.218,0,0,1,62.1,9.98ZM77.625,2.218a2.218,2.218,0,1,1,2.218,2.218A2.218,2.218,0,0,1,77.625,2.218Z" transform="translate(149.584 1068.717) rotate(20)"/><path class="b" d="M451.282,2192.076a17.273,17.273,0,1,1,17.273-17.273A17.271,17.271,0,0,1,451.282,2192.076Zm0-26.212a8.637,8.637,0,1,0,8.637,8.636A8.64,8.64,0,0,0,451.282,2165.864Z" transform="translate(-321.289 -924.978)"/><path class="c" d="M337,2139.157l5.13,15.788a5.962,5.962,0,0,1-6.939,7.669l-16.846-3.67a5.964,5.964,0,0,1-3.014-9.971l11.711-12.116A5.963,5.963,0,0,1,337,2139.157Z" transform="translate(-129.08 -973.716)"/><ellipse class="d" cx="8.637" cy="8.637" rx="8.637" ry="8.637" transform="translate(212.042 1234.641)"/></g></svg>