<svg xmlns="http://www.w3.org/2000/svg" xmlns:xlink="http://www.w3.org/1999/xlink" width="191.751" height="201.876" viewBox="0 0 191.751 201.876"><defs><style>.a{fill:url(#a);}.b{fill:#f7cf06;}.c{fill:#f37c6a;}.d{fill:url(#b);}.e{fill:#cfe0ff;opacity:0.5;}</style><linearGradient id="a" x1="0.435" y1="0.27" x2="0.789" y2="0.775" gradientUnits="objectBoundingBox"><stop offset="0" stop-color="#4fceff"/><stop offset="1" stop-color="#42a1ff"/></linearGradient><linearGradient id="b" x1="0.5" y1="0.079" x2="0.555" y2="0.659" xlink:href="#a"/></defs><g transform="translate(-1174.009 -1401.051)"><path class="a" d="M749.535,2589.374c16.092,2.119,31.156-6.672,37.036-19.4,10.747-26.356-12.191-36.934-30.221-17.483-14.269,15.393-27.771,6.933-32.635,19.7C719.523,2583.191,733.44,2587.258,749.535,2589.374Z" transform="translate(528.746 -1126.693)"/><path class="b" d="M639.537,2606.04a10.36,10.36,0,1,1,10.36-10.361A10.361,10.361,0,0,1,639.537,2606.04Zm0-15.722a5.18,5.18,0,1,0,5.18,5.18A5.18,5.18,0,0,0,639.537,2590.318Z" transform="translate(581.317 -1144.913)"/><ellipse class="c" cx="5.18" cy="5.18" rx="5.18" ry="5.18" transform="translate(1192.135 1401.051)"/><path class="d" d="M698.209,2653.189c-12.163-13.872-2.233-39.446,20.027-60.29,33.829-31.677,111.817-32.741,118.139-11.114,11.878,40.639-57.482,37.191-84.134,53.858S710.37,2667.059,698.209,2653.189Z" transform="translate(481.047 -1087.581)"/><path class="e" d="M56.781,98.15A1.622,1.622,0,1,1,58.4,99.772,1.622,1.622,0,0,1,56.781,98.15Zm-11.356,0a1.623,1.623,0,1,1,1.622,1.623A1.622,1.622,0,0,1,45.425,98.15Zm-11.356,0a1.622,1.622,0,1,1,1.622,1.623A1.622,1.622,0,0,1,34.069,98.15Zm-11.357,0a1.623,1.623,0,1,1,1.622,1.623A1.622,1.622,0,0,1,22.712,98.15Zm-11.356,0a1.622,1.622,0,1,1,1.622,1.623A1.622,1.622,0,0,1,11.357,98.15Zm56.78-11.356a1.623,1.623,0,1,1,1.623,1.622A1.622,1.622,0,0,1,68.137,86.794Zm-11.356,0A1.622,1.622,0,1,1,58.4,88.416,1.622,1.622,0,0,1,56.781,86.794Zm-11.356,0a1.623,1.623,0,1,1,1.622,1.622A1.622,1.622,0,0,1,45.425,86.794Zm-11.356,0a1.622,1.622,0,1,1,1.622,1.622A1.622,1.622,0,0,1,34.069,86.794Zm-11.357,0a1.623,1.623,0,1,1,1.622,1.622A1.622,1.622,0,0,1,22.712,86.794Zm-11.356,0a1.622,1.622,0,1,1,1.622,1.622A1.622,1.622,0,0,1,11.357,86.794ZM124.918,75.437a1.623,1.623,0,1,1,1.622,1.623A1.622,1.622,0,0,1,124.918,75.437Zm-11.356,0a1.622,1.622,0,1,1,1.622,1.623A1.622,1.622,0,0,1,113.562,75.437Zm-11.356,0a1.622,1.622,0,1,1,1.622,1.623A1.622,1.622,0,0,1,102.206,75.437Zm-11.357,0a1.623,1.623,0,1,1,1.623,1.623A1.622,1.622,0,0,1,90.849,75.437Zm-11.356,0a1.622,1.622,0,1,1,1.622,1.623A1.622,1.622,0,0,1,79.493,75.437Zm-11.356,0A1.623,1.623,0,1,1,69.76,77.06,1.622,1.622,0,0,1,68.137,75.437Zm-11.356,0A1.622,1.622,0,1,1,58.4,77.06,1.622,1.622,0,0,1,56.781,75.437Zm-11.356,0a1.623,1.623,0,1,1,1.622,1.623A1.622,1.622,0,0,1,45.425,75.437Zm-11.356,0a1.622,1.622,0,1,1,1.622,1.623A1.622,1.622,0,0,1,34.069,75.437Zm-11.357,0a1.623,1.623,0,1,1,1.622,1.623A1.622,1.622,0,0,1,22.712,75.437Zm-11.356,0a1.622,1.622,0,1,1,1.622,1.623A1.622,1.622,0,0,1,11.357,75.437ZM136.274,64.081A1.622,1.622,0,1,1,137.9,65.7,1.622,1.622,0,0,1,136.274,64.081Zm-11.356,0A1.623,1.623,0,1,1,126.54,65.7,1.622,1.622,0,0,1,124.918,64.081Zm-11.356,0a1.622,1.622,0,1,1,1.622,1.622A1.621,1.621,0,0,1,113.562,64.081Zm-11.356,0a1.622,1.622,0,1,1,1.622,1.622A1.622,1.622,0,0,1,102.206,64.081Zm-11.357,0A1.623,1.623,0,1,1,92.472,65.7,1.622,1.622,0,0,1,90.849,64.081Zm-11.356,0A1.622,1.622,0,1,1,81.115,65.7,1.622,1.622,0,0,1,79.493,64.081Zm-11.356,0A1.623,1.623,0,1,1,69.76,65.7,1.622,1.622,0,0,1,68.137,64.081Zm-11.356,0A1.622,1.622,0,1,1,58.4,65.7,1.622,1.622,0,0,1,56.781,64.081Zm-11.356,0A1.623,1.623,0,1,1,47.047,65.7,1.622,1.622,0,0,1,45.425,64.081Zm-11.356,0A1.622,1.622,0,1,1,35.691,65.7,1.622,1.622,0,0,1,34.069,64.081Zm-11.357,0A1.623,1.623,0,1,1,24.334,65.7,1.622,1.622,0,0,1,22.712,64.081Zm-11.356,0A1.622,1.622,0,1,1,12.979,65.7,1.621,1.621,0,0,1,11.357,64.081ZM136.274,52.725a1.622,1.622,0,1,1,1.622,1.622A1.622,1.622,0,0,1,136.274,52.725Zm-11.356,0a1.623,1.623,0,1,1,1.622,1.622A1.622,1.622,0,0,1,124.918,52.725Zm-11.356,0a1.622,1.622,0,1,1,1.622,1.622A1.622,1.622,0,0,1,113.562,52.725Zm-11.356,0a1.622,1.622,0,1,1,1.622,1.622A1.622,1.622,0,0,1,102.206,52.725Zm-11.357,0a1.623,1.623,0,1,1,1.623,1.622A1.622,1.622,0,0,1,90.849,52.725Zm-11.356,0a1.622,1.622,0,1,1,1.622,1.622A1.622,1.622,0,0,1,79.493,52.725Zm-11.356,0a1.623,1.623,0,1,1,1.623,1.622A1.622,1.622,0,0,1,68.137,52.725Zm-11.356,0A1.622,1.622,0,1,1,58.4,54.347,1.622,1.622,0,0,1,56.781,52.725Zm-11.356,0a1.623,1.623,0,1,1,1.622,1.622A1.622,1.622,0,0,1,45.425,52.725Zm-11.356,0a1.622,1.622,0,1,1,1.622,1.622A1.622,1.622,0,0,1,34.069,52.725Zm-11.357,0a1.623,1.623,0,1,1,1.622,1.622A1.622,1.622,0,0,1,22.712,52.725Zm-11.356,0a1.622,1.622,0,1,1,1.622,1.622A1.622,1.622,0,0,1,11.357,52.725ZM0,52.725a1.622,1.622,0,1,1,1.622,1.622A1.622,1.622,0,0,1,0,52.725ZM136.274,41.369a1.622,1.622,0,1,1,1.622,1.622A1.622,1.622,0,0,1,136.274,41.369Zm-11.356,0a1.623,1.623,0,1,1,1.622,1.622A1.622,1.622,0,0,1,124.918,41.369Zm-11.356,0a1.622,1.622,0,1,1,1.622,1.622A1.622,1.622,0,0,1,113.562,41.369Zm-11.356,0a1.622,1.622,0,1,1,1.622,1.622A1.622,1.622,0,0,1,102.206,41.369Zm-11.357,0a1.623,1.623,0,1,1,1.623,1.622A1.623,1.623,0,0,1,90.849,41.369Zm-11.356,0a1.622,1.622,0,1,1,1.622,1.622A1.622,1.622,0,0,1,79.493,41.369Zm-11.356,0a1.623,1.623,0,1,1,1.623,1.622A1.623,1.623,0,0,1,68.137,41.369Zm-11.356,0A1.622,1.622,0,1,1,58.4,42.991,1.622,1.622,0,0,1,56.781,41.369Zm-11.356,0a1.623,1.623,0,1,1,1.622,1.622A1.622,1.622,0,0,1,45.425,41.369Zm-11.356,0a1.622,1.622,0,1,1,1.622,1.622A1.622,1.622,0,0,1,34.069,41.369Zm-11.357,0a1.623,1.623,0,1,1,1.622,1.622A1.622,1.622,0,0,1,22.712,41.369Zm-11.356,0a1.622,1.622,0,1,1,1.622,1.622A1.622,1.622,0,0,1,11.357,41.369ZM147.63,30.013a1.623,1.623,0,1,1,1.622,1.622A1.622,1.622,0,0,1,147.63,30.013Zm-11.356,0a1.622,1.622,0,1,1,1.622,1.622A1.622,1.622,0,0,1,136.274,30.013Zm-11.356,0a1.623,1.623,0,1,1,1.622,1.622A1.622,1.622,0,0,1,124.918,30.013Zm-11.356,0a1.622,1.622,0,1,1,1.622,1.622A1.622,1.622,0,0,1,113.562,30.013Zm-11.356,0a1.622,1.622,0,1,1,1.622,1.622A1.622,1.622,0,0,1,102.206,30.013Zm-11.357,0a1.623,1.623,0,1,1,1.623,1.622A1.622,1.622,0,0,1,90.849,30.013Zm-11.356,0a1.622,1.622,0,1,1,1.622,1.622A1.622,1.622,0,0,1,79.493,30.013Zm-11.356,0a1.623,1.623,0,1,1,1.623,1.622A1.622,1.622,0,0,1,68.137,30.013Zm-11.356,0A1.622,1.622,0,1,1,58.4,31.635,1.622,1.622,0,0,1,56.781,30.013Zm-11.356,0a1.623,1.623,0,1,1,1.622,1.622A1.622,1.622,0,0,1,45.425,30.013Zm-11.356,0a1.622,1.622,0,1,1,1.622,1.622A1.622,1.622,0,0,1,34.069,30.013Zm-11.357,0a1.623,1.623,0,1,1,1.622,1.622A1.622,1.622,0,0,1,22.712,30.013Zm-11.356,0a1.622,1.622,0,1,1,1.622,1.622A1.622,1.622,0,0,1,11.357,30.013ZM147.63,18.657a1.623,1.623,0,1,1,1.622,1.622A1.622,1.622,0,0,1,147.63,18.657Zm-11.356,0a1.622,1.622,0,1,1,1.622,1.622A1.622,1.622,0,0,1,136.274,18.657Zm-11.356,0a1.623,1.623,0,1,1,1.622,1.622A1.622,1.622,0,0,1,124.918,18.657Zm-11.356,0a1.622,1.622,0,1,1,1.622,1.622A1.622,1.622,0,0,1,113.562,18.657Zm-11.356,0a1.622,1.622,0,1,1,1.622,1.622A1.622,1.622,0,0,1,102.206,18.657Zm-11.357,0a1.623,1.623,0,1,1,1.623,1.622A1.623,1.623,0,0,1,90.849,18.657Zm-11.356,0a1.622,1.622,0,1,1,1.622,1.622A1.622,1.622,0,0,1,79.493,18.657Zm-11.356,0a1.623,1.623,0,1,1,1.623,1.622A1.623,1.623,0,0,1,68.137,18.657Zm-11.356,0A1.622,1.622,0,1,1,58.4,20.279,1.622,1.622,0,0,1,56.781,18.657Zm-11.356,0a1.623,1.623,0,1,1,1.622,1.622A1.622,1.622,0,0,1,45.425,18.657Zm-11.356,0a1.622,1.622,0,1,1,1.622,1.622A1.622,1.622,0,0,1,34.069,18.657Zm22.712-8.112A1.622,1.622,0,1,1,58.4,12.168,1.622,1.622,0,0,1,56.781,10.545ZM136.274,7.3A1.622,1.622,0,1,1,137.9,8.923,1.622,1.622,0,0,1,136.274,7.3Zm-11.356,0a1.623,1.623,0,1,1,1.622,1.622A1.622,1.622,0,0,1,124.918,7.3Zm-11.356,0a1.622,1.622,0,1,1,1.622,1.622A1.622,1.622,0,0,1,113.562,7.3Zm-11.356,0a1.622,1.622,0,1,1,1.622,1.622A1.622,1.622,0,0,1,102.206,7.3Zm-11.357,0a1.623,1.623,0,1,1,1.623,1.622A1.622,1.622,0,0,1,90.849,7.3Zm-11.356,0a1.622,1.622,0,1,1,1.622,1.622A1.622,1.622,0,0,1,79.493,7.3Zm-11.356,0A1.623,1.623,0,1,1,69.76,8.923,1.622,1.622,0,0,1,68.137,7.3Zm-22.712,0a1.623,1.623,0,1,1,1.622,1.622A1.622,1.622,0,0,1,45.425,7.3ZM56.781,1.622A1.622,1.622,0,1,1,58.4,3.244,1.622,1.622,0,0,1,56.781,1.622Z" transform="translate(1202.468 1504.126) rotate(-8)"/></g></svg>