<svg xmlns="http://www.w3.org/2000/svg" width="1239.458" height="354.561" viewBox="0 0 1239.458 354.561"><defs><style>.a,.b,.d,.f,.g,.i{fill:none;stroke-miterlimit:10;}.a{stroke:#766de8;}.a,.b,.f,.g{stroke-width:2px;}.b,.i{stroke:#4fdc6f;}.c{fill:#4fdc6f;}.d{stroke:#f27c6a;}.d,.i{stroke-width:1.312px;}.e{fill:#766de8;}.f{stroke:#f6ce08;}.g{stroke:#4dcdfe;}.h{fill:#f27c6a;}</style></defs><g transform="translate(-96.617 -1157.152)"><g transform="translate(17.756 119.244)"><path class="a" d="M10.718,5.359A5.359,5.359,0,1,1,5.359,0,5.359,5.359,0,0,1,10.718,5.359Z" transform="translate(263 1380.756) rotate(180)"/><path class="b" d="M9.32,4.66A4.66,4.66,0,1,1,4.66,0,4.66,4.66,0,0,1,9.32,4.66Z" transform="translate(325 1070.756) rotate(180)"/><path class="c" d="M6.091.272.734,3.806A1.635,1.635,0,0,0,.9,6.632L6.642,9.5A1.634,1.634,0,0,0,9.005,7.945L8.623,1.539A1.635,1.635,0,0,0,6.091.272" transform="translate(549.421 1392.469) rotate(180)"/><path class="d" d="M6.411.287.773,4.007A1.72,1.72,0,0,0,.95,6.981L6.991,10A1.72,1.72,0,0,0,9.478,8.363l-.4-6.743A1.721,1.721,0,0,0,6.411.287Z" transform="translate(89 1245.756) rotate(180)"/></g><g transform="translate(1.756 133.244)"><path class="e" d="M8.721,5.04A4.385,4.385,0,1,1,5.04.05,4.385,4.385,0,0,1,8.721,5.04" transform="translate(1316.152 1023.908)"/><path class="f" d="M10.718,5.359A5.359,5.359,0,1,1,5.359,0,5.359,5.359,0,0,1,10.718,5.359Z" transform="translate(1046.214 1344.256)"/><path class="g" d="M9.32,4.66A4.66,4.66,0,1,1,4.66,0,4.66,4.66,0,0,1,9.32,4.66Z" transform="translate(1324 1289.756)"/><path class="h" d="M6.091.272.734,3.806A1.635,1.635,0,0,0,.9,6.632L6.642,9.5A1.634,1.634,0,0,0,9.005,7.945L8.623,1.539A1.635,1.635,0,0,0,6.091.272" transform="translate(1072 1038.756)"/><path class="i" d="M6.411.287.773,4.007A1.72,1.72,0,0,0,.95,6.981L6.991,10A1.72,1.72,0,0,0,9.478,8.363l-.4-6.743A1.721,1.721,0,0,0,6.411.287Z" transform="translate(1239 1134.756)"/></g></g></svg>