<svg xmlns="http://www.w3.org/2000/svg" xmlns:xlink="http://www.w3.org/1999/xlink" width="568.63" height="354.211" viewBox="0 0 568.63 354.211"><defs><style>.a{fill:#cfe0ff;}.b{fill:#1363fa;}.c{fill:#5690ff;}.d{fill:url(#a);}.e{fill:url(#b);}.f{fill:url(#c);}.g{fill:url(#d);}.h{fill:#fff;}.i{fill:url(#e);}.j{fill:url(#f);}.k{fill:url(#g);}.l{fill:#387dff;}.m{fill:url(#j);}.n{opacity:0.47;}.n,.o{fill:url(#m);}.p{fill:url(#o);}.q{fill:#57ecff;}.r{fill:#4cc7fe;}.s{fill:#43a5ff;}.t{fill:url(#p);}.u{fill:#57f07b;}.v{fill:#38df75;}.w{fill:#18ce70;}.x{fill:url(#q);}.y{fill:#fe9f36;}.z{fill:#f6855d;}.aa{fill:#f17675;}.ab{fill:url(#r);}.ac{fill:#0052e0;}.ad,.au{fill:#350f2e;}.ad,.ai,.bg{opacity:0.3;}.ae{fill:#b9cfff;}.ae,.bf{stroke:rgba(0,0,0,0);}.af{fill:#cddefd;}.ag{fill:url(#u);}.ah{fill:#df8d7c;}.ai{fill:#8e4654;}.aj{fill:#893d5a;}.ak{fill:#ff703e;}.al{fill:url(#v);}.am{fill:#ffb399;}.an{fill:url(#w);}.ao{fill:#e86e43;}.ap{fill:#b0525e;}.aq,.ax{fill:#f8b199;}.ar{fill:url(#x);}.as{fill:#ea947d;}.at{fill:url(#y);}.av,.ax,.ay{opacity:0.5;}.aw{fill:#aa3b21;}.ay{fill:#dc532a;}.az{fill:url(#z);}.ba{fill:url(#aa);}.bb{fill:#33142d;}.bc{fill:url(#ab);}.bd{fill:url(#ac);}.be{fill:#7f2918;}.bf{fill:#6861e2;}.bg{fill:#191818;}.bh{filter:url(#s);}.bi{filter:url(#k);}.bj{filter:url(#h);}</style><linearGradient id="a" x1="0.5" x2="0.5" y2="0.961" gradientUnits="objectBoundingBox"><stop offset="0" stop-color="#5690ff"/><stop offset="1" stop-color="#0052e0"/></linearGradient><linearGradient id="b" x1="0.157" y1="-0.002" x2="0.849" y2="1.01" gradientUnits="objectBoundingBox"><stop offset="0" stop-color="#fff"/><stop offset="1" stop-color="#bed5ff"/></linearGradient><linearGradient id="c" x1="-0.113" y1="0.324" x2="3.443" y2="1.345" gradientUnits="objectBoundingBox"><stop offset="0" stop-color="#a7d7ff"/><stop offset="1" stop-color="#5ea4ff"/></linearGradient><linearGradient id="d" x1="0.769" y1="1.2" x2="0.231" y2="-0.2" gradientUnits="objectBoundingBox"><stop offset="0" stop-color="#16cd6f"/><stop offset="1" stop-color="#58f17b"/></linearGradient><linearGradient id="e" x1="0.828" y1="-0.24" x2="0.24" y2="1.095" gradientUnits="objectBoundingBox"><stop offset="0" stop-color="#5690ff"/><stop offset="1" stop-color="#387dff"/></linearGradient><linearGradient id="f" x1="0.554" y1="0.368" x2="-0.909" y2="3.688" xlink:href="#e"/><linearGradient id="g" x1="0.5" y1="1" x2="0.5" gradientUnits="objectBoundingBox"><stop offset="0" stop-color="#bed5ff"/><stop offset="1" stop-color="#fff"/></linearGradient><filter id="h" x="233.268" y="125.464" width="85.738" height="85.738" filterUnits="userSpaceOnUse"><feOffset dy="3" input="SourceAlpha"/><feGaussianBlur stdDeviation="3" result="i"/><feFlood flood-opacity="0.161"/><feComposite operator="in" in2="i"/><feComposite in="SourceGraphic"/></filter><linearGradient id="j" x1="0.5" y1="1" x2="0.5" y2="0" xlink:href="#d"/><filter id="k" x="258.39" y="135.055" width="85.738" height="85.738" filterUnits="userSpaceOnUse"><feOffset dy="3" input="SourceAlpha"/><feGaussianBlur stdDeviation="3" result="l"/><feFlood flood-opacity="0.161"/><feComposite operator="in" in2="l"/><feComposite in="SourceGraphic"/></filter><linearGradient id="m" x1="0" y1="0.5" x2="1" y2="0.5" xlink:href="#b"/><linearGradient id="o" x1="0.578" y1="-7.749" x2="1.587" y2="-7.028" xlink:href="#g"/><linearGradient id="p" x1="-0.089" y1="12.449" x2="0.921" y2="13.17" xlink:href="#g"/><linearGradient id="q" x1="3.317" y1="-25.346" x2="4.327" y2="-24.625" xlink:href="#g"/><linearGradient id="r" x1="0.358" y1="0.041" x2="0.5" y2="0.781" gradientUnits="objectBoundingBox"><stop offset="0" stop-color="#e79e00"/><stop offset="1" stop-color="#f37c6a"/></linearGradient><filter id="s" x="67.455" y="128.458" width="58.819" height="57.451" filterUnits="userSpaceOnUse"><feOffset input="SourceAlpha"/><feGaussianBlur stdDeviation="2.5" result="t"/><feFlood flood-color="#ff9878" flood-opacity="0.2"/><feComposite operator="in" in2="t"/><feComposite in="SourceGraphic"/></filter><linearGradient id="u" x1="0.96" y1="0.054" x2="0.29" y2="0.613" gradientUnits="objectBoundingBox"><stop offset="0" stop-color="#ff7649"/><stop offset="1" stop-color="#b34957"/></linearGradient><linearGradient id="v" x1="0.123" y1="0" x2="0.727" y2="1" xlink:href="#u"/><linearGradient id="w" x1="-0.538" y1="0.454" x2="1.043" y2="0.454" gradientUnits="objectBoundingBox"><stop offset="0" stop-color="#f9a232"/><stop offset="1" stop-color="#df5d68"/></linearGradient><linearGradient id="x" x1="1.761" y1="1.495" x2="-0.435" y2="-0.287" gradientUnits="objectBoundingBox"><stop offset="0.005" stop-color="#f9a232"/><stop offset="1" stop-color="#df5d68"/></linearGradient><linearGradient id="y" x1="0.251" y1="0.764" x2="1" y2="0.782" gradientUnits="objectBoundingBox"><stop offset="0" stop-color="#f68e40"/><stop offset="1" stop-color="#e05c68"/></linearGradient><linearGradient id="z" x1="-0.254" x2="1.101" y2="1" gradientUnits="objectBoundingBox"><stop offset="0" stop-color="#ff7649"/><stop offset="0.472" stop-color="#b34957"/><stop offset="0.754" stop-color="#8b363b"/><stop offset="1" stop-color="#8b363b"/></linearGradient><linearGradient id="aa" x1="-0.379" y1="0.34" x2="1.185" y2="0.907" gradientUnits="objectBoundingBox"><stop offset="0" stop-color="#ff7649"/><stop offset="0.651" stop-color="#b34957"/><stop offset="0.914" stop-color="#8b363b"/><stop offset="1" stop-color="#8b363b"/></linearGradient><linearGradient id="ab" x1="-0.263" x2="1.09" y2="1" gradientUnits="objectBoundingBox"><stop offset="0" stop-color="#f2754c"/><stop offset="1" stop-color="#b34958"/></linearGradient><linearGradient id="ac" x1="0.135" y1="0" x2="1" y2="1.343" xlink:href="#ab"/></defs><g transform="translate(-792.899 -455.147)"><path class="a" d="M31.039,9.475S-66.648,27.564,84.579,31.55s275.213-6.132,272.4-19.622S147.512-5.242,31.039,9.475Z" transform="matrix(1, 0.017, -0.017, 1, 806.099, 769.839)"/><g transform="translate(792.899 493.698)"><g transform="translate(24.253 29.207)"><path class="b" d="M261.51,172.5H213.67V156.01a7.7,7.7,0,0,1,7.7-7.7h32.437a7.7,7.7,0,0,1,7.7,7.7Z" transform="translate(-79.605 -148.309)"/><rect class="c" width="315.971" height="80.582" rx="11.385" transform="translate(0 15.909)"/><path class="d" d="M7.716,0H297.455a7.716,7.716,0,0,1,7.716,7.716V62.063a7.717,7.717,0,0,1-7.717,7.717H7.715A7.715,7.715,0,0,1,0,62.065V7.716A7.716,7.716,0,0,1,7.716,0Z" transform="translate(5.401 21.31)"/></g><g transform="translate(189.217 59.179)"><g transform="translate(0 0)"><rect class="e" width="125.553" height="95.06" rx="4"/><rect class="f" width="30.433" height="22.173" transform="translate(10.679 62.154)"/><g transform="translate(10.672 10.675)"><rect class="g" width="66.642" height="44.363"/><g transform="translate(25.558 14.419)"><path class="h" d="M674.177,2537.723h-3.792v3.792a1.985,1.985,0,0,1-1.986,1.984h0a1.986,1.986,0,0,1-1.986-1.984v-3.792h-3.791a1.984,1.984,0,0,1-1.986-1.984h0a1.984,1.984,0,0,1,1.986-1.986h3.791v-3.793a1.987,1.987,0,0,1,1.986-1.985h0a1.986,1.986,0,0,1,1.986,1.985v3.793h3.792a1.984,1.984,0,0,1,1.985,1.986h0A1.984,1.984,0,0,1,674.177,2537.723Z" transform="translate(-660.637 -2527.975)"/></g></g><g transform="translate(68.317 3.008)"><path class="i" d="M684.648,2545.207v7.41a1.413,1.413,0,0,0,1.414,1.412h7.407a2.819,2.819,0,0,0,2-.827l24.15-24.151a1.412,1.412,0,0,0,0-2l-7.992-7.994a1.412,1.412,0,0,0-2,0l-24.151,24.15A2.825,2.825,0,0,0,684.648,2545.207Z" transform="translate(-684.648 -2509.026)"/><path class="j" d="M721.078,2518.272l-6-6a2.823,2.823,0,0,0-4,0l-3,3a1.413,1.413,0,0,0,0,2l7.993,7.992a1.413,1.413,0,0,0,2,0l3-3A2.829,2.829,0,0,0,721.078,2518.272Z" transform="translate(-676.903 -2511.447)"/></g></g><g transform="translate(53.051 33.733)"><g class="bj" transform="matrix(1, 0, 0, 1, -242.27, -131.46)"><rect class="k" width="67.738" height="67.738" rx="7.552" transform="translate(242.27 131.46)"/></g><g transform="translate(14.349 15.76)"><path class="l" d="M152.185,2636.49l-7.092,35.736H142.82l1.653-8.126a18.424,18.424,0,0,1-6.747,6.128,19.291,19.291,0,0,1-9.227,2.2q-7.022,0-11.187-3.96t-4.167-10.707a22.982,22.982,0,0,1,2.616-11.014,19.84,19.84,0,0,1,7.231-7.715,19.526,19.526,0,0,1,10.4-2.822,15.918,15.918,0,0,1,9.71,2.754,12.381,12.381,0,0,1,4.75,7.782l2.066-10.26Zm-14.15,31.395a17.284,17.284,0,0,0,6.336-6.919,21.282,21.282,0,0,0,2.306-9.95q0-6.054-3.545-9.362t-9.881-3.306a17.048,17.048,0,0,0-9.158,2.513,17.526,17.526,0,0,0-6.369,6.919,21.065,21.065,0,0,0-2.306,9.915q0,6.062,3.545,9.365t9.95,3.307A17.04,17.04,0,0,0,138.036,2667.884Z" transform="translate(-113.145 -2636.212)"/></g></g><g transform="translate(78.173 43.325)"><g class="bi" transform="matrix(1, 0, 0, 1, -267.39, -141.06)"><rect class="m" width="67.738" height="67.738" rx="7.552" transform="translate(267.39 141.06)"/></g><g transform="translate(17.979 15.527)"><path class="h" d="M183,2663.082a40.41,40.41,0,0,1-2.276,5.111,25.687,25.687,0,0,1-3.15,4.689,16.548,16.548,0,0,1-3.955,3.43,8.718,8.718,0,0,1-4.622,1.331q-7.28,0-7.278-10.573a32.933,32.933,0,0,1,1.4-9.553,27.221,27.221,0,0,1,4.06-8.3,20.916,20.916,0,0,1,6.476-5.844,16.953,16.953,0,0,1,8.645-2.206,10.112,10.112,0,0,1,2.8.313,25.144,25.144,0,0,1,2.521.946,12.48,12.48,0,0,1,5.879-1.472l-6.3,31.924h5.109v1.78a11.466,11.466,0,0,1-3.36,1.85,11.287,11.287,0,0,1-3.85.71,4,4,0,0,1-2.9-.876,2.591,2.591,0,0,1-.875-1.855,27.9,27.9,0,0,1,.49-4.127q.489-2.871,1.469-7.281ZM171.936,2673.3a5.574,5.574,0,0,0,3.78-1.786,24.917,24.917,0,0,0,3.572-4.295,45.33,45.33,0,0,0,3.01-5.239q1.329-2.721,2.1-4.537l2.239-11.935a6.658,6.658,0,0,0-1.891-.978,8.93,8.93,0,0,0-2.519-.28,9.448,9.448,0,0,0-5.846,1.988,17.49,17.49,0,0,0-4.48,5.132,27.464,27.464,0,0,0-2.87,6.986,29.4,29.4,0,0,0-1.015,7.541,13.6,13.6,0,0,0,.876,5.481A3.085,3.085,0,0,0,171.936,2673.3Z" transform="translate(-161.717 -2640.958)"/></g></g></g><g transform="translate(118.286 0)"><path class="l" d="M343.7,2268.092a.854.854,0,0,1-.447-1.581l1.454-.891a.852.852,0,1,1,.89,1.454l-1.454.891A.835.835,0,0,1,343.7,2268.092Zm7.269-4.451a.852.852,0,0,1-.447-1.578l1.454-.891a.853.853,0,0,1,.891,1.456l-1.454.89A.855.855,0,0,1,350.967,2263.641Zm7.27-4.451a.852.852,0,0,1-.446-1.58l1.454-.888a.852.852,0,1,1,.889,1.454l-1.452.891A.87.87,0,0,1,358.237,2259.19Zm7.269-4.45a.853.853,0,0,1-.447-1.579l1.454-.892a.854.854,0,1,1,.89,1.457l-1.454.889A.832.832,0,0,1,365.506,2254.74Zm7.269-4.449a.854.854,0,0,1-.447-1.581l1.454-.89a.854.854,0,0,1,.891,1.457l-1.454.89A.863.863,0,0,1,372.775,2250.291Zm7.271-4.45a.852.852,0,0,1-.447-1.579l1.453-.891a.852.852,0,1,1,.891,1.453l-1.454.892A.857.857,0,0,1,380.046,2245.841Zm7.269-4.451a.853.853,0,0,1-.447-1.581l1.454-.889a.852.852,0,1,1,.89,1.454l-1.454.89A.844.844,0,0,1,387.315,2241.39Zm7.269-4.45a.854.854,0,0,1-.445-1.583l1.453-.888a.853.853,0,0,1,.891,1.454l-1.454.892A.852.852,0,0,1,394.583,2236.94Zm7.269-4.451a.853.853,0,0,1-.445-1.58l1.454-.889a.852.852,0,0,1,.89,1.453l-1.454.893A.875.875,0,0,1,401.853,2232.489Zm7.271-4.453a.852.852,0,0,1-.447-1.579l1.454-.889a.854.854,0,0,1,.89,1.458l-1.454.888A.854.854,0,0,1,409.123,2228.036Zm7.269-4.448a.853.853,0,0,1-.445-1.58l1.453-.89a.852.852,0,1,1,.891,1.453l-1.454.894A.852.852,0,0,1,416.392,2223.588Zm7.269-4.45a.852.852,0,0,1-.445-1.579l1.454-.891a.852.852,0,0,1,.89,1.454l-1.454.891A.839.839,0,0,1,423.661,2219.138Zm7.27-4.451a.853.853,0,0,1-.447-1.58l1.454-.891a.853.853,0,0,1,.89,1.455l-1.454.891A.852.852,0,0,1,430.931,2214.687Zm7.269-4.45a.853.853,0,0,1-.445-1.581l1.454-.889a.852.852,0,1,1,.888,1.454l-1.452.889A.842.842,0,0,1,438.2,2210.237Zm7.269-4.449a.854.854,0,0,1-.445-1.582l1.454-.889a.852.852,0,0,1,.89,1.453l-1.454.893A.866.866,0,0,1,445.469,2205.788Zm7.27-4.454a.851.851,0,0,1-.446-1.577l1.454-.889a.853.853,0,0,1,.89,1.455l-1.454.889A.837.837,0,0,1,452.74,2201.334Zm7.269-4.449a.853.853,0,0,1-.445-1.581l1.454-.888a.852.852,0,1,1,.888,1.453l-1.454.892A.837.837,0,0,1,460.009,2196.885Zm7.269-4.449a.853.853,0,0,1-.445-1.581l1.454-.891a.853.853,0,0,1,.89,1.456l-1.454.891A.867.867,0,0,1,467.277,2192.436Zm7.271-4.452a.852.852,0,0,1-.447-1.579l1.454-.891a.853.853,0,0,1,.89,1.455l-1.452.891A.853.853,0,0,1,474.548,2187.984Zm7.269-4.45a.853.853,0,0,1-.445-1.581l1.454-.889a.852.852,0,1,1,.888,1.454l-1.454.89A.853.853,0,0,1,481.817,2183.535Zm7.269-4.45a.854.854,0,0,1-.445-1.581l1.454-.891a.853.853,0,0,1,.89,1.455l-1.454.891A.86.86,0,0,1,489.086,2179.085Z" transform="translate(-342.844 -2092.14)"/><g transform="translate(0)"><g transform="translate(22.972 20.786)"><path class="l" d="M357.713,2141.569a.852.852,0,0,1-.665-.32l-.535-.654a.852.852,0,1,1,1.318-1.082l.547.672a.85.85,0,0,1-.131,1.2A.839.839,0,0,1,357.713,2141.569Z" transform="translate(-356.319 -2139.202)"/><path class="l" d="M368.142,2163.857a.852.852,0,0,1-.825-.646c-.15-.6-.31-1.2-.477-1.793a.853.853,0,0,1,1.641-.465q.258.92.489,1.845a.854.854,0,0,1-.62,1.034A.828.828,0,0,1,368.142,2163.857Zm-2.932-8.936a.854.854,0,0,1-.789-.529q-.351-.861-.728-1.707a.852.852,0,1,1,1.558-.693c.258.579.508,1.166.749,1.755a.852.852,0,0,1-.467,1.11A.819.819,0,0,1,365.21,2154.921Zm-4.178-8.423a.858.858,0,0,1-.735-.417c-.315-.533-.637-1.062-.967-1.59a.852.852,0,0,1,1.444-.9c.338.535.668,1.079.99,1.623a.856.856,0,0,1-.3,1.17A.87.87,0,0,1,361.031,2146.5Z" transform="translate(-354.29 -2136.394)"/><path class="l" d="M365.726,2161.2a.854.854,0,0,1-.847-.757l-.1-.838a.858.858,0,0,1,.737-.958.848.848,0,0,1,.954.737l.107.862a.855.855,0,0,1-.748.947A.964.964,0,0,1,365.726,2161.2Z" transform="translate(-350.366 -2125.503)"/></g><path class="l" d="M363.945,2229.05a.852.852,0,0,1-.852-.852v-1.706a.852.852,0,0,1,1.7,0v1.706A.853.853,0,0,1,363.945,2229.05Zm0-8.525a.851.851,0,0,1-.852-.852v-1.7a.852.852,0,0,1,1.7,0v1.7A.852.852,0,0,1,363.945,2220.525Zm0-8.522a.852.852,0,0,1-.852-.852v-1.706a.852.852,0,0,1,1.7,0v1.706A.853.853,0,0,1,363.945,2212Zm0-8.524a.851.851,0,0,1-.852-.852v-1.706a.852.852,0,1,1,1.7,0v1.706A.852.852,0,0,1,363.945,2203.479Zm0-8.524a.851.851,0,0,1-.852-.852v-1.7a.852.852,0,0,1,1.7,0v1.7A.852.852,0,0,1,363.945,2194.955Zm0-8.522a.852.852,0,0,1-.852-.854v-1.706a.852.852,0,0,1,1.7,0v1.706A.853.853,0,0,1,363.945,2186.433Zm0-8.525a.849.849,0,0,1-.852-.851v-1.706a.852.852,0,0,1,1.7,0v1.706A.851.851,0,0,1,363.945,2177.908Zm0-8.522a.851.851,0,0,1-.852-.853v-1.705a.852.852,0,0,1,1.7,0v1.705A.852.852,0,0,1,363.945,2169.386Zm0-8.524a.851.851,0,0,1-.852-.853v-1.7a.852.852,0,1,1,1.7,0v1.7A.852.852,0,0,1,363.945,2160.862Z" transform="translate(-328.575 -2105.555)"/><path class="l" d="M394.415,2187.839a.849.849,0,0,1-.334-.067,5.131,5.131,0,0,1-1.672-1.145.852.852,0,1,1,1.217-1.191,3.432,3.432,0,0,0,1.124.768.852.852,0,0,1-.334,1.636Zm5.678-2.312a.909.909,0,0,1-.327-.064.857.857,0,0,1-.459-1.12,3.471,3.471,0,0,0,.037-2.562.853.853,0,0,1,1.594-.61,5.161,5.161,0,0,1,.337,1.844,5.109,5.109,0,0,1-.4,1.986A.851.851,0,0,1,400.093,2185.528Zm-6.981-4.772a.851.851,0,0,1-.592-1.466,5.132,5.132,0,0,1,1.706-1.094.853.853,0,0,1,.622,1.589,3.456,3.456,0,0,0-1.147.733A.852.852,0,0,1,393.112,2180.756Z" transform="translate(-308.088 -2090.98)"/><g transform="translate(12.163 13.68)"><path class="n" d="M455.533,2201.549l-25.448-16.773-69.694-42.8a65.1,65.1,0,0,1,12.144,20.245,69.074,69.074,0,0,1,3.761,14.746l52.053,32.68a4.546,4.546,0,0,1,1.158,6.073l-.868.867-50.608,30.653a3.235,3.235,0,0,1-4.338-.868,4.089,4.089,0,0,1-.578-1.734v-69.984a48.908,48.908,0,0,0-3.471-12.722,60.989,60.989,0,0,0-18.218-26.029l-1.447-.868v131.582a12.958,12.958,0,0,0,13.014,13.012,13.92,13.92,0,0,0,6.941-2.024l85.31-53.21a13.612,13.612,0,0,0,4.049-18.8A10.206,10.206,0,0,0,455.533,2201.549Z" transform="translate(-349.979 -2135.033)"/><path class="o" d="M455.533,2201.549l-25.448-16.773a19.719,19.719,0,0,1,2.6,27.76,24.95,24.95,0,0,1-4.048,4.049l-36.149,21.4h0l-13.881,9.543a3.991,3.991,0,0,1-4.627-1.159,4.1,4.1,0,0,1-.58-1.734v-69.984a91.651,91.651,0,0,0-3.469-12.722,60.99,60.99,0,0,0-18.22-26.029l-1.736-.868v131.582a12.958,12.958,0,0,0,13.014,13.012,13.92,13.92,0,0,0,6.941-2.024l85.31-53.21a13.612,13.612,0,0,0,4.049-18.8A10.206,10.206,0,0,0,455.533,2201.549Z" transform="translate(-349.979 -2135.033)"/></g><path class="l" d="M350.331,2309.413a.852.852,0,0,1-.852-.852v-1.705a.852.852,0,0,1,1.7,0v1.705A.851.851,0,0,1,350.331,2309.413Zm0-8.524a.852.852,0,0,1-.852-.852v-1.705a.852.852,0,1,1,1.7,0v1.705A.851.851,0,0,1,350.331,2300.889Zm0-8.523a.853.853,0,0,1-.852-.852v-1.705a.852.852,0,1,1,1.7,0v1.705A.852.852,0,0,1,350.331,2292.366Zm0-8.524a.853.853,0,0,1-.852-.852v-1.7a.852.852,0,0,1,1.7,0v1.7A.852.852,0,0,1,350.331,2283.841Zm0-8.522a.853.853,0,0,1-.852-.853v-1.7a.852.852,0,1,1,1.7,0v1.7A.852.852,0,0,1,350.331,2275.319Zm0-8.524a.854.854,0,0,1-.852-.852v-1.706a.852.852,0,0,1,1.7,0v1.706A.853.853,0,0,1,350.331,2266.8Zm0-8.525a.852.852,0,0,1-.852-.851v-1.7a.852.852,0,1,1,1.7,0v1.7A.851.851,0,0,1,350.331,2258.27Zm0-8.521a.855.855,0,0,1-.852-.853v-1.705a.852.852,0,0,1,1.7,0v1.705A.853.853,0,0,1,350.331,2249.749Zm0-8.525a.853.853,0,0,1-.852-.851v-1.705a.852.852,0,1,1,1.7,0v1.705A.851.851,0,0,1,350.331,2241.224Zm0-8.522a.853.853,0,0,1-.852-.854v-1.7a.852.852,0,1,1,1.7,0v1.7A.852.852,0,0,1,350.331,2232.7Zm0-8.523a.854.854,0,0,1-.852-.853v-1.706a.852.852,0,1,1,1.7,0v1.706A.853.853,0,0,1,350.331,2224.178Zm0-8.526a.852.852,0,0,1-.852-.852v-1.7a.852.852,0,1,1,1.7,0v1.7A.851.851,0,0,1,350.331,2215.653Zm0-8.524a.851.851,0,0,1-.852-.851v-1.705a.852.852,0,1,1,1.7,0v1.705A.85.85,0,0,1,350.331,2207.129Zm0-8.522a.854.854,0,0,1-.852-.853v-1.7a.852.852,0,1,1,1.7,0v1.7A.852.852,0,0,1,350.331,2198.606Zm0-8.524a.853.853,0,0,1-.852-.851v-1.706a.852.852,0,1,1,1.7,0v1.706A.851.851,0,0,1,350.331,2190.082Zm0-8.524a.852.852,0,0,1-.852-.851V2179a.852.852,0,0,1,1.7,0v1.707A.85.85,0,0,1,350.331,2181.559Zm0-8.523a.852.852,0,0,1-.852-.852v-1.7a.852.852,0,1,1,1.7,0v1.7A.851.851,0,0,1,350.331,2173.035Zm0-8.521a.855.855,0,0,1-.852-.854v-1.7a.852.852,0,1,1,1.7,0v1.7A.853.853,0,0,1,350.331,2164.514Zm0-8.527a.851.851,0,0,1-.852-.849v-1.706a.852.852,0,1,1,1.7,0v1.706A.85.85,0,0,1,350.331,2155.987Zm0-8.52a.853.853,0,0,1-.852-.852v-1.705a.852.852,0,1,1,1.7,0v1.705A.852.852,0,0,1,350.331,2147.467Zm0-8.525a.851.851,0,0,1-.852-.853v-1.7a.852.852,0,1,1,1.7,0v1.7A.85.85,0,0,1,350.331,2138.942Zm0-8.524a.852.852,0,0,1-.852-.853v-1.7a.852.852,0,0,1,1.7,0v1.7A.851.851,0,0,1,350.331,2130.417Z" transform="translate(-338.168 -2127.009)"/><path class="l" d="M489.434,2224.059a.842.842,0,0,1-.453-.133l-1.442-.906a.852.852,0,1,1,.907-1.442l1.444.906a.854.854,0,0,1-.455,1.576Zm-7.214-4.539a.838.838,0,0,1-.454-.13l-1.442-.91a.852.852,0,1,1,.907-1.442l1.442.906a.853.853,0,0,1-.453,1.575Zm-7.214-4.54a.86.86,0,0,1-.453-.129l-1.444-.908a.853.853,0,0,1,.909-1.443l1.442.909a.85.85,0,0,1-.454,1.571Zm-7.216-4.536a.851.851,0,0,1-.454-.132l-1.442-.91a.852.852,0,1,1,.909-1.441l1.442.91a.852.852,0,0,1-.455,1.573Zm-7.214-4.54a.841.841,0,0,1-.452-.131l-1.444-.909a.851.851,0,1,1,.907-1.439l1.444.905a.853.853,0,0,1-.455,1.574Zm-7.214-4.539a.831.831,0,0,1-.454-.132l-1.442-.906a.851.851,0,1,1,.907-1.441l1.442.906a.851.851,0,0,1-.453,1.573Zm-7.216-4.539a.831.831,0,0,1-.452-.131l-1.443-.906a.853.853,0,1,1,.907-1.444l1.442.91a.851.851,0,0,1-.455,1.572Zm-7.214-4.539a.843.843,0,0,1-.453-.13l-1.443-.91a.852.852,0,0,1,.909-1.441l1.444.91a.851.851,0,0,1-.457,1.571Zm-7.214-4.538a.817.817,0,0,1-.453-.132l-1.442-.908a.851.851,0,1,1,.907-1.439l1.444.9a.853.853,0,0,1-.455,1.575Zm-7.214-4.538a.835.835,0,0,1-.453-.13l-1.442-.907a.852.852,0,1,1,.907-1.443l1.442.906a.852.852,0,0,1-.454,1.574Zm-7.214-4.538a.84.84,0,0,1-.454-.131l-1.444-.906a.853.853,0,0,1,.909-1.444l1.442.909a.85.85,0,0,1-.454,1.572Zm-7.216-4.539a.848.848,0,0,1-.453-.13l-1.442-.908a.852.852,0,0,1,.908-1.442l1.442.91a.85.85,0,0,1-.455,1.57Zm-7.214-4.537a.828.828,0,0,1-.452-.134l-1.444-.907a.852.852,0,0,1,.907-1.442l1.444.907a.854.854,0,0,1-.455,1.575Zm-7.214-4.541a.849.849,0,0,1-.454-.13l-1.442-.908a.851.851,0,1,1,.907-1.44l1.444.905a.852.852,0,0,1-.455,1.573Zm-7.216-4.537a.837.837,0,0,1-.452-.132l-1.442-.906a.851.851,0,1,1,.907-1.441l1.442.906a.852.852,0,0,1-.455,1.574Zm-7.213-4.537a.841.841,0,0,1-.455-.134l-1.442-.908a.852.852,0,0,1,.909-1.442l1.444.911a.852.852,0,0,1-.455,1.573ZM374,2151.441a.829.829,0,0,1-.452-.132l-1.444-.907a.852.852,0,1,1,.909-1.442l1.442.908a.852.852,0,0,1-.455,1.573Zm-7.214-4.538a.821.821,0,0,1-.453-.134l-1.443-.906a.852.852,0,0,1,.907-1.442l1.442.905a.853.853,0,0,1-.454,1.576Zm-7.214-4.539a.828.828,0,0,1-.454-.133l-1.444-.9a.853.853,0,0,1,.909-1.445l1.442.907a.853.853,0,0,1-.453,1.575Zm-7.216-4.539a.846.846,0,0,1-.453-.13l-1.442-.91a.852.852,0,1,1,.909-1.442l1.442.91a.851.851,0,0,1-.455,1.572Zm-7.214-4.54a.816.816,0,0,1-.452-.132l-1.444-.906a.852.852,0,1,1,.907-1.442l1.444.905a.853.853,0,0,1-.455,1.574Z" transform="translate(-342.844 -2124.425)"/><path class="l" d="M416.968,2192.933a.871.871,0,0,1-.45-.127l-1.447-.9a.854.854,0,0,1,.9-1.45l1.447.9a.854.854,0,0,1-.451,1.578Zm-7.237-4.5a.853.853,0,0,1-.448-.13l-1.448-.9a.852.852,0,0,1,.9-1.447l1.447.9a.853.853,0,0,1-.452,1.577Zm-7.237-4.5a.847.847,0,0,1-.448-.129l-1.447-.9a.854.854,0,0,1,.9-1.451l1.447.9a.854.854,0,0,1-.452,1.578Zm-7.235-4.5a.831.831,0,0,1-.45-.132l-1.449-.9a.853.853,0,0,1,.9-1.447l1.448.9a.853.853,0,0,1-.452,1.577Zm-7.236-4.505a.842.842,0,0,1-.45-.128l-1.448-.9a.852.852,0,0,1,.9-1.447l1.447.9a.854.854,0,0,1-.45,1.578Zm-7.237-4.506a.863.863,0,0,1-.45-.128l-1.447-.9a.854.854,0,0,1,.9-1.449l1.447.9a.852.852,0,0,1-.452,1.575Zm-7.236-4.5a.88.88,0,0,1-.45-.125l-1.447-.9a.853.853,0,0,1,.9-1.448l1.449.9a.852.852,0,0,1-.452,1.575Zm-7.236-4.5a.833.833,0,0,1-.448-.128l-1.449-.9a.852.852,0,0,1,.9-1.447l1.448.9a.853.853,0,0,1-.452,1.576Z" transform="translate(-327.924 -2104.606)"/><path class="l" d="M364.869,2216.509a.854.854,0,0,1-.447-1.581l1.454-.89a.853.853,0,0,1,.892,1.454l-1.454.891A.842.842,0,0,1,364.869,2216.509Zm7.269-4.45a.853.853,0,0,1-.445-1.58l1.454-.892a.853.853,0,0,1,.89,1.457l-1.454.889A.861.861,0,0,1,372.138,2212.06Zm7.27-4.453a.853.853,0,0,1-.444-1.58l1.452-.887a.852.852,0,1,1,.89,1.453l-1.455.889A.827.827,0,0,1,379.408,2207.607Zm7.269-4.448a.854.854,0,0,1-.447-1.582l1.454-.893a.854.854,0,0,1,.89,1.457l-1.452.891A.852.852,0,0,1,386.677,2203.159Zm7.269-4.452a.853.853,0,0,1-.445-1.582l1.454-.888a.853.853,0,0,1,.89,1.455l-1.454.89A.851.851,0,0,1,393.946,2198.707Zm7.269-4.451a.853.853,0,0,1-.445-1.581l1.454-.887a.852.852,0,1,1,.89,1.454l-1.454.888A.852.852,0,0,1,401.215,2194.256Zm7.271-4.449a.852.852,0,0,1-.447-1.579l1.454-.892a.853.853,0,1,1,.89,1.455l-1.453.891A.862.862,0,0,1,408.486,2189.806Zm7.269-4.453a.852.852,0,0,1-.445-1.58l1.454-.887a.852.852,0,1,1,.888,1.455l-1.454.888A.84.84,0,0,1,415.754,2185.354Z" transform="translate(-327.924 -2087.72)"/></g></g><g transform="translate(0 17.511)"><g transform="translate(60.686 137.816) rotate(-90)"><rect class="p" width="125.56" height="46.719" rx="2.414" transform="translate(0 16.006) rotate(-7.324)"/><rect class="q" width="17.053" height="30.581" transform="translate(100.57 11.215) rotate(-7.324)"/><rect class="r" width="17.053" height="30.581" transform="translate(77.392 14.194) rotate(-7.324)"/><rect class="s" width="17.053" height="30.581" transform="translate(54.215 17.173) rotate(-7.324)"/></g><g transform="translate(95.592 179.84) rotate(-90)"><rect class="t" width="125.56" height="46.719" rx="2.414" transform="translate(9.078 0) rotate(11.205)"/><rect class="u" width="17.053" height="30.581" transform="translate(105.957 27.417) rotate(11.205)"/><rect class="v" width="17.053" height="30.581" transform="translate(83.035 22.876) rotate(11.205)"/><rect class="w" width="17.053" height="30.581" transform="translate(60.112 18.335) rotate(11.205)"/></g><g transform="translate(0 133.584) rotate(-90)"><rect class="x" width="125.56" height="46.719" rx="2.414" transform="translate(0 52.58) rotate(-24.757)"/><rect class="y" width="17.053" height="30.581" transform="translate(94.515 17.88) rotate(-24.757)"/><rect class="z" width="17.053" height="30.581" transform="translate(73.295 27.666) rotate(-24.757)"/><rect class="aa" width="17.053" height="30.581" transform="translate(52.074 37.452) rotate(-24.757)"/></g></g><g class="bh" transform="matrix(1, 0, 0, 1, 0, -38.55)"><path class="ab" d="M124.7,2732.1a3.578,3.578,0,0,0-6.655,0l-4.187,10.361-.849.064-10.223.763a3.587,3.587,0,0,0-3.148,2.5,3.656,3.656,0,0,0,1.113,3.906l8.468,7.231-.2.819-2.449,10.032a3.652,3.652,0,0,0,1.371,3.826,3.542,3.542,0,0,0,4,.132l9.417-5.906.727.457,8.716,5.453a3.54,3.54,0,0,0,4-.136,3.655,3.655,0,0,0,1.37-3.834l-2.647-10.844.641-.546,7.831-6.69a3.654,3.654,0,0,0,1.106-3.908,3.588,3.588,0,0,0-3.165-2.49l-11.051-.828Z" transform="translate(-24.51 -2593.88)"/></g></g><g transform="translate(810.555 619.396)"><path class="ac" d="M422.5,384.1H135.971L122.589,213.862H438.56Z" transform="translate(-115.833 -213.862)"/><rect class="b" width="329.483" height="14.65"/></g><g transform="translate(1066.062 455.147)"><path class="h" d="M0,0C1.357,4.922,2.3,7.645,2.3,7.645L.417,1.257C.417,1.361.313.838,0,0Z" transform="translate(173.059 325.042)"/><path class="ad" d="M.935,1.78C.622,1.152.413.524.1,0,.413.733.726,1.361.935,1.78Z" transform="translate(199.259 239.373)"/><g transform="translate(70.945 165.035)"><path class="a" d="M16.16.365C11.906-.555,3.856.43,1.107,1.481c-6.218,2.43,15.708,2.364,17.41,2.1S20.48,1.284,16.16.365Z" transform="translate(22.848 82.055)"/><path class="ae" d="M29.836,63.64C27.383,64.51,17,67.575,9.883,60.09c0,0,9.7-10.422,19.706,2.311a167.386,167.386,0,0,0-5.56-20.434c-2.51,1.4-10.662,5.2-17.812,0,0,0,6.632-10.469,17.235-1.669-1.383-3.948-2.989-8.1-4.85-12.4-1.22.746-8.405,4.771-14.611.281,0,0,5.6-8.806,14.4-.757Q15.885,21.641,12.735,15.5c-1.715.429-7.574,1.477-11.229-3.025,0,0,5.023-4.63,9.854.405q-1.227-2.3-2.555-4.641C7.685,8,1.136,6.373,0,.191c0,0,8.319-2.135,8.954,7.853,1.335,2.138,3.15,5.18,5.2,8.993-1.3-5.975,4.565-8.045,4.565-8.045,2.266,5.513-1.694,10.24-2.8,11.412,1.759,3.443,3.629,7.373,5.478,11.713C20.273,22.308,29.387,21.8,29.387,21.8c.842,7.155-5.3,11.458-7.062,12.537,1.762,4.292,3.485,8.95,5.052,13.911C27.444,37.556,37.961,37.3,37.961,37.3c.769,8.87-6.8,13.95-9.257,15.357a147.633,147.633,0,0,1,5.265,28.255A64.534,64.534,0,0,1,38.7,71.318q-.259.358-.545.724s-6.544-8.078-1.9-15.96c0,0,8.431,4.311,3.792,13.08a69.621,69.621,0,0,1,7.554-9.588c-.487-.635-4.932-6.717-1.463-12.621,0,0,7.858,4.037,1.888,12.173a68.348,68.348,0,0,1,6.3-5.816l-.067-.052s.062-.065.18-.179c-.541-1.624-1.7-6.361,1.718-9.739,0,0,3.873,3.522,1.049,7.741q.116-.063.236-.123c.519-.36.825-.555.87-.585q-.3.224-.6.453a8.7,8.7,0,0,1,8.987.527s-4.34,7.637-11.971,2.246l-.071.053s-.022-.05-.059-.146l-.073-.053a68.341,68.341,0,0,0-6.977,7.225c1.876-1.527,6.525-4.45,11.56-1.115,0,0-4.464,7.855-12.3,2.008a91.7,91.7,0,0,0-6.775,9.561c2.23-1.8,7.609-5.111,13.444-1.259,0,0-5.11,9.1-14.192,2.485a96.573,96.573,0,0,0-5.207,9.9q.049.672.091,1.347l-2.095.329S32.3,76.31,29.836,63.64Zm28.48-13.271-.006,0Z" transform="translate(0 0)"/></g><path class="af" d="M1429.769-66.212a2.072,2.072,0,0,0,.7,4.016h129.976c3.272,0,4.107-2.8,0-3.413C1503.465-74.076,1448.308-74.924,1429.769-66.212Z" transform="translate(-1369.085 416.406)"/><path class="af" d="M1409.255-60.835h8.434a.9.9,0,0,0,.9-.9h0a.9.9,0,0,0-.791-.893,85.405,85.405,0,0,0-9.391-.754C1406.508-63.381,1405.86-60.835,1409.255-60.835Z" transform="translate(-1206.139 415.046)"/><g transform="translate(63.988 37.891)"><path class="ag" d="M1800.212-927.477c-3.757-9.824-13.369-28.18-24.61-45.862,1.672.135,3.638.355,5.954.7-11.52-18.068-31.165-34.948-34.884-38.066a51.508,51.508,0,0,0-5.242-4.313c-12.188-8.591-21.6-4.816-30.2-1.732-1.084.389-2.488.979-4.142,1.736a53.165,53.165,0,0,1,1.972-7.6c-12.616,5.787-29.93,22.566-29.93,22.566a71.007,71.007,0,0,1,1.5-8.98c-21.232,14.161-36.916,30.4-40.318,34.688-2.266,2.851-4.627,6.093-6.077,8.141-11.164,15.769-23.986,71.253-25.363,77.564-2.438,11.178-5.446,20.034,3.045,36.666,6.426,12.585,27.686,69.042-15.443,76.865-4.337.787-8.474,1.576-13.12,2.71-17.658,4.312-2.75,14.946-2.75,14.946l31.585,3.364,5.283,9.539s9.8,9.912,16.212,14.992,12.043,5.66,19.529,2.369c1.24-.545,2.6-1.228,4.052-2.025,10.586-4.827,34.609-16.52,46.623-28.313-6.09.256-7.6.131-7.6.131s23.848-13.205,30.56-21a63.881,63.881,0,0,1-8.28.5,86.215,86.215,0,0,0,7.8-8.507c5.155-6.91,5.863-14.019,2.114-25.619-5.663-17.526-20.717-46.81-33.962-66.526,7.811-7.322,25.188-24.854,25.188-24.854a15.409,15.409,0,0,0,3.705,1.064c-1.561,9.733-1.083,17.738.051,22.383,1.478,6.057,3.9,7.908,7.542,9.726s21.859,10.906,27.825,12.157c5.635,1.182,12.809,1.057,20.212-5.919s16.419-15.384,22.4-23.187C1809.091-897.158,1806.654-910.631,1800.212-927.477Z" transform="translate(-1574.72 1022.616)"/><path class="ah" d="M1831.351-939.841l-7.522.667a4.778,4.778,0,0,0-4.346,4.457l-1.875,29.7A4.461,4.461,0,0,1,1811.99-901l-17.109-4.633a4.191,4.191,0,0,0-5.268,4.425l1.859,20.367a2.993,2.993,0,0,1-3.713,3.172l-16.728-4.225c-1.513,9.62-1.036,17.531.088,22.136,1.479,6.056,3.9,7.908,7.543,9.726s21.859,10.906,27.825,12.157c5.636,1.182,12.809,1.057,20.213-5.919s16.419-15.385,22.394-23.188c7.653-9.99,5.216-23.463-1.226-40.309C1845.053-914.641,1838.956-926.783,1831.351-939.841Z" transform="translate(-1622.375 1002.424)"/><g transform="translate(104.804 118.926)"><path class="ai" d="M1713.338-865.3s9.878,16.85,15.026,25.1c3.4-3.191,8.6-8.3,13.394-13.057C1730.551-866.319,1713.338-865.3,1713.338-865.3Z" transform="translate(-1713.338 865.319)"/><path class="ai" d="M1734.389-830.222c.552.869,1.02,1.586,1.377,2.105Q1735.074-829.186,1734.389-830.222Z" transform="translate(-1718.473 856.758)"/></g><path class="aj" d="M1678.51-714.772c11.668-12.693,9.143-28.074,7.69-38.055-1.528-10.5-8.435-26.49-8.435-26.49l-4.575,9.485a143.6,143.6,0,0,0-13.843-34.521c-2.8-4.927-20.794-52.659-20.794-52.659l-13.435,51.488c6.934,16.973,17.331,54.443-7.453,67.29l3.172,24.352,1.825.194,5.282,9.539s8.659,8.755,15.021,14.026C1657.349-698.5,1673.17-708.962,1678.51-714.772Z" transform="translate(-1585.196 982.219)"/><g transform="translate(86.764 20.513)"><path class="ak" d="M1700.378-908.339a15.014,15.014,0,0,0-4.154,3.593c-1.087,1.776.057,2,1.153,1.541a14.757,14.757,0,0,0,3.87-2.9C1703.079-907.958,1702.672-909.577,1700.378-908.339Z" transform="translate(-1691.017 974.332)"/><path class="ak" d="M1718.648-830.756a15.548,15.548,0,0,0-2.892-4.883c-1.606-1.429-2.04-.308-1.777.89a15.2,15.2,0,0,0,2.238,4.466C1717.766-828.079,1719.486-828.2,1718.648-830.756Z" transform="translate(-1695.438 956.656)"/><path class="ak" d="M1741.272-788.754a15.538,15.538,0,0,0-2.891-4.884c-1.606-1.43-2.04-.308-1.778.891a15.279,15.279,0,0,0,2.238,4.466C1740.39-786.077,1742.111-786.194,1741.272-788.754Z" transform="translate(-1700.957 946.41)"/><path class="ak" d="M1757.652-746.108a14.675,14.675,0,0,0-2.207-4.883c-1.359-1.508-1.883-.5-1.761.651a14.386,14.386,0,0,0,1.637,4.423C1756.546-743.687,1758.172-743.619,1757.652-746.108Z" transform="translate(-1705.136 936.029)"/><path class="ak" d="M1733.887-762.116a14.673,14.673,0,0,0-2.205-4.884c-1.36-1.508-1.883-.5-1.761.652a14.376,14.376,0,0,0,1.636,4.424C1732.781-759.7,1734.409-759.626,1733.887-762.116Z" transform="translate(-1699.34 939.934)"/><path class="ak" d="M1733.287-978.873a15.029,15.029,0,0,0-4.156,3.593c-1.085,1.775.058,2,1.155,1.54a14.732,14.732,0,0,0,3.869-2.9C1735.988-978.492,1735.581-980.111,1733.287-978.873Z" transform="translate(-1699.044 991.538)"/><path class="ak" d="M1693.542-950.829a13.3,13.3,0,0,0-3.676,3.179c-.961,1.571.052,1.766,1.022,1.363a13.082,13.082,0,0,0,3.423-2.565C1695.933-950.492,1695.572-951.924,1693.542-950.829Z" transform="translate(-1689.478 984.685)"/><path class="ak" d="M1722.106-946.063a14.875,14.875,0,0,0-4.332,3.3c-1.183,1.69-.065,1.979,1.049,1.594a14.605,14.605,0,0,0,4.007-2.633C1724.757-945.521,1724.453-947.148,1722.106-946.063Z" transform="translate(-1696.258 983.514)"/><path class="ak" d="M1755.662-939.275a14.872,14.872,0,0,0-4.323,3.3c-1.181,1.688-.065,1.975,1.046,1.591a14.584,14.584,0,0,0,4-2.627C1758.307-938.734,1758-940.357,1755.662-939.275Z" transform="translate(-1704.446 981.858)"/><path class="ak" d="M1771.094-972.11a16.505,16.505,0,0,0-4.667-3.818c-2.125-.841-2.148.438-1.448,1.538a16.172,16.172,0,0,0,3.862,3.639C1771.19-969.117,1772.864-969.862,1771.094-972.11Z" transform="translate(-1707.796 990.78)"/><path class="ak" d="M1810.136-958.856a16.5,16.5,0,0,0-4.666-3.817c-2.125-.841-2.148.438-1.45,1.538a16.183,16.183,0,0,0,3.863,3.639C1810.232-955.863,1811.906-956.608,1810.136-958.856Z" transform="translate(-1717.319 987.547)"/><path class="ak" d="M1792.753-991.4a16.492,16.492,0,0,0-4.667-3.817c-2.124-.841-2.147.438-1.448,1.538a16.184,16.184,0,0,0,3.862,3.639C1792.849-988.4,1794.522-989.147,1792.753-991.4Z" transform="translate(-1713.079 995.484)"/></g></g><g transform="translate(18.178 254.198)"><path class="al" d="M1512.855-711.941s-33.3-1.68-47.017-2.667c-1.516,2.267-4.061,14.661-2.153,17.571,6.408,3.426,37.388,11.544,61.722,5.3S1512.855-711.941,1512.855-711.941Z" transform="translate(-1463.003 714.608)"/></g><path class="am" d="M1440.193-721.545c-1.805,4.594-1.095,6.157-1.095,6.157l7.984,3.288s-1.805,4.594-.384,7.72c1.892,1.384,6.3,3.617,12.243,5.909,2.306-5.453,2.639-12.895,2.571-17.655C1453.555-717.484,1445.845-719.256,1440.193-721.545Z" transform="translate(-1438.96 970.498)"/><g transform="translate(63.582 229.869)"><path class="an" d="M1531.248-729.411s-19.749,61.382,2.08,100.282c1.989,2.685,8.006,2.721,11.355,1.4a79.738,79.738,0,0,1-2.559-19.4c15.8,2.122,27.671,2.034,36.084,2.219,1.3,6.693,3.267,12.72,5.917,16.747,2.143,3.255,10.476,3.248,12.7.743-3.864-24.755-3.729-47.483,5.11-72.832,9.328-26.749,4.937-43.42,4.937-43.42s-10.506-4.082-38.754-2.9C1540.033-745.4,1531.248-729.411,1531.248-729.411Z" transform="translate(-1523.056 746.786)"/><path class="ao" d="M1530.371-718.7a209.562,209.562,0,0,0-5.285,26.723c14.167.942,39.83-.31,51.707-19.53C1587.216-728.373,1544.427-721.386,1530.371-718.7Z" transform="translate(-1523.551 740.846)"/><path class="ap" d="M1623.754-690.465c-1.961-2.457-12.057-14.419-13.69-2.332a37.894,37.894,0,0,0,7.147,27.461,134.3,134.3,0,0,1,5.862-23.039C1623.323-689.089,1623.524-689.766,1623.754-690.465Z" transform="translate(-1544.196 734.913)"/><path class="aq" d="M1547.849-626.367a69.915,69.915,0,0,1-.851-20.7c1.428-15.366,6.807-20.682,14.164-21.307,12.812-1.089,17.972,12.807,19.25,22.841a244.656,244.656,0,0,0,4.877,25.123Z" transform="translate(-1528.819 727.674)"/></g><g transform="translate(127.879 258.36)"><path class="ar" d="M1609.354-689.486c-.007,0,18.859,11.315,27.539,29.049-1.509,2.264-3.773,5.281-2.263,6.79a15.624,15.624,0,0,0,4.526-1.509c.755,3.018,1.509,7.545,1.509,7.545s9.809,0,13.581-6.036c-.931-7-1.848-32.935-30.557-55.456C1601.81-706.839,1609.354-689.486,1609.354-689.486Z" transform="translate(-1608.097 709.103)"/><path class="am" d="M1645.293-648.416c-1.509,2.264-3.771,5.281-2.263,6.79a15.635,15.635,0,0,0,4.527-1.509c.755,3.018,1.509,7.545,1.509,7.545s9.808,0,13.582-6.036a86.757,86.757,0,0,0-3.545-18.2,157.057,157.057,0,0,1-15.7,7.908C1644.068-650.776,1644.707-649.614,1645.293-648.416Z" transform="translate(-1616.497 697.081)"/><path class="as" d="M1660.167-641.244l-1.508.755c.46,2.3.921,5.731,1.209,8.224q.738-.25,1.475-.574C1660.9-636.492,1660.167-641.244,1660.167-641.244Z" transform="translate(-1620.432 692.549)"/></g><path class="at" d="M1622.686-810.754c-13.741-4.761-20.465-14.411-16.952-38.361,4.062-27.688,10.84-107.893-30.031-162.819-4.253,2.311-5.4,4.412-5.4,4.412s17.775,42.348,2.739,126.449c-9.754-5.584-26.951-12.5-26.951-12.5s4.4-67.57-30.016-111.357a12.6,12.6,0,0,0-5.131,2.923s15.084,39.658,1.487,117.505a23.249,23.249,0,0,0-24.753,19.081,23.188,23.188,0,0,0,4.788,18.675c-12.852-3.846-24.766-7.846-24.773-7.848a5.638,5.638,0,0,0-4.52,3.8s1.4,60.926,70.613,73.3c58.8,10.512,78.659-18.964,78.659-18.964s-6.831-.452-11.642-3.617C1608.383-799.487,1620-804.322,1622.686-810.754Z" transform="translate(-1444.868 1041.335)"/><path class="au" d="M1575.1-1037.162s17.089,16.111,22.51,20.153a55.141,55.141,0,0,0,6.008-3.535,179.259,179.259,0,0,0-6.108-30.278A59.341,59.341,0,0,0,1575.1-1037.162Z" transform="translate(-1472.169 1050.821)"/><path class="au" d="M1496.235-1028.419s16.417,15.2,23.255,20.286a39.922,39.922,0,0,1,6.011-2.776,230.941,230.941,0,0,0-7.333-32.79A94.953,94.953,0,0,0,1496.235-1028.419Z" transform="translate(-1452.932 1049.083)"/><g class="av" transform="translate(41.567 209.211)"><ellipse class="aw" cx="1.546" cy="1.546" rx="1.546" ry="1.546" transform="translate(0 0)"/><ellipse class="aw" cx="1.546" cy="1.546" rx="1.546" ry="1.546" transform="translate(4.239 11.441)"/><ellipse class="aw" cx="1.546" cy="1.546" rx="1.546" ry="1.546" transform="translate(13.179 3.613)"/></g><ellipse class="ax" cx="9.451" cy="9.451" rx="9.451" ry="9.451" transform="translate(120.809 217.72)"/><path class="au" d="M1467.7-803.827a5.639,5.639,0,0,0-4.52,3.8,67.889,67.889,0,0,0,2.436,14.51,33.966,33.966,0,0,0,19.116-12.828C1475.21-801.306,1467.7-803.825,1467.7-803.827Z" transform="translate(-1444.868 990.57)"/><path class="ay" d="M1569.15-880.443a27.644,27.644,0,0,0-10.946,14.28l11.077,4.565A181.51,181.51,0,0,0,1569.15-880.443Z" transform="translate(-1468.048 1009.259)"/><path class="az" d="M1596.48-847.147c.715-1.732,1.487-3.555,2.285-5.249a3.9,3.9,0,0,1,5.593-1.734A109.728,109.728,0,0,1,1628-834.357a2.551,2.551,0,0,1,.24,3.011c-.294.469-.6.939-.947,1.442a2.356,2.356,0,0,1-3.271.671,190.055,190.055,0,0,0-26.2-14.357A2.747,2.747,0,0,1,1596.48-847.147Z" transform="translate(-1477.333 1002.982)"/><path class="ba" d="M1509.175-851.97a158.033,158.033,0,0,1,28.768-5,2.781,2.781,0,0,0,2.536-2.544c.406-4.95.272-3.3.437-6.018.222-3.688-2.837-3.83-5.674-3.536-4.772.5-18.648,4.056-28.366,10.588a2.878,2.878,0,0,0-1.061,3.418,18.639,18.639,0,0,0,.877,2.006A2.142,2.142,0,0,0,1509.175-851.97Z" transform="translate(-1455.221 1006.509)"/><ellipse class="h" cx="19.096" cy="19.096" rx="19.096" ry="19.096" transform="translate(103.79 171.531)"/><ellipse class="h" cx="19.096" cy="19.096" rx="19.096" ry="19.096" transform="translate(46.566 161.451)"/><ellipse class="bb" cx="5.672" cy="5.672" rx="5.672" ry="5.672" transform="translate(114.377 183.632)"/><path class="bc" d="M1583.237-818.462l29.954,2.877a19.62,19.62,0,0,0-16.185-8.519A19.577,19.577,0,0,0,1583.237-818.462Z" transform="translate(-1474.154 995.516)"/><ellipse class="bb" cx="5.672" cy="5.672" rx="5.672" ry="5.672" transform="translate(57.91 173.551)"/><path class="bd" d="M1537.555-829.251A19.494,19.494,0,0,0,1521.7-837.4a19.449,19.449,0,0,0-12.57,4.592Z" transform="translate(-1456.077 998.76)"/><g transform="translate(81.906 231.982)"><path class="be" d="M1553.132-734.979c11.422,7.243,7.8,12.953,7.8,12.953s12.7-2.353,18.908-14.033c2.007-3.777-.786-5.7-.786-5.7l-13.087,6.115Z" transform="translate(-1548.717 743.448)"/><path class="h" d="M1564.963-733.708a11.3,11.3,0,0,1-1.546,6.227s-8.685,1.7-13.226.021a18.235,18.235,0,0,1-1.177-6.352Z" transform="translate(-1547.712 741.509)"/><path class="be" d="M1577.5-743.992s-13.727,10.914-29.425,5.363a5.646,5.646,0,0,0-.773,3.113s17.641,4.381,29.426-5.363l1.427.906s-2.576,10.377-18.644,17.4a11.955,11.955,0,0,0,.911,2.981s16.847-5.732,20.713-21.3Z" transform="translate(-1547.292 743.992)"/></g><path class="as" d="M1466.064-715.459l-2.31-2.862a2.464,2.464,0,0,0-2.962-.648,9.84,9.84,0,0,0-4.413,3.569c-1.658,2.925.325,5.643,2.875,3.036a13.658,13.658,0,0,1,4.819-3.367Z" transform="translate(-1443.06 969.928)"/><g transform="translate(69.907 254.991)"><path class="bf" d="M48.808.012c-4.08.51-12.243,1.121-18.261,6.271,0,0-2.938-.262-5.634-.2a4.074,4.074,0,0,0-2.037.458l-.007-.091C17.1,1.545,9.831,1.259,5.771.922c-1.946-.162-4.138,3.4-4.138,3.4-2.908,5.3-1.228,8.787-.31,12.5S4.03,20.754,5.6,20.6c6.222-.593,16.028-5.23,17.669-6.023a2.862,2.862,0,0,0,1.534.3,45.108,45.108,0,0,0,4.7-.538s10.838,5.026,17.621,5.388c1.568.083,3.37-.215,4.474-3.969s2.958-7.317.31-12.5c0,0-1.08-3.3-2.939-3.26A1.549,1.549,0,0,0,48.808.012Z" transform="translate(52.748 27.85) rotate(-172)"/><path class="bg" d="M.153,6.209A14.383,14.383,0,0,0,5.413,7.892,13.155,13.155,0,0,0,9.706,7.8,22.508,22.508,0,0,1,4.184,6.555,6.062,6.062,0,0,1,2.1,5.282a26.851,26.851,0,0,0,9.078.851,13.61,13.61,0,0,0,3.38-.587s-8.425-.655-10.83-.978a3.956,3.956,0,0,1-1.7-.7S8.7,3.476,12.264,2.085A7.7,7.7,0,0,0,15.293,0S4.5,3.572,0,2.481Z" transform="translate(23.051 17.598) rotate(-172)"/><path class="bg" d="M14.848,5.576A15.7,15.7,0,0,1,9.5,7.482a13.06,13.06,0,0,1-4.294.091A23.924,23.924,0,0,0,10.8,6.092,6.876,6.876,0,0,0,12.945,4.73,27.86,27.86,0,0,1,3.815,5.966,12.994,12.994,0,0,1,.461,5.521s8.465-1.012,10.89-1.437a4.387,4.387,0,0,0,1.734-.776S6.433,3.2,2.929,1.959A6.771,6.771,0,0,1,0,0S10.625,3.119,15.186,1.837Z" transform="translate(46.488 20.063) rotate(-172)"/></g></g></g></svg>