<svg xmlns="http://www.w3.org/2000/svg" width="317.435" height="79.801" viewBox="0 0 317.435 79.801">
  <g id="Group_6288" data-name="Group 6288" transform="translate(-14388 -1306)">
    <g id="Group_6288-2" data-name="Group 6288" transform="translate(14111.003 269.001)">
      <path id="twitter" d="M19.046,59.271a7.8,7.8,0,0,1-2.243.615,3.923,3.923,0,0,0,1.717-2.16,7.876,7.876,0,0,1-2.482.948A3.91,3.91,0,0,0,9.38,62.237a11.092,11.092,0,0,1-8.052-4.082A3.911,3.911,0,0,0,2.537,63.37a3.907,3.907,0,0,1-1.77-.49v.049A3.911,3.911,0,0,0,3.9,66.759a3.957,3.957,0,0,1-1.029.137,3.749,3.749,0,0,1-.735-.073,3.909,3.909,0,0,0,3.649,2.713,7.838,7.838,0,0,1-4.852,1.67A8.3,8.3,0,0,1,0,71.153a11.043,11.043,0,0,0,5.988,1.758A11.039,11.039,0,0,0,17.1,61.8l-.013-.506a7.8,7.8,0,0,0,1.959-2.023Z" transform="translate(454.999 981.559)" fill="#353e5a"/>
      <path id="Facebook" d="M116.693,3.835V6.56h-2V9.893h2v9.9h4.1v-9.9h2.753s.258-1.6.383-3.345h-3.12V4.269a.968.968,0,0,1,.889-.8h2.235V0H120.9C116.591,0,116.693,3.337,116.693,3.835Z" transform="translate(162.304 1036.999)" fill="#353e5a"/>
      <path id="LinkedIn" d="M17.432,19.771v6.445H13.7V20.2c0-1.511-.54-2.541-1.893-2.541A2.044,2.044,0,0,0,9.89,19.026a2.557,2.557,0,0,0-.124.911v6.277H6.025s.05-10.184,0-11.24H9.762v1.593l-.025.036h.025v-.036A3.711,3.711,0,0,1,13.13,14.71C15.589,14.712,17.432,16.318,17.432,19.771ZM2.115,9.558a1.948,1.948,0,1,0-.05,3.885H2.09a1.948,1.948,0,1,0,.025-3.885ZM.222,26.216H3.958V14.976H.222Z" transform="translate(577 1029.442)" fill="#353e5a"/>
      <path id="pinterest" d="M45.573,1.856A6.947,6.947,0,0,0,40.714,0,7.638,7.638,0,0,0,35.08,2.172a6.418,6.418,0,0,0-1.9,4.449c0,2.017.843,3.564,2.256,4.14a.747.747,0,0,0,.284.058.631.631,0,0,0,.616-.508c.048-.179.158-.622.206-.814a.764.764,0,0,0-.2-.826,2.633,2.633,0,0,1-.6-1.8,4.528,4.528,0,0,1,4.7-4.558c2.42,0,3.923,1.375,3.923,3.589a7.457,7.457,0,0,1-.847,3.643A2.506,2.506,0,0,1,41.437,11a1.374,1.374,0,0,1-1.093-.5,1.257,1.257,0,0,1-.22-1.092c.108-.457.255-.933.4-1.393a8.622,8.622,0,0,0,.505-2.269,1.647,1.647,0,0,0-1.658-1.812c-1.26,0-2.247,1.28-2.247,2.914a4.333,4.333,0,0,0,.309,1.631c-.159.673-1.1,4.672-1.281,5.426-.1.44-.727,3.917.3,4.194,1.159.311,2.2-3.075,2.3-3.457.085-.311.385-1.488.568-2.211a3.5,3.5,0,0,0,2.338.9,5.213,5.213,0,0,0,4.186-2.094A8.407,8.407,0,0,0,47.419,6.1a5.928,5.928,0,0,0-1.846-4.244Z" transform="translate(362.819 1038)" fill="#353e5a"/>
      <path id="instagram" d="M-11607.536,19.8a5.469,5.469,0,0,1-5.464-5.462V5.462A5.471,5.471,0,0,1-11607.535,0h8.868a5.469,5.469,0,0,1,5.464,5.462v8.872a5.469,5.469,0,0,1-5.465,5.462Zm-3.707-14.333v8.872a3.711,3.711,0,0,0,3.707,3.707h8.869a3.712,3.712,0,0,0,3.706-3.707V5.462a3.709,3.709,0,0,0-3.706-3.7h-8.87a3.708,3.708,0,0,0-3.707,3.7Zm3.04,4.436a5.1,5.1,0,0,1,5.1-5.1,5.107,5.107,0,0,1,5.1,5.1,5.107,5.107,0,0,1-5.1,5.1,5.106,5.106,0,0,1-5.1-5.1Zm1.757,0a3.348,3.348,0,0,0,3.346,3.346,3.348,3.348,0,0,0,3.343-3.346,3.348,3.348,0,0,0-3.344-3.343,3.347,3.347,0,0,0-3.345,3.34Zm7.75-4.389a1.308,1.308,0,0,1-.379-.912,1.285,1.285,0,0,1,.378-.913,1.3,1.3,0,0,1,.91-.375,1.3,1.3,0,0,1,.913.376,1.3,1.3,0,0,1,.375.912,1.312,1.312,0,0,1-.376.912,1.3,1.3,0,0,1-.912.376,1.3,1.3,0,0,1-.913-.382Z" transform="translate(11945 1037)" fill="#353e5a"/>
      <path id="youtube" d="M21.507,17.13a2.765,2.765,0,0,0-2.366-2.151,73.537,73.537,0,0,0-8.195-.3,73.55,73.55,0,0,0-8.2.3A2.764,2.764,0,0,0,.386,17.13,23.438,23.438,0,0,0,0,22.3a23.431,23.431,0,0,0,.381,5.173,2.764,2.764,0,0,0,2.365,2.151,73.485,73.485,0,0,0,8.2.3,73.466,73.466,0,0,0,8.2-.3A2.765,2.765,0,0,0,21.5,27.476a23.42,23.42,0,0,0,.383-5.173,23.435,23.435,0,0,0-.376-5.173ZM8.118,25.7V18.463l6.958,3.63Z" transform="translate(514 1025.324)" fill="#353e5a"/>
    </g>
    <g id="Group_6288-3" data-name="Group 6288" transform="translate(14111.003 329.001)">
      <path id="twitter-2" data-name="twitter" d="M19.046,59.271a7.8,7.8,0,0,1-2.243.615,3.923,3.923,0,0,0,1.717-2.16,7.876,7.876,0,0,1-2.482.948A3.91,3.91,0,0,0,9.38,62.237a11.092,11.092,0,0,1-8.052-4.082A3.911,3.911,0,0,0,2.537,63.37a3.907,3.907,0,0,1-1.77-.49v.049A3.911,3.911,0,0,0,3.9,66.759a3.957,3.957,0,0,1-1.029.137,3.749,3.749,0,0,1-.735-.073,3.909,3.909,0,0,0,3.649,2.713,7.838,7.838,0,0,1-4.852,1.67A8.3,8.3,0,0,1,0,71.153a11.043,11.043,0,0,0,5.988,1.758A11.039,11.039,0,0,0,17.1,61.8l-.013-.506a7.8,7.8,0,0,0,1.959-2.023Z" transform="translate(454.999 981.559)" fill="#f3f7fe"/>
      <path id="Facebook-2" data-name="Facebook" d="M116.693,3.835V6.56h-2V9.893h2v9.9h4.1v-9.9h2.753s.258-1.6.383-3.345h-3.12V4.269a.968.968,0,0,1,.889-.8h2.235V0H120.9C116.591,0,116.693,3.337,116.693,3.835Z" transform="translate(162.304 1036.999)" fill="#f3f7fe"/>
      <path id="LinkedIn-2" data-name="LinkedIn" d="M17.432,19.771v6.445H13.7V20.2c0-1.511-.54-2.541-1.893-2.541A2.044,2.044,0,0,0,9.89,19.026a2.557,2.557,0,0,0-.124.911v6.277H6.025s.05-10.184,0-11.24H9.762v1.593l-.025.036h.025v-.036A3.711,3.711,0,0,1,13.13,14.71C15.589,14.712,17.432,16.318,17.432,19.771ZM2.115,9.558a1.948,1.948,0,1,0-.05,3.885H2.09a1.948,1.948,0,1,0,.025-3.885ZM.222,26.216H3.958V14.976H.222Z" transform="translate(577 1029.442)" fill="#f3f7fe"/>
      <path id="pinterest-2" data-name="pinterest" d="M45.573,1.856A6.947,6.947,0,0,0,40.714,0,7.638,7.638,0,0,0,35.08,2.172a6.418,6.418,0,0,0-1.9,4.449c0,2.017.843,3.564,2.256,4.14a.747.747,0,0,0,.284.058.631.631,0,0,0,.616-.508c.048-.179.158-.622.206-.814a.764.764,0,0,0-.2-.826,2.633,2.633,0,0,1-.6-1.8,4.528,4.528,0,0,1,4.7-4.558c2.42,0,3.923,1.375,3.923,3.589a7.457,7.457,0,0,1-.847,3.643A2.506,2.506,0,0,1,41.437,11a1.374,1.374,0,0,1-1.093-.5,1.257,1.257,0,0,1-.22-1.092c.108-.457.255-.933.4-1.393a8.622,8.622,0,0,0,.505-2.269,1.647,1.647,0,0,0-1.658-1.812c-1.26,0-2.247,1.28-2.247,2.914a4.333,4.333,0,0,0,.309,1.631c-.159.673-1.1,4.672-1.281,5.426-.1.44-.727,3.917.3,4.194,1.159.311,2.2-3.075,2.3-3.457.085-.311.385-1.488.568-2.211a3.5,3.5,0,0,0,2.338.9,5.213,5.213,0,0,0,4.186-2.094A8.407,8.407,0,0,0,47.419,6.1a5.928,5.928,0,0,0-1.846-4.244Z" transform="translate(362.819 1038)" fill="#f3f7fe"/>
      <path id="instagram-2" data-name="instagram" d="M-11607.536,19.8a5.469,5.469,0,0,1-5.464-5.462V5.462A5.471,5.471,0,0,1-11607.535,0h8.868a5.469,5.469,0,0,1,5.464,5.462v8.872a5.469,5.469,0,0,1-5.465,5.462Zm-3.707-14.333v8.872a3.711,3.711,0,0,0,3.707,3.707h8.869a3.712,3.712,0,0,0,3.706-3.707V5.462a3.709,3.709,0,0,0-3.706-3.7h-8.87a3.708,3.708,0,0,0-3.707,3.7Zm3.04,4.436a5.1,5.1,0,0,1,5.1-5.1,5.107,5.107,0,0,1,5.1,5.1,5.107,5.107,0,0,1-5.1,5.1,5.106,5.106,0,0,1-5.1-5.1Zm1.757,0a3.348,3.348,0,0,0,3.346,3.346,3.348,3.348,0,0,0,3.343-3.346,3.348,3.348,0,0,0-3.344-3.343,3.347,3.347,0,0,0-3.345,3.34Zm7.75-4.389a1.308,1.308,0,0,1-.379-.912,1.285,1.285,0,0,1,.378-.913,1.3,1.3,0,0,1,.91-.375,1.3,1.3,0,0,1,.913.376,1.3,1.3,0,0,1,.375.912,1.312,1.312,0,0,1-.376.912,1.3,1.3,0,0,1-.912.376,1.3,1.3,0,0,1-.913-.382Z" transform="translate(11945 1037)" fill="#f3f7fe"/>
      <path id="youtube-2" data-name="youtube" d="M21.507,17.13a2.765,2.765,0,0,0-2.366-2.151,73.537,73.537,0,0,0-8.195-.3,73.55,73.55,0,0,0-8.2.3A2.764,2.764,0,0,0,.386,17.13,23.438,23.438,0,0,0,0,22.3a23.431,23.431,0,0,0,.381,5.173,2.764,2.764,0,0,0,2.365,2.151,73.485,73.485,0,0,0,8.2.3,73.466,73.466,0,0,0,8.2-.3A2.765,2.765,0,0,0,21.5,27.476a23.42,23.42,0,0,0,.383-5.173,23.435,23.435,0,0,0-.376-5.173ZM8.118,25.7V18.463l6.958,3.63Z" transform="translate(514 1025.324)" fill="#f3f7fe"/>
    </g>
  </g>
</svg>
