<svg xmlns="http://www.w3.org/2000/svg" width="1365.94" height="477.685" viewBox="0 0 1365.94 477.685"><defs><style>.a,.e,.f{fill:none;}.a{stroke:#766de8;}.a,.f{stroke-miterlimit:10;}.a,.e{stroke-width:3px;}.b{fill:#4fdc6f;}.c{fill:#f7cf06;}.d{fill:#cfe0ff;}.e{stroke:#4fceff;}.f{stroke:#4dcdfe;stroke-width:2px;}.g{fill:#e7f0fd;opacity:0.996;}</style></defs><g transform="translate(0 -636)"><path class="a" d="M10.718,5.359A5.359,5.359,0,1,1,5.359,0,5.359,5.359,0,0,1,10.718,5.359Z" transform="translate(1027.756 997) rotate(180)"/><path class="b" d="M6.091.272.734,3.806A1.635,1.635,0,0,0,.9,6.632L6.642,9.5A1.634,1.634,0,0,0,9.005,7.945L8.623,1.539A1.635,1.635,0,0,0,6.091.272" transform="matrix(-0.105, 0.995, -0.995, -0.105, 998.956, 696.899)"/><path class="c" d="M4.343.194.524,2.714a1.165,1.165,0,0,0,.12,2.015L4.736,6.777A1.165,1.165,0,0,0,6.421,5.665L6.148,1.1A1.166,1.166,0,0,0,4.343.194Z" transform="translate(728.718 880.582) rotate(129)"/><path class="d" d="M0,0H0V23.9c0-1.732,0-3.314,0-4.827h0A36.087,36.087,0,0,1,13.751,21.71a33.681,33.681,0,0,1,5.9,3.127,33.09,33.09,0,0,1,5.088,4.176A33.167,33.167,0,0,1,28.9,34.121a33.912,33.912,0,0,1,3.118,5.924,36.548,36.548,0,0,1,2.636,13.829,34.953,34.953,0,0,1-.679,6.849,35.026,35.026,0,0,1-1.957,6.455,35.206,35.206,0,0,1-3.118,5.9,35.112,35.112,0,0,1-4.162,5.187,34.682,34.682,0,0,1-5.088,4.313,34.186,34.186,0,0,1-5.9,3.279A34.425,34.425,0,0,1,0,88.671c0,5.913,0,12.073,0,19.066a54.494,54.494,0,0,0,11.082-1.131,52.786,52.786,0,0,0,10.192-3.227A52.835,52.835,0,0,0,30.4,98.3a53.617,53.617,0,0,0,7.867-6.676A54.314,54.314,0,0,0,44.7,83.6a54.5,54.5,0,0,0,4.82-9.134,54.27,54.27,0,0,0,3.025-9.991,54.19,54.19,0,0,0,1.048-10.6,59.125,59.125,0,0,0-1.048-11.153A54.963,54.963,0,0,0,49.516,32.47,52.5,52.5,0,0,0,44.7,23.3a51.307,51.307,0,0,0-6.434-7.907,51.155,51.155,0,0,0-7.868-6.464,52.06,52.06,0,0,0-9.12-4.841A54.255,54.255,0,0,0,11.082,1.052,58.191,58.191,0,0,0,0,0Z" transform="translate(1365.588 747.258) rotate(180)"/><path class="d" d="M-3776.117,188.616a1.627,1.627,0,0,1,1.625-1.63,1.627,1.627,0,0,1,1.625,1.63,1.625,1.625,0,0,1-.167.722q-1.456.014-2.909.014A1.632,1.632,0,0,1-3776.117,188.616Zm-9.657.566a1.633,1.633,0,0,1-.1-.566,1.628,1.628,0,0,1,1.627-1.63,1.628,1.628,0,0,1,1.626,1.63,1.625,1.625,0,0,1-.14.662Q-3784.275,189.244-3785.774,189.182Zm19.413-.566a1.628,1.628,0,0,1,1.625-1.63,1.628,1.628,0,0,1,1.626,1.63,1.653,1.653,0,0,1-.067.467q-1.54.065-3.078.114A1.631,1.631,0,0,1-3766.361,188.616Zm-29.263-.146a1.628,1.628,0,0,1,1.62-1.484,1.628,1.628,0,0,1,1.625,1.63c0,.053,0,.1-.007.156C-3793.472,188.682-3794.549,188.582-3795.623,188.47Zm39.019.146a1.628,1.628,0,0,1,1.626-1.63,1.628,1.628,0,0,1,1.623,1.518c-1.08.082-2.164.158-3.245.228Q-3756.6,188.675-3756.6,188.616Zm11.383-1.63a1.621,1.621,0,0,1,1.295.645q-1.381.151-2.766.289A1.626,1.626,0,0,1-3745.222,186.986Zm-59.437.272a1.615,1.615,0,0,1,.9-.272,1.622,1.622,0,0,1,1.271.614C-3803.218,187.491-3803.938,187.377-3804.66,187.258Zm96.836-8.423a1.628,1.628,0,0,1,1.627-1.629,1.628,1.628,0,0,1,1.625,1.629,1.629,1.629,0,0,1-1.625,1.631A1.629,1.629,0,0,1-3707.824,178.835Zm-9.755,0a1.627,1.627,0,0,1,1.625-1.629,1.628,1.628,0,0,1,1.626,1.629,1.629,1.629,0,0,1-1.626,1.631A1.628,1.628,0,0,1-3717.579,178.835Zm-9.757,0a1.627,1.627,0,0,1,1.626-1.629,1.627,1.627,0,0,1,1.625,1.629,1.628,1.628,0,0,1-1.625,1.631A1.628,1.628,0,0,1-3727.336,178.835Zm-9.756,0a1.628,1.628,0,0,1,1.626-1.629,1.627,1.627,0,0,1,1.626,1.629,1.628,1.628,0,0,1-1.626,1.631A1.629,1.629,0,0,1-3737.092,178.835Zm-9.756,0a1.628,1.628,0,0,1,1.626-1.629,1.628,1.628,0,0,1,1.625,1.629,1.629,1.629,0,0,1-1.625,1.631A1.629,1.629,0,0,1-3746.849,178.835Zm-9.756,0a1.628,1.628,0,0,1,1.626-1.629,1.628,1.628,0,0,1,1.626,1.629,1.629,1.629,0,0,1-1.626,1.631A1.628,1.628,0,0,1-3756.6,178.835Zm-9.756,0a1.628,1.628,0,0,1,1.625-1.629,1.628,1.628,0,0,1,1.626,1.629,1.629,1.629,0,0,1-1.626,1.631A1.628,1.628,0,0,1-3766.361,178.835Zm-9.756,0a1.627,1.627,0,0,1,1.625-1.629,1.627,1.627,0,0,1,1.625,1.629,1.628,1.628,0,0,1-1.625,1.631A1.628,1.628,0,0,1-3776.117,178.835Zm-9.757,0a1.628,1.628,0,0,1,1.627-1.629,1.628,1.628,0,0,1,1.626,1.629,1.629,1.629,0,0,1-1.626,1.631A1.629,1.629,0,0,1-3785.874,178.835Zm-9.756,0a1.628,1.628,0,0,1,1.626-1.629,1.628,1.628,0,0,1,1.625,1.629,1.629,1.629,0,0,1-1.625,1.631A1.629,1.629,0,0,1-3795.63,178.835Zm-9.756,0a1.628,1.628,0,0,1,1.625-1.629,1.628,1.628,0,0,1,1.626,1.629,1.629,1.629,0,0,1-1.626,1.631A1.628,1.628,0,0,1-3805.386,178.835Zm-9.756,0a1.627,1.627,0,0,1,1.626-1.629,1.628,1.628,0,0,1,1.626,1.629,1.629,1.629,0,0,1-1.626,1.631A1.628,1.628,0,0,1-3815.142,178.835Zm-9.756,0a1.627,1.627,0,0,1,1.625-1.629,1.627,1.627,0,0,1,1.625,1.629,1.628,1.628,0,0,1-1.625,1.631A1.628,1.628,0,0,1-3824.9,178.835Zm-9.756-.065a1.628,1.628,0,0,1,1.625-1.564,1.627,1.627,0,0,1,1.625,1.629,1.626,1.626,0,0,1-.41,1.082Q-3833.249,179.358-3834.654,178.77Zm138.212-1.564a1.616,1.616,0,0,1,.744.18c-.731.245-1.462.484-2.2.721A1.626,1.626,0,0,1-3696.441,177.206Zm8.131-8.151a1.628,1.628,0,0,1,1.626-1.631,1.628,1.628,0,0,1,1.625,1.631,1.627,1.627,0,0,1-1.625,1.63A1.627,1.627,0,0,1-3688.311,169.055Zm-9.757,0a1.629,1.629,0,0,1,1.626-1.631,1.629,1.629,0,0,1,1.626,1.631,1.628,1.628,0,0,1-1.626,1.63A1.628,1.628,0,0,1-3698.067,169.055Zm-9.757,0a1.629,1.629,0,0,1,1.627-1.631,1.629,1.629,0,0,1,1.625,1.631,1.628,1.628,0,0,1-1.625,1.63A1.628,1.628,0,0,1-3707.824,169.055Zm-9.755,0a1.628,1.628,0,0,1,1.625-1.631,1.629,1.629,0,0,1,1.626,1.631,1.628,1.628,0,0,1-1.626,1.63A1.628,1.628,0,0,1-3717.579,169.055Zm-9.757,0a1.628,1.628,0,0,1,1.626-1.631,1.628,1.628,0,0,1,1.625,1.631,1.628,1.628,0,0,1-1.625,1.63A1.627,1.627,0,0,1-3727.336,169.055Zm-9.756,0a1.629,1.629,0,0,1,1.626-1.631,1.628,1.628,0,0,1,1.626,1.631,1.628,1.628,0,0,1-1.626,1.63A1.628,1.628,0,0,1-3737.092,169.055Zm-9.756,0a1.629,1.629,0,0,1,1.626-1.631,1.629,1.629,0,0,1,1.625,1.631,1.628,1.628,0,0,1-1.625,1.63A1.628,1.628,0,0,1-3746.849,169.055Zm-9.756,0a1.628,1.628,0,0,1,1.626-1.631,1.629,1.629,0,0,1,1.626,1.631,1.629,1.629,0,0,1-1.626,1.63A1.628,1.628,0,0,1-3756.6,169.055Zm-9.756,0a1.628,1.628,0,0,1,1.625-1.631,1.629,1.629,0,0,1,1.626,1.631,1.628,1.628,0,0,1-1.626,1.63A1.628,1.628,0,0,1-3766.361,169.055Zm-9.756,0a1.628,1.628,0,0,1,1.625-1.631,1.628,1.628,0,0,1,1.625,1.631,1.627,1.627,0,0,1-1.625,1.63A1.627,1.627,0,0,1-3776.117,169.055Zm-9.757,0a1.629,1.629,0,0,1,1.627-1.631,1.629,1.629,0,0,1,1.626,1.631,1.628,1.628,0,0,1-1.626,1.63A1.628,1.628,0,0,1-3785.874,169.055Zm-9.756,0a1.629,1.629,0,0,1,1.626-1.631,1.629,1.629,0,0,1,1.625,1.631,1.628,1.628,0,0,1-1.625,1.63A1.628,1.628,0,0,1-3795.63,169.055Zm-9.756,0a1.628,1.628,0,0,1,1.625-1.631,1.629,1.629,0,0,1,1.626,1.631,1.628,1.628,0,0,1-1.626,1.63A1.628,1.628,0,0,1-3805.386,169.055Zm-9.756,0a1.628,1.628,0,0,1,1.626-1.631,1.629,1.629,0,0,1,1.626,1.631,1.628,1.628,0,0,1-1.626,1.63A1.628,1.628,0,0,1-3815.142,169.055Zm-9.756,0a1.628,1.628,0,0,1,1.625-1.631,1.628,1.628,0,0,1,1.625,1.631,1.627,1.627,0,0,1-1.625,1.63A1.627,1.627,0,0,1-3824.9,169.055Zm-9.757,0a1.629,1.629,0,0,1,1.626-1.631,1.628,1.628,0,0,1,1.625,1.631,1.628,1.628,0,0,1-1.625,1.63A1.628,1.628,0,0,1-3834.655,169.055Zm-9.757,0a1.629,1.629,0,0,1,1.627-1.631,1.628,1.628,0,0,1,1.625,1.631,1.628,1.628,0,0,1-1.625,1.63A1.629,1.629,0,0,1-3844.412,169.055Zm-9.562-.771a1.625,1.625,0,0,1,1.433-.86,1.628,1.628,0,0,1,1.626,1.631,1.624,1.624,0,0,1-.366,1.031Q-3852.656,169.2-3853.974,168.284Zm165.664-9.01a1.627,1.627,0,0,1,1.626-1.63,1.627,1.627,0,0,1,1.625,1.63,1.628,1.628,0,0,1-1.625,1.631A1.628,1.628,0,0,1-3688.311,159.274Zm-9.757,0a1.628,1.628,0,0,1,1.626-1.63,1.628,1.628,0,0,1,1.626,1.63,1.628,1.628,0,0,1-1.626,1.631A1.628,1.628,0,0,1-3698.067,159.274Zm-9.757,0a1.628,1.628,0,0,1,1.627-1.63,1.628,1.628,0,0,1,1.625,1.63,1.628,1.628,0,0,1-1.625,1.631A1.628,1.628,0,0,1-3707.824,159.274Zm-9.755,0a1.628,1.628,0,0,1,1.625-1.63,1.628,1.628,0,0,1,1.626,1.63,1.628,1.628,0,0,1-1.626,1.631A1.628,1.628,0,0,1-3717.579,159.274Zm-9.757,0a1.627,1.627,0,0,1,1.626-1.63,1.627,1.627,0,0,1,1.625,1.63,1.628,1.628,0,0,1-1.625,1.631A1.628,1.628,0,0,1-3727.336,159.274Zm-9.756,0a1.628,1.628,0,0,1,1.626-1.63,1.628,1.628,0,0,1,1.626,1.63,1.628,1.628,0,0,1-1.626,1.631A1.628,1.628,0,0,1-3737.092,159.274Zm-9.756,0a1.628,1.628,0,0,1,1.626-1.63,1.628,1.628,0,0,1,1.625,1.63,1.628,1.628,0,0,1-1.625,1.631A1.628,1.628,0,0,1-3746.849,159.274Zm-9.756,0a1.628,1.628,0,0,1,1.626-1.63,1.629,1.629,0,0,1,1.626,1.63,1.629,1.629,0,0,1-1.626,1.631A1.628,1.628,0,0,1-3756.6,159.274Zm-9.756,0a1.628,1.628,0,0,1,1.625-1.63,1.628,1.628,0,0,1,1.626,1.63,1.628,1.628,0,0,1-1.626,1.631A1.628,1.628,0,0,1-3766.361,159.274Zm-9.756,0a1.627,1.627,0,0,1,1.625-1.63,1.627,1.627,0,0,1,1.625,1.63,1.628,1.628,0,0,1-1.625,1.631A1.627,1.627,0,0,1-3776.117,159.274Zm-9.757,0a1.628,1.628,0,0,1,1.627-1.63,1.628,1.628,0,0,1,1.626,1.63,1.628,1.628,0,0,1-1.626,1.631A1.628,1.628,0,0,1-3785.874,159.274Zm-9.756,0a1.628,1.628,0,0,1,1.626-1.63,1.628,1.628,0,0,1,1.625,1.63A1.628,1.628,0,0,1-3794,160.9,1.628,1.628,0,0,1-3795.63,159.274Zm-9.756,0a1.628,1.628,0,0,1,1.625-1.63,1.628,1.628,0,0,1,1.626,1.63,1.628,1.628,0,0,1-1.626,1.631A1.628,1.628,0,0,1-3805.386,159.274Zm-9.756,0a1.628,1.628,0,0,1,1.626-1.63,1.628,1.628,0,0,1,1.626,1.63,1.628,1.628,0,0,1-1.626,1.631A1.628,1.628,0,0,1-3815.142,159.274Zm-9.756,0a1.627,1.627,0,0,1,1.625-1.63,1.627,1.627,0,0,1,1.625,1.63,1.628,1.628,0,0,1-1.625,1.631A1.627,1.627,0,0,1-3824.9,159.274Zm-9.757,0a1.628,1.628,0,0,1,1.626-1.63,1.628,1.628,0,0,1,1.625,1.63,1.628,1.628,0,0,1-1.625,1.631A1.628,1.628,0,0,1-3834.655,159.274Zm-9.757,0a1.629,1.629,0,0,1,1.627-1.63,1.628,1.628,0,0,1,1.625,1.63,1.628,1.628,0,0,1-1.625,1.631A1.629,1.629,0,0,1-3844.412,159.274Zm-9.755,0a1.628,1.628,0,0,1,1.625-1.63,1.628,1.628,0,0,1,1.626,1.63,1.628,1.628,0,0,1-1.626,1.631A1.628,1.628,0,0,1-3854.167,159.274Zm-9.757,0a1.628,1.628,0,0,1,1.626-1.63,1.628,1.628,0,0,1,1.625,1.63,1.628,1.628,0,0,1-1.625,1.631A1.628,1.628,0,0,1-3863.924,159.274Zm175.613-9.781a1.627,1.627,0,0,1,1.626-1.63,1.627,1.627,0,0,1,1.625,1.63,1.628,1.628,0,0,1-1.625,1.631A1.628,1.628,0,0,1-3688.311,149.493Zm-9.757,0a1.628,1.628,0,0,1,1.626-1.63,1.628,1.628,0,0,1,1.626,1.63,1.629,1.629,0,0,1-1.626,1.631A1.629,1.629,0,0,1-3698.067,149.493Zm-9.757,0a1.628,1.628,0,0,1,1.627-1.63,1.628,1.628,0,0,1,1.625,1.63,1.629,1.629,0,0,1-1.625,1.631A1.629,1.629,0,0,1-3707.824,149.493Zm-9.755,0a1.628,1.628,0,0,1,1.625-1.63,1.628,1.628,0,0,1,1.626,1.63,1.629,1.629,0,0,1-1.626,1.631A1.628,1.628,0,0,1-3717.579,149.493Zm-9.757,0a1.627,1.627,0,0,1,1.626-1.63,1.627,1.627,0,0,1,1.625,1.63,1.628,1.628,0,0,1-1.625,1.631A1.628,1.628,0,0,1-3727.336,149.493Zm-9.756,0a1.628,1.628,0,0,1,1.626-1.63,1.628,1.628,0,0,1,1.626,1.63,1.628,1.628,0,0,1-1.626,1.631A1.629,1.629,0,0,1-3737.092,149.493Zm-9.756,0a1.628,1.628,0,0,1,1.626-1.63,1.628,1.628,0,0,1,1.625,1.63,1.629,1.629,0,0,1-1.625,1.631A1.629,1.629,0,0,1-3746.849,149.493Zm-9.756,0a1.628,1.628,0,0,1,1.626-1.63,1.629,1.629,0,0,1,1.626,1.63,1.629,1.629,0,0,1-1.626,1.631A1.628,1.628,0,0,1-3756.6,149.493Zm-9.756,0a1.628,1.628,0,0,1,1.625-1.63,1.628,1.628,0,0,1,1.626,1.63,1.629,1.629,0,0,1-1.626,1.631A1.628,1.628,0,0,1-3766.361,149.493Zm-9.756,0a1.627,1.627,0,0,1,1.625-1.63,1.627,1.627,0,0,1,1.625,1.63,1.628,1.628,0,0,1-1.625,1.631A1.628,1.628,0,0,1-3776.117,149.493Zm-9.757,0a1.628,1.628,0,0,1,1.627-1.63,1.628,1.628,0,0,1,1.626,1.63,1.629,1.629,0,0,1-1.626,1.631A1.629,1.629,0,0,1-3785.874,149.493Zm-9.756,0a1.628,1.628,0,0,1,1.626-1.63,1.628,1.628,0,0,1,1.625,1.63,1.629,1.629,0,0,1-1.625,1.631A1.629,1.629,0,0,1-3795.63,149.493Zm-9.756,0a1.628,1.628,0,0,1,1.625-1.63,1.628,1.628,0,0,1,1.626,1.63,1.629,1.629,0,0,1-1.626,1.631A1.628,1.628,0,0,1-3805.386,149.493Zm-9.756,0a1.628,1.628,0,0,1,1.626-1.63,1.628,1.628,0,0,1,1.626,1.63,1.629,1.629,0,0,1-1.626,1.631A1.628,1.628,0,0,1-3815.142,149.493Zm-9.756,0a1.627,1.627,0,0,1,1.625-1.63,1.627,1.627,0,0,1,1.625,1.63,1.628,1.628,0,0,1-1.625,1.631A1.628,1.628,0,0,1-3824.9,149.493Zm-9.757,0a1.628,1.628,0,0,1,1.626-1.63,1.628,1.628,0,0,1,1.625,1.63,1.628,1.628,0,0,1-1.625,1.631A1.629,1.629,0,0,1-3834.655,149.493Zm-9.757,0a1.629,1.629,0,0,1,1.627-1.63,1.628,1.628,0,0,1,1.625,1.63,1.628,1.628,0,0,1-1.625,1.631A1.629,1.629,0,0,1-3844.412,149.493Zm-9.755,0a1.628,1.628,0,0,1,1.625-1.63,1.628,1.628,0,0,1,1.626,1.63,1.628,1.628,0,0,1-1.626,1.631A1.628,1.628,0,0,1-3854.167,149.493Zm-9.757,0a1.628,1.628,0,0,1,1.626-1.63,1.628,1.628,0,0,1,1.625,1.63,1.628,1.628,0,0,1-1.625,1.631A1.628,1.628,0,0,1-3863.924,149.493Zm-9.55-.795a1.624,1.624,0,0,1,1.42-.835,1.627,1.627,0,0,1,1.625,1.63,1.629,1.629,0,0,1-1.413,1.617Q-3872.694,149.915-3873.473,148.7Zm185.163-8.986a1.628,1.628,0,0,1,1.626-1.631,1.628,1.628,0,0,1,1.625,1.631,1.627,1.627,0,0,1-1.625,1.63A1.627,1.627,0,0,1-3688.311,139.712Zm-9.757,0a1.629,1.629,0,0,1,1.626-1.631,1.629,1.629,0,0,1,1.626,1.631,1.628,1.628,0,0,1-1.626,1.63A1.628,1.628,0,0,1-3698.067,139.712Zm-9.757,0a1.629,1.629,0,0,1,1.627-1.631,1.629,1.629,0,0,1,1.625,1.631,1.628,1.628,0,0,1-1.625,1.63A1.628,1.628,0,0,1-3707.824,139.712Zm-9.755,0a1.628,1.628,0,0,1,1.625-1.631,1.629,1.629,0,0,1,1.626,1.631,1.628,1.628,0,0,1-1.626,1.63A1.628,1.628,0,0,1-3717.579,139.712Zm-9.757,0a1.628,1.628,0,0,1,1.626-1.631,1.628,1.628,0,0,1,1.625,1.631,1.628,1.628,0,0,1-1.625,1.63A1.627,1.627,0,0,1-3727.336,139.712Zm-9.756,0a1.629,1.629,0,0,1,1.626-1.631,1.628,1.628,0,0,1,1.626,1.631,1.628,1.628,0,0,1-1.626,1.63A1.628,1.628,0,0,1-3737.092,139.712Zm-9.756,0a1.629,1.629,0,0,1,1.626-1.631,1.629,1.629,0,0,1,1.625,1.631,1.628,1.628,0,0,1-1.625,1.63A1.628,1.628,0,0,1-3746.849,139.712Zm-9.756,0a1.628,1.628,0,0,1,1.626-1.631,1.629,1.629,0,0,1,1.626,1.631,1.629,1.629,0,0,1-1.626,1.63A1.628,1.628,0,0,1-3756.6,139.712Zm-9.756,0a1.628,1.628,0,0,1,1.625-1.631,1.629,1.629,0,0,1,1.626,1.631,1.628,1.628,0,0,1-1.626,1.63A1.628,1.628,0,0,1-3766.361,139.712Zm-9.756,0a1.628,1.628,0,0,1,1.625-1.631,1.628,1.628,0,0,1,1.625,1.631,1.627,1.627,0,0,1-1.625,1.63A1.627,1.627,0,0,1-3776.117,139.712Zm-9.757,0a1.629,1.629,0,0,1,1.627-1.631,1.629,1.629,0,0,1,1.626,1.631,1.628,1.628,0,0,1-1.626,1.63A1.628,1.628,0,0,1-3785.874,139.712Zm-9.756,0a1.629,1.629,0,0,1,1.626-1.631,1.629,1.629,0,0,1,1.625,1.631,1.628,1.628,0,0,1-1.625,1.63A1.628,1.628,0,0,1-3795.63,139.712Zm-9.756,0a1.628,1.628,0,0,1,1.625-1.631,1.629,1.629,0,0,1,1.626,1.631,1.628,1.628,0,0,1-1.626,1.63A1.628,1.628,0,0,1-3805.386,139.712Zm-9.756,0a1.628,1.628,0,0,1,1.626-1.631,1.629,1.629,0,0,1,1.626,1.631,1.628,1.628,0,0,1-1.626,1.63A1.628,1.628,0,0,1-3815.142,139.712Zm-9.756,0a1.628,1.628,0,0,1,1.625-1.631,1.628,1.628,0,0,1,1.625,1.631,1.627,1.627,0,0,1-1.625,1.63A1.627,1.627,0,0,1-3824.9,139.712Zm-9.757,0a1.629,1.629,0,0,1,1.626-1.631,1.628,1.628,0,0,1,1.625,1.631,1.628,1.628,0,0,1-1.625,1.63A1.628,1.628,0,0,1-3834.655,139.712Zm-9.757,0a1.629,1.629,0,0,1,1.627-1.631,1.628,1.628,0,0,1,1.625,1.631,1.628,1.628,0,0,1-1.625,1.63A1.629,1.629,0,0,1-3844.412,139.712Zm-9.755,0a1.628,1.628,0,0,1,1.625-1.631,1.628,1.628,0,0,1,1.626,1.631,1.628,1.628,0,0,1-1.626,1.63A1.628,1.628,0,0,1-3854.167,139.712Zm-9.757,0a1.628,1.628,0,0,1,1.626-1.631,1.628,1.628,0,0,1,1.625,1.631,1.628,1.628,0,0,1-1.625,1.63A1.628,1.628,0,0,1-3863.924,139.712Zm-9.755,0a1.628,1.628,0,0,1,1.625-1.631,1.628,1.628,0,0,1,1.625,1.631,1.627,1.627,0,0,1-1.625,1.63A1.627,1.627,0,0,1-3873.679,139.712Zm185.368-9.781a1.627,1.627,0,0,1,1.626-1.63,1.627,1.627,0,0,1,1.625,1.63,1.628,1.628,0,0,1-1.625,1.631A1.628,1.628,0,0,1-3688.311,129.931Zm-9.757,0a1.628,1.628,0,0,1,1.626-1.63,1.628,1.628,0,0,1,1.626,1.63,1.629,1.629,0,0,1-1.626,1.631A1.629,1.629,0,0,1-3698.067,129.931Zm-9.757,0a1.628,1.628,0,0,1,1.627-1.63,1.628,1.628,0,0,1,1.625,1.63,1.629,1.629,0,0,1-1.625,1.631A1.629,1.629,0,0,1-3707.824,129.931Zm-9.755,0a1.628,1.628,0,0,1,1.625-1.63,1.628,1.628,0,0,1,1.626,1.63,1.629,1.629,0,0,1-1.626,1.631A1.628,1.628,0,0,1-3717.579,129.931Zm-9.757,0a1.627,1.627,0,0,1,1.626-1.63,1.628,1.628,0,0,1,1.625,1.63,1.628,1.628,0,0,1-1.625,1.631A1.628,1.628,0,0,1-3727.336,129.931Zm-9.756,0a1.628,1.628,0,0,1,1.626-1.63,1.628,1.628,0,0,1,1.626,1.63,1.628,1.628,0,0,1-1.626,1.631A1.629,1.629,0,0,1-3737.092,129.931Zm-9.756,0a1.628,1.628,0,0,1,1.626-1.63,1.628,1.628,0,0,1,1.625,1.63,1.629,1.629,0,0,1-1.625,1.631A1.629,1.629,0,0,1-3746.849,129.931Zm-9.756,0a1.628,1.628,0,0,1,1.626-1.63,1.629,1.629,0,0,1,1.626,1.63,1.629,1.629,0,0,1-1.626,1.631A1.628,1.628,0,0,1-3756.6,129.931Zm-9.756,0a1.628,1.628,0,0,1,1.625-1.63,1.628,1.628,0,0,1,1.626,1.63,1.629,1.629,0,0,1-1.626,1.631A1.628,1.628,0,0,1-3766.361,129.931Zm-9.756,0a1.627,1.627,0,0,1,1.625-1.63,1.627,1.627,0,0,1,1.625,1.63,1.628,1.628,0,0,1-1.625,1.631A1.628,1.628,0,0,1-3776.117,129.931Zm-9.757,0a1.628,1.628,0,0,1,1.627-1.63,1.628,1.628,0,0,1,1.626,1.63,1.629,1.629,0,0,1-1.626,1.631A1.629,1.629,0,0,1-3785.874,129.931Zm-9.756,0A1.628,1.628,0,0,1-3794,128.3a1.628,1.628,0,0,1,1.625,1.63,1.629,1.629,0,0,1-1.625,1.631A1.629,1.629,0,0,1-3795.63,129.931Zm-9.756,0a1.628,1.628,0,0,1,1.625-1.63,1.628,1.628,0,0,1,1.626,1.63,1.629,1.629,0,0,1-1.626,1.631A1.628,1.628,0,0,1-3805.386,129.931Zm-9.756,0a1.628,1.628,0,0,1,1.626-1.63,1.628,1.628,0,0,1,1.626,1.63,1.629,1.629,0,0,1-1.626,1.631A1.628,1.628,0,0,1-3815.142,129.931Zm-9.756,0a1.627,1.627,0,0,1,1.625-1.63,1.627,1.627,0,0,1,1.625,1.63,1.628,1.628,0,0,1-1.625,1.631A1.628,1.628,0,0,1-3824.9,129.931Zm-9.757,0a1.628,1.628,0,0,1,1.626-1.63,1.628,1.628,0,0,1,1.625,1.63,1.628,1.628,0,0,1-1.625,1.631A1.629,1.629,0,0,1-3834.655,129.931Zm-9.757,0a1.629,1.629,0,0,1,1.627-1.63,1.628,1.628,0,0,1,1.625,1.63,1.628,1.628,0,0,1-1.625,1.631A1.629,1.629,0,0,1-3844.412,129.931Zm-9.755,0a1.628,1.628,0,0,1,1.625-1.63,1.628,1.628,0,0,1,1.626,1.63,1.628,1.628,0,0,1-1.626,1.631A1.628,1.628,0,0,1-3854.167,129.931Zm-9.757,0a1.628,1.628,0,0,1,1.626-1.63,1.628,1.628,0,0,1,1.625,1.63,1.628,1.628,0,0,1-1.625,1.631A1.628,1.628,0,0,1-3863.924,129.931Zm-9.755,0a1.627,1.627,0,0,1,1.625-1.63,1.627,1.627,0,0,1,1.625,1.63,1.628,1.628,0,0,1-1.625,1.631A1.628,1.628,0,0,1-3873.679,129.931Zm-6.921-1.089a1.627,1.627,0,0,1,.416,1.089,1.628,1.628,0,0,1-.2.778Q-3880.513,129.777-3880.6,128.843Zm192.29-8.693a1.627,1.627,0,0,1,1.626-1.63,1.627,1.627,0,0,1,1.625,1.63,1.628,1.628,0,0,1-1.625,1.631A1.628,1.628,0,0,1-3688.311,120.15Zm-9.757,0a1.628,1.628,0,0,1,1.626-1.63,1.628,1.628,0,0,1,1.626,1.63,1.629,1.629,0,0,1-1.626,1.631A1.629,1.629,0,0,1-3698.067,120.15Zm-9.757,0a1.628,1.628,0,0,1,1.627-1.63,1.628,1.628,0,0,1,1.625,1.63,1.629,1.629,0,0,1-1.625,1.631A1.629,1.629,0,0,1-3707.824,120.15Zm-9.755,0a1.628,1.628,0,0,1,1.625-1.63,1.628,1.628,0,0,1,1.626,1.63,1.629,1.629,0,0,1-1.626,1.631A1.628,1.628,0,0,1-3717.579,120.15Zm-9.757,0a1.627,1.627,0,0,1,1.626-1.63,1.627,1.627,0,0,1,1.625,1.63,1.628,1.628,0,0,1-1.625,1.631A1.628,1.628,0,0,1-3727.336,120.15Zm-9.756,0a1.628,1.628,0,0,1,1.626-1.63,1.628,1.628,0,0,1,1.626,1.63,1.628,1.628,0,0,1-1.626,1.631A1.629,1.629,0,0,1-3737.092,120.15Zm-9.756,0a1.628,1.628,0,0,1,1.626-1.63,1.628,1.628,0,0,1,1.625,1.63,1.629,1.629,0,0,1-1.625,1.631A1.629,1.629,0,0,1-3746.849,120.15Zm-9.756,0a1.628,1.628,0,0,1,1.626-1.63,1.629,1.629,0,0,1,1.626,1.63,1.629,1.629,0,0,1-1.626,1.631A1.628,1.628,0,0,1-3756.6,120.15Zm-9.756,0a1.628,1.628,0,0,1,1.625-1.63,1.628,1.628,0,0,1,1.626,1.63,1.629,1.629,0,0,1-1.626,1.631A1.628,1.628,0,0,1-3766.361,120.15Zm-9.756,0a1.627,1.627,0,0,1,1.625-1.63,1.627,1.627,0,0,1,1.625,1.63,1.628,1.628,0,0,1-1.625,1.631A1.628,1.628,0,0,1-3776.117,120.15Zm-9.757,0a1.628,1.628,0,0,1,1.627-1.63,1.628,1.628,0,0,1,1.626,1.63,1.629,1.629,0,0,1-1.626,1.631A1.629,1.629,0,0,1-3785.874,120.15Zm-9.756,0a1.628,1.628,0,0,1,1.626-1.63,1.628,1.628,0,0,1,1.625,1.63,1.629,1.629,0,0,1-1.625,1.631A1.629,1.629,0,0,1-3795.63,120.15Zm-9.756,0a1.628,1.628,0,0,1,1.625-1.63,1.628,1.628,0,0,1,1.626,1.63,1.629,1.629,0,0,1-1.626,1.631A1.628,1.628,0,0,1-3805.386,120.15Zm-9.756,0a1.628,1.628,0,0,1,1.626-1.63,1.628,1.628,0,0,1,1.626,1.63,1.629,1.629,0,0,1-1.626,1.631A1.628,1.628,0,0,1-3815.142,120.15Zm-9.756,0a1.627,1.627,0,0,1,1.625-1.63,1.627,1.627,0,0,1,1.625,1.63,1.628,1.628,0,0,1-1.625,1.631A1.628,1.628,0,0,1-3824.9,120.15Zm-9.757,0a1.628,1.628,0,0,1,1.626-1.63,1.628,1.628,0,0,1,1.625,1.63,1.628,1.628,0,0,1-1.625,1.631A1.629,1.629,0,0,1-3834.655,120.15Zm-9.757,0a1.629,1.629,0,0,1,1.627-1.63,1.628,1.628,0,0,1,1.625,1.63,1.628,1.628,0,0,1-1.625,1.631A1.629,1.629,0,0,1-3844.412,120.15Zm-9.755,0a1.628,1.628,0,0,1,1.625-1.63,1.628,1.628,0,0,1,1.626,1.63,1.628,1.628,0,0,1-1.626,1.631A1.628,1.628,0,0,1-3854.167,120.15Zm-9.757,0a1.628,1.628,0,0,1,1.626-1.63,1.628,1.628,0,0,1,1.625,1.63,1.628,1.628,0,0,1-1.625,1.631A1.628,1.628,0,0,1-3863.924,120.15Zm-9.755,0a1.627,1.627,0,0,1,1.625-1.63,1.627,1.627,0,0,1,1.625,1.63,1.628,1.628,0,0,1-1.625,1.631A1.628,1.628,0,0,1-3873.679,120.15Zm-6.647-.667a1.631,1.631,0,0,1,.142.667,1.626,1.626,0,0,1-.362,1.026C-3880.486,120.611-3880.413,120.049-3880.326,119.483Zm192.016-9.113a1.628,1.628,0,0,1,1.626-1.631,1.628,1.628,0,0,1,1.625,1.631,1.627,1.627,0,0,1-1.625,1.63A1.627,1.627,0,0,1-3688.311,110.37Zm-9.757,0a1.629,1.629,0,0,1,1.626-1.631,1.629,1.629,0,0,1,1.626,1.631,1.628,1.628,0,0,1-1.626,1.63A1.628,1.628,0,0,1-3698.067,110.37Zm-9.757,0a1.629,1.629,0,0,1,1.627-1.631,1.629,1.629,0,0,1,1.625,1.631A1.628,1.628,0,0,1-3706.2,112,1.628,1.628,0,0,1-3707.824,110.37Zm-9.755,0a1.628,1.628,0,0,1,1.625-1.631,1.629,1.629,0,0,1,1.626,1.631,1.628,1.628,0,0,1-1.626,1.63A1.628,1.628,0,0,1-3717.579,110.37Zm-9.757,0a1.628,1.628,0,0,1,1.626-1.631,1.628,1.628,0,0,1,1.625,1.631,1.627,1.627,0,0,1-1.625,1.63A1.627,1.627,0,0,1-3727.336,110.37Zm-9.756,0a1.629,1.629,0,0,1,1.626-1.631,1.628,1.628,0,0,1,1.626,1.631,1.628,1.628,0,0,1-1.626,1.63A1.628,1.628,0,0,1-3737.092,110.37Zm-9.756,0a1.629,1.629,0,0,1,1.626-1.631,1.629,1.629,0,0,1,1.625,1.631,1.628,1.628,0,0,1-1.625,1.63A1.628,1.628,0,0,1-3746.849,110.37Zm-9.756,0a1.628,1.628,0,0,1,1.626-1.631,1.629,1.629,0,0,1,1.626,1.631,1.629,1.629,0,0,1-1.626,1.63A1.628,1.628,0,0,1-3756.6,110.37Zm-9.756,0a1.628,1.628,0,0,1,1.625-1.631,1.629,1.629,0,0,1,1.626,1.631,1.628,1.628,0,0,1-1.626,1.63A1.628,1.628,0,0,1-3766.361,110.37Zm-9.756,0a1.628,1.628,0,0,1,1.625-1.631,1.628,1.628,0,0,1,1.625,1.631,1.627,1.627,0,0,1-1.625,1.63A1.627,1.627,0,0,1-3776.117,110.37Zm-9.757,0a1.629,1.629,0,0,1,1.627-1.631,1.629,1.629,0,0,1,1.626,1.631,1.628,1.628,0,0,1-1.626,1.63A1.628,1.628,0,0,1-3785.874,110.37Zm-9.756,0a1.629,1.629,0,0,1,1.626-1.631,1.629,1.629,0,0,1,1.625,1.631A1.628,1.628,0,0,1-3794,112,1.628,1.628,0,0,1-3795.63,110.37Zm-9.756,0a1.628,1.628,0,0,1,1.625-1.631,1.629,1.629,0,0,1,1.626,1.631,1.628,1.628,0,0,1-1.626,1.63A1.628,1.628,0,0,1-3805.386,110.37Zm-9.756,0a1.628,1.628,0,0,1,1.626-1.631,1.629,1.629,0,0,1,1.626,1.631,1.628,1.628,0,0,1-1.626,1.63A1.628,1.628,0,0,1-3815.142,110.37Zm-9.756,0a1.628,1.628,0,0,1,1.625-1.631,1.628,1.628,0,0,1,1.625,1.631,1.627,1.627,0,0,1-1.625,1.63A1.627,1.627,0,0,1-3824.9,110.37Zm-9.757,0a1.629,1.629,0,0,1,1.626-1.631,1.628,1.628,0,0,1,1.625,1.631,1.628,1.628,0,0,1-1.625,1.63A1.628,1.628,0,0,1-3834.655,110.37Zm-9.757,0a1.629,1.629,0,0,1,1.627-1.631,1.628,1.628,0,0,1,1.625,1.631,1.628,1.628,0,0,1-1.625,1.63A1.629,1.629,0,0,1-3844.412,110.37Zm-9.755,0a1.628,1.628,0,0,1,1.625-1.631,1.628,1.628,0,0,1,1.626,1.631,1.628,1.628,0,0,1-1.626,1.63A1.628,1.628,0,0,1-3854.167,110.37Zm-9.757,0a1.628,1.628,0,0,1,1.626-1.631,1.628,1.628,0,0,1,1.625,1.631A1.628,1.628,0,0,1-3862.3,112,1.628,1.628,0,0,1-3863.924,110.37Zm-9.755,0a1.628,1.628,0,0,1,1.625-1.631,1.628,1.628,0,0,1,1.625,1.631,1.627,1.627,0,0,1-1.625,1.63A1.627,1.627,0,0,1-3873.679,110.37Zm185.368-9.781a1.627,1.627,0,0,1,1.626-1.63,1.627,1.627,0,0,1,1.625,1.63,1.627,1.627,0,0,1-1.625,1.63A1.627,1.627,0,0,1-3688.311,100.589Zm-9.757,0a1.628,1.628,0,0,1,1.626-1.63,1.628,1.628,0,0,1,1.626,1.63,1.628,1.628,0,0,1-1.626,1.63A1.628,1.628,0,0,1-3698.067,100.589Zm-9.757,0a1.628,1.628,0,0,1,1.627-1.63,1.628,1.628,0,0,1,1.625,1.63,1.628,1.628,0,0,1-1.625,1.63A1.628,1.628,0,0,1-3707.824,100.589Zm-9.755,0a1.628,1.628,0,0,1,1.625-1.63,1.628,1.628,0,0,1,1.626,1.63,1.628,1.628,0,0,1-1.626,1.63A1.628,1.628,0,0,1-3717.579,100.589Zm-9.757,0a1.627,1.627,0,0,1,1.626-1.63,1.628,1.628,0,0,1,1.625,1.63,1.627,1.627,0,0,1-1.625,1.63A1.627,1.627,0,0,1-3727.336,100.589Zm-9.756,0a1.628,1.628,0,0,1,1.626-1.63,1.628,1.628,0,0,1,1.626,1.63,1.628,1.628,0,0,1-1.626,1.63A1.628,1.628,0,0,1-3737.092,100.589Zm-9.756,0a1.628,1.628,0,0,1,1.626-1.63,1.628,1.628,0,0,1,1.625,1.63,1.628,1.628,0,0,1-1.625,1.63A1.628,1.628,0,0,1-3746.849,100.589Zm-9.756,0a1.628,1.628,0,0,1,1.626-1.63,1.629,1.629,0,0,1,1.626,1.63,1.629,1.629,0,0,1-1.626,1.63A1.628,1.628,0,0,1-3756.6,100.589Zm-9.756,0a1.628,1.628,0,0,1,1.625-1.63,1.628,1.628,0,0,1,1.626,1.63,1.628,1.628,0,0,1-1.626,1.63A1.628,1.628,0,0,1-3766.361,100.589Zm-9.756,0a1.627,1.627,0,0,1,1.625-1.63,1.627,1.627,0,0,1,1.625,1.63,1.627,1.627,0,0,1-1.625,1.63A1.627,1.627,0,0,1-3776.117,100.589Zm-9.757,0a1.628,1.628,0,0,1,1.627-1.63,1.628,1.628,0,0,1,1.626,1.63,1.628,1.628,0,0,1-1.626,1.63A1.628,1.628,0,0,1-3785.874,100.589Zm-9.756,0a1.628,1.628,0,0,1,1.626-1.63,1.628,1.628,0,0,1,1.625,1.63,1.628,1.628,0,0,1-1.625,1.63A1.628,1.628,0,0,1-3795.63,100.589Zm-9.756,0a1.628,1.628,0,0,1,1.625-1.63,1.628,1.628,0,0,1,1.626,1.63,1.628,1.628,0,0,1-1.626,1.63A1.628,1.628,0,0,1-3805.386,100.589Zm-9.756,0a1.628,1.628,0,0,1,1.626-1.63,1.628,1.628,0,0,1,1.626,1.63,1.628,1.628,0,0,1-1.626,1.63A1.628,1.628,0,0,1-3815.142,100.589Zm-9.756,0a1.627,1.627,0,0,1,1.625-1.63,1.627,1.627,0,0,1,1.625,1.63,1.627,1.627,0,0,1-1.625,1.63A1.627,1.627,0,0,1-3824.9,100.589Zm-9.757,0a1.628,1.628,0,0,1,1.626-1.63,1.628,1.628,0,0,1,1.625,1.63,1.628,1.628,0,0,1-1.625,1.63A1.628,1.628,0,0,1-3834.655,100.589Zm-9.757,0a1.629,1.629,0,0,1,1.627-1.63,1.628,1.628,0,0,1,1.625,1.63,1.628,1.628,0,0,1-1.625,1.63A1.629,1.629,0,0,1-3844.412,100.589Zm-9.755,0a1.628,1.628,0,0,1,1.625-1.63,1.628,1.628,0,0,1,1.626,1.63,1.628,1.628,0,0,1-1.626,1.63A1.628,1.628,0,0,1-3854.167,100.589Zm-9.757,0a1.628,1.628,0,0,1,1.626-1.63,1.628,1.628,0,0,1,1.625,1.63,1.628,1.628,0,0,1-1.625,1.63A1.628,1.628,0,0,1-3863.924,100.589Zm175.613-9.781a1.627,1.627,0,0,1,1.626-1.63,1.627,1.627,0,0,1,1.625,1.63,1.628,1.628,0,0,1-1.625,1.631A1.628,1.628,0,0,1-3688.311,90.808Zm-9.757,0a1.628,1.628,0,0,1,1.626-1.63,1.628,1.628,0,0,1,1.626,1.63,1.629,1.629,0,0,1-1.626,1.631A1.629,1.629,0,0,1-3698.067,90.808Zm-9.757,0a1.628,1.628,0,0,1,1.627-1.63,1.628,1.628,0,0,1,1.625,1.63,1.629,1.629,0,0,1-1.625,1.631A1.629,1.629,0,0,1-3707.824,90.808Zm-9.755,0a1.628,1.628,0,0,1,1.625-1.63,1.628,1.628,0,0,1,1.626,1.63,1.629,1.629,0,0,1-1.626,1.631A1.628,1.628,0,0,1-3717.579,90.808Zm-9.757,0a1.627,1.627,0,0,1,1.626-1.63,1.628,1.628,0,0,1,1.625,1.63,1.628,1.628,0,0,1-1.625,1.631A1.628,1.628,0,0,1-3727.336,90.808Zm-9.756,0a1.628,1.628,0,0,1,1.626-1.63,1.628,1.628,0,0,1,1.626,1.63,1.628,1.628,0,0,1-1.626,1.631A1.629,1.629,0,0,1-3737.092,90.808Zm-9.756,0a1.628,1.628,0,0,1,1.626-1.63,1.628,1.628,0,0,1,1.625,1.63,1.629,1.629,0,0,1-1.625,1.631A1.629,1.629,0,0,1-3746.849,90.808Zm-9.756,0a1.628,1.628,0,0,1,1.626-1.63,1.629,1.629,0,0,1,1.626,1.63,1.629,1.629,0,0,1-1.626,1.631A1.628,1.628,0,0,1-3756.6,90.808Zm-9.756,0a1.628,1.628,0,0,1,1.625-1.63,1.628,1.628,0,0,1,1.626,1.63,1.629,1.629,0,0,1-1.626,1.631A1.628,1.628,0,0,1-3766.361,90.808Zm-9.756,0a1.627,1.627,0,0,1,1.625-1.63,1.627,1.627,0,0,1,1.625,1.63,1.628,1.628,0,0,1-1.625,1.631A1.628,1.628,0,0,1-3776.117,90.808Zm-9.757,0a1.628,1.628,0,0,1,1.627-1.63,1.628,1.628,0,0,1,1.626,1.63,1.629,1.629,0,0,1-1.626,1.631A1.629,1.629,0,0,1-3785.874,90.808Zm-9.756,0a1.628,1.628,0,0,1,1.626-1.63,1.628,1.628,0,0,1,1.625,1.63A1.629,1.629,0,0,1-3794,92.439,1.629,1.629,0,0,1-3795.63,90.808Zm-9.756,0a1.628,1.628,0,0,1,1.625-1.63,1.628,1.628,0,0,1,1.626,1.63,1.629,1.629,0,0,1-1.626,1.631A1.628,1.628,0,0,1-3805.386,90.808Zm-9.756,0a1.628,1.628,0,0,1,1.626-1.63,1.628,1.628,0,0,1,1.626,1.63,1.629,1.629,0,0,1-1.626,1.631A1.628,1.628,0,0,1-3815.142,90.808Zm-9.756,0a1.627,1.627,0,0,1,1.625-1.63,1.627,1.627,0,0,1,1.625,1.63,1.628,1.628,0,0,1-1.625,1.631A1.628,1.628,0,0,1-3824.9,90.808Zm-9.757,0a1.628,1.628,0,0,1,1.626-1.63,1.628,1.628,0,0,1,1.625,1.63,1.628,1.628,0,0,1-1.625,1.631A1.629,1.629,0,0,1-3834.655,90.808Zm-9.512.859q1.479-.368,3-.737a1.628,1.628,0,0,1-1.621,1.509A1.626,1.626,0,0,1-3844.167,91.667Zm155.857-10.639a1.628,1.628,0,0,1,1.626-1.631,1.628,1.628,0,0,1,1.625,1.631,1.627,1.627,0,0,1-1.625,1.63A1.627,1.627,0,0,1-3688.311,81.028Zm-9.757,0a1.629,1.629,0,0,1,1.626-1.631,1.629,1.629,0,0,1,1.626,1.631,1.628,1.628,0,0,1-1.626,1.63A1.628,1.628,0,0,1-3698.067,81.028Zm-9.757,0A1.629,1.629,0,0,1-3706.2,79.4a1.629,1.629,0,0,1,1.625,1.631,1.628,1.628,0,0,1-1.625,1.63A1.628,1.628,0,0,1-3707.824,81.028Zm-9.755,0a1.628,1.628,0,0,1,1.625-1.631,1.629,1.629,0,0,1,1.626,1.631,1.628,1.628,0,0,1-1.626,1.63A1.628,1.628,0,0,1-3717.579,81.028Zm-9.757,0a1.628,1.628,0,0,1,1.626-1.631,1.628,1.628,0,0,1,1.625,1.631,1.628,1.628,0,0,1-1.625,1.63A1.627,1.627,0,0,1-3727.336,81.028Zm-9.756,0a1.629,1.629,0,0,1,1.626-1.631,1.628,1.628,0,0,1,1.626,1.631,1.628,1.628,0,0,1-1.626,1.63A1.628,1.628,0,0,1-3737.092,81.028Zm-9.756,0a1.629,1.629,0,0,1,1.626-1.631,1.629,1.629,0,0,1,1.625,1.631,1.628,1.628,0,0,1-1.625,1.63A1.628,1.628,0,0,1-3746.849,81.028Zm-9.756,0a1.628,1.628,0,0,1,1.626-1.631,1.629,1.629,0,0,1,1.626,1.631,1.629,1.629,0,0,1-1.626,1.63A1.628,1.628,0,0,1-3756.6,81.028Zm-9.756,0a1.628,1.628,0,0,1,1.625-1.631,1.629,1.629,0,0,1,1.626,1.631,1.628,1.628,0,0,1-1.626,1.63A1.628,1.628,0,0,1-3766.361,81.028Zm-9.756,0a1.628,1.628,0,0,1,1.625-1.631,1.628,1.628,0,0,1,1.625,1.631,1.627,1.627,0,0,1-1.625,1.63A1.627,1.627,0,0,1-3776.117,81.028Zm-9.757,0a1.629,1.629,0,0,1,1.627-1.631,1.629,1.629,0,0,1,1.626,1.631,1.628,1.628,0,0,1-1.626,1.63A1.628,1.628,0,0,1-3785.874,81.028Zm-9.756,0A1.629,1.629,0,0,1-3794,79.4a1.629,1.629,0,0,1,1.625,1.631,1.628,1.628,0,0,1-1.625,1.63A1.628,1.628,0,0,1-3795.63,81.028Zm-9.751.129q1.472-.512,2.958-1.057a1.625,1.625,0,0,1,.289.928,1.628,1.628,0,0,1-1.626,1.63A1.628,1.628,0,0,1-3805.381,81.157Zm117.071-9.91a1.627,1.627,0,0,1,1.626-1.63,1.627,1.627,0,0,1,1.625,1.63,1.627,1.627,0,0,1-1.625,1.63A1.627,1.627,0,0,1-3688.311,71.246Zm-9.757,0a1.628,1.628,0,0,1,1.626-1.63,1.628,1.628,0,0,1,1.626,1.63,1.628,1.628,0,0,1-1.626,1.63A1.628,1.628,0,0,1-3698.067,71.246Zm-9.757,0a1.628,1.628,0,0,1,1.627-1.63,1.628,1.628,0,0,1,1.625,1.63,1.628,1.628,0,0,1-1.625,1.63A1.628,1.628,0,0,1-3707.824,71.246Zm-9.755,0a1.628,1.628,0,0,1,1.625-1.63,1.628,1.628,0,0,1,1.626,1.63,1.628,1.628,0,0,1-1.626,1.63A1.628,1.628,0,0,1-3717.579,71.246Zm-9.757,0a1.627,1.627,0,0,1,1.626-1.63,1.627,1.627,0,0,1,1.625,1.63,1.627,1.627,0,0,1-1.625,1.63A1.627,1.627,0,0,1-3727.336,71.246Zm-9.756,0a1.628,1.628,0,0,1,1.626-1.63,1.628,1.628,0,0,1,1.626,1.63,1.628,1.628,0,0,1-1.626,1.63A1.628,1.628,0,0,1-3737.092,71.246Zm-9.756,0a1.628,1.628,0,0,1,1.626-1.63,1.628,1.628,0,0,1,1.625,1.63,1.628,1.628,0,0,1-1.625,1.63A1.628,1.628,0,0,1-3746.849,71.246Zm-9.756,0a1.628,1.628,0,0,1,1.626-1.63,1.629,1.629,0,0,1,1.626,1.63,1.629,1.629,0,0,1-1.626,1.63A1.628,1.628,0,0,1-3756.6,71.246Zm-9.756,0a1.628,1.628,0,0,1,1.625-1.63,1.628,1.628,0,0,1,1.626,1.63,1.628,1.628,0,0,1-1.626,1.63A1.628,1.628,0,0,1-3766.361,71.246Zm-9.756,0a1.627,1.627,0,0,1,1.625-1.63,1.627,1.627,0,0,1,1.625,1.63,1.627,1.627,0,0,1-1.625,1.63A1.627,1.627,0,0,1-3776.117,71.246Zm-8.991,1.383q1.239-.623,2.483-1.277a1.628,1.628,0,0,1-1.622,1.524A1.618,1.618,0,0,1-3785.108,72.63Zm96.8-11.164a1.627,1.627,0,0,1,1.626-1.63,1.627,1.627,0,0,1,1.625,1.63,1.628,1.628,0,0,1-1.625,1.631A1.628,1.628,0,0,1-3688.311,61.465Zm-9.757,0a1.628,1.628,0,0,1,1.626-1.63,1.628,1.628,0,0,1,1.626,1.63,1.629,1.629,0,0,1-1.626,1.631A1.629,1.629,0,0,1-3698.067,61.465Zm-9.757,0a1.628,1.628,0,0,1,1.627-1.63,1.628,1.628,0,0,1,1.625,1.63A1.629,1.629,0,0,1-3706.2,63.1,1.629,1.629,0,0,1-3707.824,61.465Zm-9.755,0a1.628,1.628,0,0,1,1.625-1.63,1.628,1.628,0,0,1,1.626,1.63,1.629,1.629,0,0,1-1.626,1.631A1.628,1.628,0,0,1-3717.579,61.465Zm-9.757,0a1.627,1.627,0,0,1,1.626-1.63,1.628,1.628,0,0,1,1.625,1.63,1.628,1.628,0,0,1-1.625,1.631A1.628,1.628,0,0,1-3727.336,61.465Zm-9.756,0a1.628,1.628,0,0,1,1.626-1.63,1.628,1.628,0,0,1,1.626,1.63,1.628,1.628,0,0,1-1.626,1.631A1.629,1.629,0,0,1-3737.092,61.465Zm-9.756,0a1.628,1.628,0,0,1,1.626-1.63,1.628,1.628,0,0,1,1.625,1.63,1.629,1.629,0,0,1-1.625,1.631A1.629,1.629,0,0,1-3746.849,61.465Zm-9.756,0a1.628,1.628,0,0,1,1.626-1.63,1.629,1.629,0,0,1,1.626,1.63,1.629,1.629,0,0,1-1.626,1.631A1.628,1.628,0,0,1-3756.6,61.465Zm-9.756,0c0-.011,0-.022,0-.034q1.062-.745,2.125-1.518a1.63,1.63,0,0,1,1.127,1.552,1.629,1.629,0,0,1-1.626,1.631A1.628,1.628,0,0,1-3766.361,61.465Zm78.05-9.78a1.628,1.628,0,0,1,1.626-1.631,1.628,1.628,0,0,1,1.625,1.631,1.627,1.627,0,0,1-1.625,1.63A1.627,1.627,0,0,1-3688.311,51.685Zm-9.757,0a1.629,1.629,0,0,1,1.626-1.631,1.629,1.629,0,0,1,1.626,1.631,1.628,1.628,0,0,1-1.626,1.63A1.628,1.628,0,0,1-3698.067,51.685Zm-9.757,0a1.629,1.629,0,0,1,1.627-1.631,1.629,1.629,0,0,1,1.625,1.631,1.628,1.628,0,0,1-1.625,1.63A1.628,1.628,0,0,1-3707.824,51.685Zm-9.755,0a1.628,1.628,0,0,1,1.625-1.631,1.629,1.629,0,0,1,1.626,1.631,1.628,1.628,0,0,1-1.626,1.63A1.628,1.628,0,0,1-3717.579,51.685Zm-9.757,0a1.628,1.628,0,0,1,1.626-1.631,1.628,1.628,0,0,1,1.625,1.631,1.628,1.628,0,0,1-1.625,1.63A1.627,1.627,0,0,1-3727.336,51.685Zm-9.756,0a1.629,1.629,0,0,1,1.626-1.631,1.628,1.628,0,0,1,1.626,1.631,1.628,1.628,0,0,1-1.626,1.63A1.628,1.628,0,0,1-3737.092,51.685Zm-9.756,0a1.629,1.629,0,0,1,1.626-1.631,1.629,1.629,0,0,1,1.625,1.631,1.628,1.628,0,0,1-1.625,1.63A1.628,1.628,0,0,1-3746.849,51.685Zm-8.793,1.489c.743-.627,1.49-1.269,2.232-1.919a1.641,1.641,0,0,1,.057.43,1.629,1.629,0,0,1-1.626,1.63A1.617,1.617,0,0,1-3755.641,53.174Zm67.331-11.27a1.628,1.628,0,0,1,1.626-1.631,1.628,1.628,0,0,1,1.625,1.631,1.627,1.627,0,0,1-1.625,1.63A1.627,1.627,0,0,1-3688.311,41.9Zm-9.757,0a1.628,1.628,0,0,1,1.626-1.631,1.628,1.628,0,0,1,1.626,1.631,1.628,1.628,0,0,1-1.626,1.63A1.628,1.628,0,0,1-3698.067,41.9Zm-9.757,0a1.628,1.628,0,0,1,1.627-1.631,1.628,1.628,0,0,1,1.625,1.631,1.628,1.628,0,0,1-1.625,1.63A1.628,1.628,0,0,1-3707.824,41.9Zm-9.755,0a1.628,1.628,0,0,1,1.625-1.631,1.628,1.628,0,0,1,1.626,1.631,1.628,1.628,0,0,1-1.626,1.63A1.628,1.628,0,0,1-3717.579,41.9Zm-9.757,0a1.628,1.628,0,0,1,1.626-1.631,1.628,1.628,0,0,1,1.625,1.631,1.628,1.628,0,0,1-1.625,1.63A1.627,1.627,0,0,1-3727.336,41.9Zm-9.756,0a1.628,1.628,0,0,1,1.626-1.631,1.628,1.628,0,0,1,1.626,1.631,1.628,1.628,0,0,1-1.626,1.63A1.628,1.628,0,0,1-3737.092,41.9Zm-6.52.223a1.628,1.628,0,0,1-1.513,1.4C-3744.62,43.056-3744.118,42.591-3743.612,42.127Zm55.3-10a1.627,1.627,0,0,1,1.626-1.63,1.627,1.627,0,0,1,1.625,1.63,1.628,1.628,0,0,1-1.625,1.631A1.628,1.628,0,0,1-3688.311,32.123Zm-9.757,0a1.628,1.628,0,0,1,1.626-1.63,1.628,1.628,0,0,1,1.626,1.63,1.629,1.629,0,0,1-1.626,1.631A1.629,1.629,0,0,1-3698.067,32.123Zm-9.757,0a1.628,1.628,0,0,1,1.627-1.63,1.628,1.628,0,0,1,1.625,1.63,1.629,1.629,0,0,1-1.625,1.631A1.629,1.629,0,0,1-3707.824,32.123Zm-9.755,0a1.628,1.628,0,0,1,1.625-1.63,1.628,1.628,0,0,1,1.626,1.63,1.629,1.629,0,0,1-1.626,1.631A1.628,1.628,0,0,1-3717.579,32.123Zm-9.757,0a1.627,1.627,0,0,1,1.626-1.63,1.628,1.628,0,0,1,1.625,1.63,1.628,1.628,0,0,1-1.625,1.631A1.628,1.628,0,0,1-3727.336,32.123Zm39.025-9.78a1.628,1.628,0,0,1,1.626-1.631,1.628,1.628,0,0,1,1.625,1.631,1.628,1.628,0,0,1-1.625,1.63A1.628,1.628,0,0,1-3688.311,22.343Zm-9.757,0a1.629,1.629,0,0,1,1.626-1.631,1.629,1.629,0,0,1,1.626,1.631,1.629,1.629,0,0,1-1.626,1.63A1.628,1.628,0,0,1-3698.067,22.343Zm-9.757,0a1.629,1.629,0,0,1,1.627-1.631,1.629,1.629,0,0,1,1.625,1.631,1.628,1.628,0,0,1-1.625,1.63A1.629,1.629,0,0,1-3707.824,22.343Zm-9.545.8q1.439-.786,2.876-1.518a1.627,1.627,0,0,1,.165.716,1.629,1.629,0,0,1-1.626,1.63A1.624,1.624,0,0,1-3717.369,23.145Zm29.059-10.583c0-.034,0-.067,0-.1q1.568-.3,3.12-.537a1.636,1.636,0,0,1,.128.637,1.627,1.627,0,0,1-1.625,1.63A1.627,1.627,0,0,1-3688.311,12.562Z" transform="translate(5051 896)"/><path class="e" d="M17.861.8,2.153,11.162a4.793,4.793,0,0,0,.5,8.287l16.829,8.422A4.793,4.793,0,0,0,26.406,23.3L25.286,4.514A4.794,4.794,0,0,0,17.861.8" transform="translate(1312.727 969.089) rotate(172)"/><path class="f" d="M9.32,4.66A4.66,4.66,0,1,1,4.66,0,4.66,4.66,0,0,1,9.32,4.66Z" transform="translate(438.756 687) rotate(180)"/><path class="g" d="M.012,477.685c0-28.064,0-52.121,0-73.1a178.27,178.27,0,0,0,34.06-3.255,167.261,167.261,0,0,0,31.387-9.379A161.18,161.18,0,0,0,93.6,377.006a158.692,158.692,0,0,0,24.314-19.958,159.047,159.047,0,0,0,19.914-24.411,162.291,162.291,0,0,0,14.937-28.308,169.29,169.29,0,0,0,9.385-31.647,181.518,181.518,0,0,0,3.256-34.43,166.333,166.333,0,0,0-3.256-32.72,167.087,167.087,0,0,0-9.384-30.835,168.4,168.4,0,0,0-14.936-28.187,168.267,168.267,0,0,0-19.912-24.776,166.262,166.262,0,0,0-24.313-20.6A163.617,163.617,0,0,0,65.467,85.471a162.819,162.819,0,0,0-31.386-9.96A167.091,167.091,0,0,0,.021,72.016V0a240,240,0,0,1,48.93,5.011,233.862,233.862,0,0,1,45.09,14.3,234.989,234.989,0,0,1,40.422,22.494A238.821,238.821,0,0,1,169.39,71.4,241.692,241.692,0,0,1,198,106.984a241.872,241.872,0,0,1,21.457,40.491,240.01,240.01,0,0,1,13.481,44.3,238.933,238.933,0,0,1,4.677,47,260.742,260.742,0,0,1-4.678,49.458,243.177,243.177,0,0,1-13.482,45.461,233.117,233.117,0,0,1-21.458,40.663,228.409,228.409,0,0,1-28.608,35.064,227.912,227.912,0,0,1-34.929,28.666,231.523,231.523,0,0,1-40.424,21.467,240.257,240.257,0,0,1-45.091,13.467,256.083,256.083,0,0,1-48.93,4.667Z" transform="translate(-0.011 636)"/><path class="e" d="M17.861.8,2.153,11.162a4.793,4.793,0,0,0,.5,8.287l16.829,8.422A4.793,4.793,0,0,0,26.406,23.3L25.286,4.514A4.794,4.794,0,0,0,17.861.8" transform="translate(102.727 743.089) rotate(172)"/><path class="c" d="M10.377,6A5.217,5.217,0,1,1,6,.059,5.218,5.218,0,0,1,10.377,6" transform="translate(64.436 1035.68) rotate(180)"/></g></svg>