<svg xmlns="http://www.w3.org/2000/svg" xmlns:xlink="http://www.w3.org/1999/xlink" width="302.59" height="255.528" viewBox="0 0 302.59 255.528"><defs><style>.a{fill:url(#a);}.b{fill:url(#b);}.c{fill:#5690ff;}.d{fill:#fff;}.e{fill:#b9ceff;}.f{fill:#0467d3;}.g{fill:#4edc6e;}.h{fill:#f37b6a;}.i{fill:#387dff;}.j{fill:#edf4ff;}.k{fill:#4ecdff;}.l{fill:#f7ce05;}.m{fill:url(#e);}.n{filter:url(#c);}</style><linearGradient id="a" x1="1.043" y1="-0.025" x2="0.262" y2="0.613" gradientUnits="objectBoundingBox"><stop offset="0" stop-color="#b9cfff"/><stop offset="1" stop-color="#cee0ff"/></linearGradient><linearGradient id="b" x1="0.152" y1="0.248" x2="0.592" y2="0.762" gradientUnits="objectBoundingBox"><stop offset="0" stop-color="#387dff"/><stop offset="1" stop-color="#5690ff"/></linearGradient><filter id="c" x="118.138" y="94.18" width="74.968" height="74.968" filterUnits="userSpaceOnUse"><feOffset dy="3" input="SourceAlpha"/><feGaussianBlur stdDeviation="5" result="d"/><feFlood flood-color="#0052e0" flood-opacity="0.502"/><feComposite operator="in" in2="d"/><feComposite in="SourceGraphic"/></filter><linearGradient id="e" y1="0.5" x2="1" y2="0.5" gradientUnits="objectBoundingBox"><stop offset="0" stop-color="#58f17b"/><stop offset="0.1" stop-color="#52ee7a"/><stop offset="0.2" stop-color="#4bea79"/><stop offset="0.3" stop-color="#44e677"/><stop offset="0.4" stop-color="#3ee376"/><stop offset="0.5" stop-color="#37df75"/><stop offset="0.6" stop-color="#31db74"/><stop offset="0.7" stop-color="#2ad872"/><stop offset="0.8" stop-color="#24d471"/><stop offset="0.9" stop-color="#1dd170"/><stop offset="1" stop-color="#16cd6f"/></linearGradient></defs><g transform="translate(-8927.862 -2743.82)"><path class="a" d="M194.761,231.229C74.568,265.274-20.631,203.5,3.869,134,24.592,75.241,114.9,156.9,156.127,84.806,230.26-44.756,285.978,1.623,297.4,44.766a156.642,156.642,0,0,1-14.049,115.267C264.1,195,232.232,220.614,194.761,231.229Z" transform="translate(8927.862 2758.48)"/><path class="b" d="M2.374,20.97c-2.93,6.51-3.42,13.63.08,19.29a14,14,0,0,0,14.74,6.22c5.7-1.29,8.93-5.56,13.43-8.34,5-3.1,10.25-3.12,15.81-5.05,7.83-2.73,12.24-10.08,11.86-16.4-1-16.27-25.7-21.94-42.44-11.18A36.45,36.45,0,0,0,2.794,20.15,5.775,5.775,0,0,0,2.374,20.97Z" transform="translate(9020.866 2743.82)"/><rect class="c" width="262.27" height="147.53" rx="9.91" transform="translate(8952 2799)"/><path class="d" d="M0,0H236.02V122.81H0Z" transform="translate(8964.19 2811.1)"/><path class="d" d="M1.671.326a11.58,11.58,0,0,0,2,14.45c.61.6,1.55-.34.94-.94A10.26,10.26,0,0,1,2.851,1a.661.661,0,1,0-1.14-.67Z" transform="translate(9085.699 2852.484)"/><path class="d" d="M.334,1.233l2.91,1.51c.75.4,1.43-.75.67-1.14L1,.083C.244-.317-.426.833.334,1.233Z" transform="translate(9093.525 2869.437)"/><g transform="translate(-15.73 5.94)"><path class="e" d="M26.185,13.68l.08-.08.08-.08,2.15-2-1,.36a8.13,8.13,0,0,0,.6-3.23,8,8,0,0,0-2.67-6.25Q22.765,0,17.275,0a22.47,22.47,0,0,0-5.65.73,14.6,14.6,0,0,0-5.08,2.4,12.88,12.88,0,0,0-3.69,4.3,13.32,13.32,0,0,0-1.43,6.43,12.12,12.12,0,0,0,1.11,5.55,10.73,10.73,0,0,0,2.81,3.54,14.32,14.32,0,0,0,3.65,2.17c1.31.52,2.53,1,3.66,1.52a12.36,12.36,0,0,1,2.8,1.6,2.85,2.85,0,0,1,1.12,2.34,2.48,2.48,0,0,1-.39,1.41,2.76,2.76,0,0,1-1,.93,4.39,4.39,0,0,1-1.4.5,9.24,9.24,0,0,1-5.21-.56,14.39,14.39,0,0,1-2.72-1.57l-2.07-1.58a3.57,3.57,0,0,0-.81-.49l.31-1.9-2.08,2h0a2.58,2.58,0,0,0-.76,1.39,25,25,0,0,0-.43,5.56,3.25,3.25,0,0,0,1,2.07A10.65,10.65,0,0,0,3.9,40.45a20.53,20.53,0,0,0,4.33,1.61,22,22,0,0,0,5.41.64,17.06,17.06,0,0,0,5.94-.94,11.51,11.51,0,0,0,4.21-2.6,10.85,10.85,0,0,0,2.51-3.92,13.47,13.47,0,0,0,.85-4.82,10.94,10.94,0,0,0-1.2-5.41,12,12,0,0,0-3-3.57A16.82,16.82,0,0,0,19,19.13c-1.42-.58-2.74-1.16-4-1.72a13.88,13.88,0,0,1-3-1.85,3.18,3.18,0,0,1-1.2-2.57,3.58,3.58,0,0,1,1.46-2.95A5.3,5.3,0,0,1,15.6,8.9a3.24,3.24,0,0,1,2.1.61A3.59,3.59,0,0,1,18.815,11a6.37,6.37,0,0,1,.44,1.82c.06.62.09,1.13.09,1.52a1,1,0,0,0,.29.84,2.74,2.74,0,0,0,1.35.21,7.44,7.44,0,0,0,5-1.56h0Z" transform="translate(9097.075 2846.54)"/><path class="e" d="M29.744,43.238h0a10.68,10.68,0,0,1-3.583-.617,4.832,4.832,0,0,1-2.28-1.78A7.8,7.8,0,0,1,22.741,38c-.227-1.048-.42-2.281-.59-3.77H11.971L10.4,40.82l1.309.14-2,1.91h-.05a1.371,1.371,0,0,1-.885.325c-.038,0-.077,0-.115,0H5.548a9.349,9.349,0,0,1-1.917-.2,5.805,5.805,0,0,1-1.78-.671,4.2,4.2,0,0,1-1.32-1.2A2.983,2.983,0,0,1,0,39.33a18.517,18.517,0,0,1,.82-4.21c.565-1.988,1.335-4.348,2.081-6.629.669-2.048,1.455-4.152,2.287-6.379q.261-.7.523-1.4c.928-2.5,1.937-5.083,3-7.69q.26-.638.509-1.253l0-.011c.75-1.847,1.458-3.592,2.147-5.116.861-1.908,1.415-3.12,1.84-3.86a3.622,3.622,0,0,1,.52-.72L15.911,0l-1.08,1.75H21l.165,0a4.805,4.805,0,0,1,2.256.563,5.032,5.032,0,0,1,1.609,1.46,8.6,8.6,0,0,1,1.06,2.08c.262.758.491,1.543.7,2.4,1.521,6.188,2.82,11.44,3.86,15.61,1,4.077,1.8,7.411,2.389,9.91s1,4.374,1.23,5.59c.123.635.211,1.148.27,1.57l.38-.13h1.67l-2.23,2.14a1.92,1.92,0,0,1-1.027.3c-.057,0-.115,0-.172-.008h-3C30.023,43.235,29.883,43.238,29.744,43.238ZM18.25,10.3h0l-4.27,15.44h6.729L18.251,10.3Z" transform="translate(9059.479 2845.37)"/><path class="e" d="M20.259,9.94a5,5,0,0,0,3.25-.83l2.2-2.1-1.19.21a6.28,6.28,0,0,0,.19-1.2l.23-3.45a.7.7,0,0,0-.29-.64A1.22,1.22,0,0,0,24,1.75H4.629L4.789,0l-2,1.91a.58.58,0,0,0-.18.17h0a.92.92,0,0,0-.15.55c0,.66-.05,1.89-.17,3.69s-.27,3.88-.47,6.25-.39,4.91-.58,7.6-.39,5.25-.59,7.67S.3,32.41.179,34.3s-.17,3.22-.17,4a4.78,4.78,0,0,0,1.4,3.69c.94.86,2.5,1.28,4.68,1.28h13.45c1.68,0,2.81-.33,3.4-1l2.06-2-1.21.29a6.58,6.58,0,0,0,.19-1.24l.24-3.45a.72.72,0,0,0-.29-.62,1.16,1.16,0,0,0-.65-.2H10.439l.64-8.72h5.09a5.14,5.14,0,0,0,3.14-.75h0l.07-.07.09-.08,2-2-1.1.2a7,7,0,0,0,.2-1.27l.24-3.45a.69.69,0,0,0-.3-.65,1.16,1.16,0,0,0-.64-.17h-8.3l.58-8.25Z" transform="translate(9032.73 2845.36)"/><path class="e" d="M33.58,3.3a8.82,8.82,0,0,0-2.61-1.11,16.51,16.51,0,0,0-2.75-.44l-1.29-.07L27.5,0,25.42,2a3.12,3.12,0,0,0-.73,1.43c-.71,2.07-1.28,3.77-1.73,5.12s-.93,2.65-1.43,3.91-1.1,2.65-1.79,4.13S18.16,20,17.03,22.38c-.71-2.19-1.25-3.9-1.64-5.15l-.91-2.92c-.21-.7-.38-1.22-.5-1.55s-.22-.68-.32-1-.22-.79-.38-1.34-.41-1.38-.76-2.52c-.27-.85-.56-1.66-.87-2.42a5.57,5.57,0,0,0-1.41-2A6.73,6.73,0,0,0,7.81,2.13a12.84,12.84,0,0,0-3.94-.49H2.56L2.4.2.21,2.28h0A.68.68,0,0,0,0,2.77,10.43,10.43,0,0,0,.79,5.35c.52,1.36,1.18,2.93,2,4.71s1.59,3.61,2.42,5.52,1.59,3.59,2.26,5c.42.94.78,1.72,1,2.34a15.064,15.064,0,0,0,.76,1.64c.23.47.47.91.7,1.34l.82,1.52q-.4,4.68-.53,6.9c-.08,1.49-.11,2.56-.11,3.22a6,6,0,0,0,1.28,4.24c.86.92,2.46,1.37,4.8,1.37H19.4a.91.91,0,0,0,.71-.2l2.08-2-1.71-.3v-.52c.07-1,.16-2.18.26-3.45s.17-2.54.23-3.83.11-2.4.15-3.33a35.33,35.33,0,0,0,2.72-3.31q1.5-2.01,3-4.41c1-1.6,2-3.24,2.95-4.91s1.8-3.27,2.52-4.77,1.3-2.85,1.75-4.06a8.78,8.78,0,0,0,.67-2.81A2.35,2.35,0,0,0,33.58,3.3Z" transform="translate(9127.37 2845.35)"/><path class="f" d="M20.008,42.4H6.558c-2.366,0-4-.461-5-1.41a5.2,5.2,0,0,1-1.55-4c0-.763.056-2.072.17-4,.109-1.835.277-4.016.47-6.47.217-2.759.41-5.265.59-7.66l.092-1.224c.168-2.244.327-4.363.488-6.375.158-1.987.338-4.283.47-6.25.11-1.627.17-2.927.17-3.659A1.27,1.27,0,0,1,3.868.008h20.6a1.654,1.654,0,0,1,.861.24,1.121,1.121,0,0,1,.52,1l-.23,3.489a5.519,5.519,0,0,1-1.059,3.091c-.669.848-1.929,1.26-3.85,1.26h-7.64l-.52,7.31h7.82a1.7,1.7,0,0,1,.87.24,1.133,1.133,0,0,1,.52,1l-.23,3.479a5.526,5.526,0,0,1-1.07,3.091c-.658.848-1.914,1.26-3.84,1.26H11.958l-.571,7.78H23.748a1.56,1.56,0,0,1,.91.29,1.145,1.145,0,0,1,.49,1l-.229,3.479a5.538,5.538,0,0,1-1.07,3.091C23.2,41.976,21.94,42.4,20.008,42.4ZM3.868.878c-.4,0-.47.107-.47.409,0,.671-.057,1.853-.18,3.72-.141,2.131-.3,4.179-.471,6.26-.184,2.2-.369,4.611-.58,7.6-.176,2.494-.369,5-.59,7.671-.191,2.311-.346,4.481-.46,6.449-.119,2.055-.18,3.238-.18,4a4.291,4.291,0,0,0,1.25,3.34c.851.77,2.321,1.16,4.37,1.16h13.45c1.595,0,2.641-.3,3.11-.9a4.7,4.7,0,0,0,.869-2.58l.23-3.45a.2.2,0,0,0-.1-.2.552.552,0,0,0-.344-.121h-13.4l.71-9.65h5.53c1.6,0,2.643-.3,3.11-.9a4.623,4.623,0,0,0,.86-2.58l.239-3.45s0-.18-.07-.22a.768.768,0,0,0-.38-.1h-8.83l.65-9.18h8.51c1.591,0,2.637-.306,3.109-.91a4.584,4.584,0,0,0,.87-2.579l.23-3.451s0-.171-.07-.21a.764.764,0,0,0-.4-.11Z" transform="translate(9034.372 2844.672)"/><path class="f" d="M30.229,42.464a11.277,11.277,0,0,1-3.8-.657,5.342,5.342,0,0,1-2.479-2,8.321,8.321,0,0,1-1.211-3c-.2-.929-.389-2.073-.55-3.4H12.8l-1.85,7.71a1.74,1.74,0,0,1-1.68,1.293c-.037,0-.074,0-.11,0h-3.1a10.177,10.177,0,0,1-2-.21,6.252,6.252,0,0,1-1.93-.73,4.714,4.714,0,0,1-1.51-1.28A3.42,3.42,0,0,1,0,38.138,18.34,18.34,0,0,1,.841,33.8c.491-1.786,1.132-3.84,2.08-6.66.77-2.292,1.692-4.843,2.82-7.8l.275-.722c.933-2.446,1.814-4.756,2.725-6.968l.17-.413c.936-2.275,1.745-4.241,2.5-5.977.766-1.762,1.41-3.114,1.86-3.91a2.478,2.478,0,0,1,1.09-1.16A4.854,4.854,0,0,1,15.7,0c.088,0,.178,0,.265.007h5.549l.175,0a5.28,5.28,0,0,1,2.486.623,5.54,5.54,0,0,1,1.76,1.59,8.827,8.827,0,0,1,1.11,2.19,25.045,25.045,0,0,1,.72,2.45c1.442,5.838,2.741,11.09,3.86,15.61.466,1.941.892,3.689,1.268,5.23.438,1.795.816,3.345,1.132,4.69.586,2.491,1,4.375,1.23,5.6a16.289,16.289,0,0,1,.36,2.6,1.732,1.732,0,0,1-.57,1.48,2.279,2.279,0,0,1-1.285.395c-.045,0-.09,0-.135,0h-3C30.491,42.462,30.359,42.464,30.229,42.464Zm.4-.937h3a1.452,1.452,0,0,0,.91-.2c.129-.089.2-.352.2-.74a15.186,15.186,0,0,0-.339-2.42c-.231-1.214-.642-3.088-1.22-5.57-.542-2.327-1.3-5.476-2.4-9.91L26.922,7.078a22.307,22.307,0,0,0-.69-2.361,8.207,8.207,0,0,0-1-2A4.574,4.574,0,0,0,23.772,1.4a4.392,4.392,0,0,0-2.036-.5q-.082,0-.164,0h-5.55c-.091-.007-.184-.01-.276-.01a3.878,3.878,0,0,0-.994.13,1.994,1.994,0,0,0-.609.76c-.362.625-.965,1.921-1.821,3.81-.7,1.537-1.437,3.37-2.221,5.311l0,.008-.425,1.051c-1.141,2.816-2.122,5.328-3,7.68l-.4,1.076c-.877,2.342-1.706,4.554-2.4,6.684l-.223.687C2.95,30.23,2.29,32.258,1.8,34.007A17.769,17.769,0,0,0,1,38.1a2.493,2.493,0,0,0,.439,1.51,3.851,3.851,0,0,0,1.17,1.07,5.27,5.27,0,0,0,1.641.61,9.112,9.112,0,0,0,1.84.2h3.1a.82.82,0,0,0,.9-.61l1.99-8.36h11v.42c.144,1.322.339,2.577.58,3.73a7.56,7.56,0,0,0,1.07,2.67,4.443,4.443,0,0,0,2.07,1.61,10.381,10.381,0,0,0,3.443.587C30.373,41.534,30.5,41.532,30.632,41.527Zm-8.8-16.549h-7.89l5-18.1,2.89,18.1Zm-3.1-13.711h0l-3.56,12.77h5.56l-2-12.77Z" transform="translate(9061.039 2844.613)"/><path class="f" d="M14.409,43.6l-.263,0h-.181a22,22,0,0,1-5.349-.66,21.173,21.173,0,0,1-4.43-1.65,11,11,0,0,1-3-2.2A3.629,3.629,0,0,1,.016,36.7a24.685,24.685,0,0,1,.45-5.67c.346-1.327,1.039-2,2.06-2a3.359,3.359,0,0,1,2,.8c.722.567,1.4,1.08,2.07,1.571a13.5,13.5,0,0,0,2.63,1.53,8.155,8.155,0,0,0,3.227.662l.183,0h.055a7.787,7.787,0,0,0,1.466-.14,3.844,3.844,0,0,0,1.26-.44,2.5,2.5,0,0,0,.83-.78,1.99,1.99,0,0,0,.3-1.15,2.371,2.371,0,0,0-.93-2,12.287,12.287,0,0,0-2.7-1.54c-1.34-.58-2.5-1.063-3.65-1.52A14.751,14.751,0,0,1,5.5,23.79a11.3,11.3,0,0,1-2.93-3.69,12.711,12.711,0,0,1-1.16-5.77A13.8,13.8,0,0,1,2.9,7.68a13.579,13.579,0,0,1,3.82-4.46A15,15,0,0,1,11.957.75,23.451,23.451,0,0,1,17.716,0c3.769,0,6.618.848,8.47,2.52a8.513,8.513,0,0,1,2.821,6.61,7.012,7.012,0,0,1-2,5.331,7.727,7.727,0,0,1-5.044,1.875c-.161,0-.325-.005-.485-.015-.1.01-.2.015-.295.015a3.015,3.015,0,0,1-1.315-.3,1.419,1.419,0,0,1-.49-1.23,10.792,10.792,0,0,0-.08-1.48,6.562,6.562,0,0,0-.41-1.68,3.105,3.105,0,0,0-1-1.3,2.831,2.831,0,0,0-1.634-.516c-.062,0-.124,0-.186.006h-.075a4.8,4.8,0,0,0-2.925,1,3.116,3.116,0,0,0-1.28,2.58,2.727,2.727,0,0,0,1,2.22A13.747,13.747,0,0,0,15.7,17.41c1.26.583,2.579,1.159,3.919,1.71a16.715,16.715,0,0,1,4.06,2.38,12.183,12.183,0,0,1,3.13,3.7,11.449,11.449,0,0,1,1.26,5.64,13.953,13.953,0,0,1-.88,5,11.247,11.247,0,0,1-2.62,4.081,11.876,11.876,0,0,1-4.379,2.71A17.645,17.645,0,0,1,14.409,43.6Zm-.263-.951h0q.163,0,.325,0a16.825,16.825,0,0,0,5.445-.9,11.161,11.161,0,0,0,4-2.5,10.49,10.49,0,0,0,2.41-3.75,13.187,13.187,0,0,0,.82-4.659,10.528,10.528,0,0,0-1.14-5.18,11.6,11.6,0,0,0-2.89-3.43,15.87,15.87,0,0,0-3.84-2.24c-1.381-.569-2.726-1.155-4-1.74a14.864,14.864,0,0,1-3.11-1.9,3.685,3.685,0,0,1-1.37-2.94,4.072,4.072,0,0,1,1.64-3.32,5.829,5.829,0,0,1,3.585-1.24h.036c.067,0,.134-.005.2-.005a3.718,3.718,0,0,1,2.2.725,4.1,4.1,0,0,1,1.25,1.68,7,7,0,0,1,.47,1.94c.06.634.09,1.162.09,1.57,0,.28.035.439.1.46a2.381,2.381,0,0,0,1.069.12c.158.011.318.017.477.017a6.879,6.879,0,0,0,4.414-1.606A6.22,6.22,0,0,0,28,9.09a7.472,7.472,0,0,0-2.51-5.91C23.815,1.667,21.174.9,17.636.9a22.321,22.321,0,0,0-5.52.71,14.2,14.2,0,0,0-4.93,2.32,12.682,12.682,0,0,0-3.55,4.15,12.883,12.883,0,0,0-1.381,6.21,11.829,11.829,0,0,0,1.06,5.34,10.321,10.321,0,0,0,2.69,3.39,13.83,13.83,0,0,0,3.53,2.1l.227.09c1.218.483,2.369.94,3.443,1.43a13.353,13.353,0,0,1,2.91,1.67,3.332,3.332,0,0,1,1.291,2.71,2.89,2.89,0,0,1-.46,1.65,3.266,3.266,0,0,1-1.15,1.09,4.819,4.819,0,0,1-1.55.55,9.543,9.543,0,0,1-1.69.16H12.4a9.129,9.129,0,0,1-3.638-.751,15.043,15.043,0,0,1-2.811-1.63l-.673-.508C4.776,31.2,4.3,30.84,3.876,30.51a2.435,2.435,0,0,0-1.37-.6c-.223,0-.81,0-1.16,1.35A24.662,24.662,0,0,0,.927,36.7a2.826,2.826,0,0,0,.93,1.76,10.3,10.3,0,0,0,2.77,2,20.253,20.253,0,0,0,4.22,1.57,21.653,21.653,0,0,0,5.146.621Z" transform="translate(9098.714 2844.06)"/><path class="f" d="M20.075,42.552a1.339,1.339,0,0,1-.215-.017H16.7c-2.506,0-4.188-.5-5.141-1.52a6.446,6.446,0,0,1-1.409-4.56c0-.662,0-1.769.11-3.24q.042-.556.091-1.264c.1-1.367.228-3.236.43-5.516-.195-.356-.373-.689-.531-.982l-.007-.013-.212-.395-.044-.082c-.2-.374-.452-.841-.665-1.278l-.1-.2c-.206-.418-.439-.892-.672-1.46-.226-.552-.513-1.171-.846-1.889L7.7,20.123l-.2-.428c-.674-1.471-1.434-3.153-2.26-5L2.82,9.175C2.163,7.693,1.528,6.19.82,4.445A9.054,9.054,0,0,1,0,1.7C0,.181,2.5,0,4.38,0c.12,0,.241,0,.361,0A13.571,13.571,0,0,1,8.48.525a7.152,7.152,0,0,1,2.59,1.45,5.9,5.9,0,0,1,1.52,2.15c.322.775.621,1.6.89,2.461.282.894.5,1.615.654,2.141l0,.014.112.375.381,1.35c.09.339.2.675.31,1l.033.1c.11.33.277.828.467,1.47.17.574.4,1.309.695,2.239l.215.682c.09.282.189.593.3.931.269.846.6,1.9.983,3.068.9-1.9,1.625-3.449,2.209-4.72.642-1.387,1.237-2.767,1.77-4.1.62-1.548,1.061-2.748,1.43-3.89.385-1.19.875-2.634,1.5-4.462l.224-.658a3.532,3.532,0,0,1,.87-1.64A2.284,2.284,0,0,1,26.967.049c.054,0,.109,0,.163.006a15.5,15.5,0,0,1,1.641.09,16.679,16.679,0,0,1,2.83.45,8.972,8.972,0,0,1,2.75,1.17A2.82,2.82,0,0,1,35.73,4.2a9.12,9.12,0,0,1-.7,3c-.444,1.2-1.043,2.586-1.78,4.11-.771,1.6-1.619,3.207-2.52,4.79-.944,1.661-1.98,3.308-2.982,4.9l-.018.028c-1.147,1.824-2.1,3.235-3,4.44a34.029,34.029,0,0,1-2.641,3.22l-.13,3.17c-.06,1.287-.141,2.579-.24,3.84l-.26,3.45c-.077.97-.139,1.743-.18,2.14a1.7,1.7,0,0,1-.339.941A1.341,1.341,0,0,1,20.075,42.552ZM4.633.9Q4.5.9,4.36.9C1.007.9.91,1.587.91,1.665a10,10,0,0,0,.761,2.4c.54,1.4,1.2,2.976,1.949,4.69l2.43,5.53.189.428c.774,1.749,1.442,3.26,2.061,4.573.461,1.007.795,1.753,1.05,2.35.29.677.553,1.216.75,1.61.21.418.439.853.7,1.329l.82,1.53.06.121v.139c-.29,3.336-.455,5.522-.52,6.881-.072,1.5-.12,2.538-.12,3.19a5.6,5.6,0,0,0,1.16,3.92c.756.816,2.256,1.229,4.46,1.229h3.21a.766.766,0,0,0,.36-.049,1.233,1.233,0,0,0,.11-.42c0-.207.031-.514.073-.939.032-.32.072-.718.107-1.171l.26-3.451c.087-1.1.158-2.277.229-3.82l.16-3.5.121-.13a35.756,35.756,0,0,0,2.679-3.261c.948-1.251,1.929-2.687,3-4.389,1.173-1.866,2.108-3.42,2.939-4.891,1.021-1.8,1.838-3.351,2.5-4.739.755-1.584,1.324-2.893,1.74-4a8.4,8.4,0,0,0,.641-2.65,1.884,1.884,0,0,0-.95-1.651,8,8,0,0,0-2.46-1A15.726,15.726,0,0,0,28.71,1.1c-.84-.059-1.387-.09-1.58-.09a1.374,1.374,0,0,0-.9.22,2.868,2.868,0,0,0-.58,1.21c-.764,2.239-1.353,4-1.73,5.13-.411,1.232-.882,2.521-1.44,3.94s-1.248,2.951-1.79,4.14c-.6,1.306-1.4,2.99-2.321,4.939l-.409.861-.5,1.059-.36-1.12c-.678-2.215-1.214-3.9-1.64-5.15l-.91-2.92c-.24-.8-.382-1.243-.49-1.54s-.216-.642-.329-1.049l-.381-1.34c-.153-.554-.434-1.46-.76-2.51-.27-.863-.56-1.664-.86-2.381a4.881,4.881,0,0,0-1.29-1.82,6.208,6.208,0,0,0-2.26-1.25A12.275,12.275,0,0,0,4.633.9Z" transform="translate(9128.96 2844.535)"/><path class="d" d="M7.812.452.042,22.2c-.29.81,1,1.16,1.28.36L9.092.812C9.382,0,8.092-.348,7.812.452Z" transform="translate(9066.508 2849.898)"/><path class="d" d="M.614.489l-.59,2a.663.663,0,0,0,1.28.35l.59-2A.663.663,0,0,0,.614.489Z" transform="translate(9064.646 2876.731)"/><path class="d" d="M.087,1l.93,1.75c.4.75,1.55.08,1.15-.67L1.227.328C.827-.422-.323.248.087,1Z" transform="translate(9132.573 2847.962)"/><path class="d" d="M.073,1.009l5.84,12.11c.37.77,1.51.1,1.14-.67L1.223.339c-.38-.77-1.52-.09-1.15.67Z" transform="translate(9135.587 2855.051)"/><path class="d" d="M.23.637,0,5.068a.666.666,0,0,0,1.33,0L1.56.637A.666.666,0,0,0,.23.637Z" transform="translate(9038.8 2847.663)"/><path class="d" d="M.922.637,0,14.727c-.06.86,1.27.85,1.33,0L2.252.637A.666.666,0,0,0,.922.637Z" transform="translate(9037.268 2856.843)"/></g><path class="g" d="M2.531,16.594a2.6,2.6,0,0,1-1.32-.36A2.57,2.57,0,0,1,0,13.994l.19-11.46A2.534,2.534,0,0,1,1.5.345a2.565,2.565,0,0,1,2.569,0l9.82,5.89a2.569,2.569,0,0,1-.07,4.44l-10,5.56A2.566,2.566,0,0,1,2.531,16.594Zm.73-13-.15,9.5,8.3-4.649Z" transform="translate(8956.659 2744.856)"/><circle class="h" cx="5.32" cy="5.32" r="5.32" transform="translate(9119.22 2753.16)"/><g transform="translate(-15.416 1.724)"><g class="n" transform="matrix(1, 0, 0, 1, 8943.28, 2742.1)"><path class="i" d="M22.484,0A22.484,22.484,0,1,1,0,22.484,22.484,22.484,0,0,1,22.484,0Z" transform="translate(133.14 106.18)"/></g><path class="j" d="M13.931,7.143a1.232,1.232,0,0,1,0,2.138L7.894,12.768,1.852,16.26A1.236,1.236,0,0,1,0,15.191V1.233A1.236,1.236,0,0,1,1.852.164L7.894,3.652Z" transform="translate(9093.354 2862.205)"/></g><circle class="k" cx="3.76" cy="3.76" r="3.76" transform="translate(8932 2823.6)"/><path class="l" d="M10.55,21.081h-.009a10.512,10.512,0,1,1,.009,0Zm0-17.941a3.066,3.066,0,1,1,0,.04Z" transform="translate(9203.88 2753.22)"/><circle class="m" cx="25.652" cy="25.652" r="25.652" transform="translate(9179.147 2906.718)"/><path class="j" d="M10.67,21.14a1.724,1.724,0,0,1-1.183-.467L.565,12.443A1.755,1.755,0,1,1,2.944,9.864l7.374,6.785L20.028.76a1.754,1.754,0,0,1,2.992,1.821l-10.8,17.71a1.754,1.754,0,0,1-1.256.825,1.578,1.578,0,0,1-.291.024Z" transform="translate(9193.183 2921.847)"/></g></svg>