<svg xmlns="http://www.w3.org/2000/svg" xmlns:xlink="http://www.w3.org/1999/xlink" width="31.638" height="22.503" viewBox="0 0 31.638 22.503"><defs><style>.a{fill:url(#a);}</style><linearGradient id="a" x1="-9.232" y1="-20.533" x2="-9.232" y2="-20.509" gradientUnits="objectBoundingBox"><stop offset="0" stop-color="#bed5ff"/><stop offset="1" stop-color="#fff"/></linearGradient></defs><path class="a" d="M-3947.38,20.625a2.945,2.945,0,0,1-.139-3.447l7.745-4.453c.226-.14.462-.275.726-.42l.043-.022a7.749,7.749,0,0,1,2.16-.813c1.174-.213,2.118-.076,4.5.485.985.235,1.505.345,2.089.44.95.146,1.783.266,2.66.384l1.055.14.485.064.468.062c.786.106.959.213.918.509-.132.92-1.189,1.78-3,1.945a7.066,7.066,0,0,1-1.584-.081c-.315-.046-.637-.1-1.061-.179l-.822-.158c-.292-.055-.514-.089-.7-.112-.584-.064-.915-.006-1,.351-.146.574.679,1.042,2.192,1.555a15.029,15.029,0,0,0,3.031.725,17.836,17.836,0,0,0,4.675-1.314l.775-.28c.931-.347,1.888-.719,2.819-1.092l.895-.359.246-.1.052-.023c1.282-.184,2.2.768,1.6,1.231a52.726,52.726,0,0,1-5.845,3.516c-3.663,1.909-6.728,2.956-8.686,2.749a71.872,71.872,0,0,1-8.434-2.007l-.126-.036-4.521,2.616h-.023A4.009,4.009,0,0,1-3947.38,20.625Zm21.932-11.773a.273.273,0,0,1-.152-.046c-.145-.1-3.574-2.444-4.837-4.421a.035.035,0,0,0,0-.009,2.787,2.787,0,0,1-.431-1.489A2.955,2.955,0,0,1-3927.86,0a3.058,3.058,0,0,1,2.419,1.165A3.055,3.055,0,0,1-3923.023,0a2.956,2.956,0,0,1,3.013,2.888,2.787,2.787,0,0,1-.431,1.489.04.04,0,0,1,0,.009c-1.262,1.977-4.691,4.322-4.836,4.421a.273.273,0,0,1-.152.046Z" transform="translate(3948)"/></svg>