<svg xmlns="http://www.w3.org/2000/svg" width="21.885" height="15.254" viewBox="0 0 21.885 15.254"><defs><style>.a{fill:#353e5a;}</style></defs><path class="a" d="M21.507,17.13a2.765,2.765,0,0,0-2.366-2.151,73.536,73.536,0,0,0-8.195-.3,73.548,73.548,0,0,0-8.2.3A2.764,2.764,0,0,0,.386,17.13,23.438,23.438,0,0,0,0,22.3a23.431,23.431,0,0,0,.381,5.173,2.764,2.764,0,0,0,2.365,2.151,73.484,73.484,0,0,0,8.2.3,73.469,73.469,0,0,0,8.195-.3A2.765,2.765,0,0,0,21.5,27.476a23.42,23.42,0,0,0,.383-5.173A23.435,23.435,0,0,0,21.507,17.13ZM8.118,25.7V18.463l6.958,3.63Z" transform="translate(0 -14.676)"/></svg>